<?xml version="1.0" encoding="UTF-8"?>
<svg id="Layer_2" data-name="Layer 2" xmlns="http://www.w3.org/2000/svg" viewBox="0 0 648.83 370.85">
  <defs>
    <style>
      .cls-1 {
        stroke-width: 3.01px;
      }

      .cls-1, .cls-2 {
        stroke-linecap: round;
      }

      .cls-1, .cls-2, .cls-3, .cls-4 {
        stroke: #111;
        stroke-miterlimit: 10;
      }

      .cls-1, .cls-3, .cls-4 {
        fill: none;
      }

      .cls-2 {
        fill: #1012cf;
        stroke-width: 2.62px;
      }

      .cls-3 {
        stroke-width: 2.6px;
      }

      .cls-4 {
        stroke-width: 3.25px;
      }
    </style>
  </defs>
  <g id="Layer_2-2" data-name="Layer 2">
    <rect width="648.83" height="370.85" fill="none" />
    <g stroke="currentColor">
      <text/>
      <path class="cls-3" d="m278.12,176.18s15.6,9.72,0,18.49"/>
      <path class="cls-3" d="m274.03,198.72s13.13,14.13-9.47,19.77"/>
      <path class="cls-4" d="m494.83,84.95l-40.42,96.24,44.86-98.58s22.12-14.02,21.48,7.01l-41.7,96.39s-3.79,11.83-1.26,14.9l31.59,68.91h-92.88l-20.53-43.94s-6.72-14.94-14.95.32l-14.78,26.36c.52.91-9.18,11.28-27.52,17.26-21.74,7.09-56.62,6.92-72.8-15.71-4.54-6.35-6.76-13.89-6.76-25.6l10.11-27.6s17.06-10.52,20.22,6.13l-5.05,19.28s-1.66,11.73,5.37,19.78c7.41,8.49,24.93,14.2,43.02,1.83,3.96-2.71,7.53-6.86,9.74-11.53l50.93-106.91c-1.62.72,8.49-10.25,0-24.46-9.48-15.87-49.16-20.12-62.31,15.26l-34.75,73.17s-15.16,12.71-25.27-4.82l37.28-83.25s20.85-39.87,69.5-29.79c48.65,10.08,49.29,32.42,45.49,46.88-3.79,14.46-25.91,59.15-25.91,59.15l48.65-100.77s7.48-5.15,15.16-1.75c1.46.64,5.75,3.16,5.05,5.26q-3.78,11.39-3.79,11.39l-36.65,85.88,46.13-97.71c10.05-5.53,14.87-7.64,22.73,1.03Z"/>
      <path class="cls-4" d="m455.67,77.95c-3.48,7.85-10.12,21.36,5.07,22.2"/>
      <path class="cls-4" d="m481.13,79.68s-5.42,18.42,7.31,20.47"/>
      <path class="cls-4" d="m508.92,78.49s-9.61,16.39,7.71,20.66"/>
    </g>
    <g>
      <polyline class="cls-1" points="126.08 273.94 110.28 273.69 199.05 77.6 208.13 77.75"/>
      <line class="cls-1" x1="141.88" y1="274.19" x2="126.08" y2="273.94"/>
      <line class="cls-1" x1="208.13" y1="77.75" x2="230.64" y2="78.1"/>
      <path class="cls-1" d="m214.85,77.85l49.91.79c9.55.15,16.88,2.27,21.98,6.37,5.1,4.1,7.86,9.86,8.29,17.31.42,7.44-1.64,16.19-6.19,26.25l-.12.27c-3.28,7.25-7.58,13.91-12.89,19.98-5.31,6.07-11.08,11.09-17.3,15.05-6.22,3.96-12.35,6.4-18.38,7.31l-.37.82c6.8.65,11.97,3.13,15.5,7.43,3.53,4.3,5.3,9.89,5.31,16.78,0,6.89-1.94,14.64-5.83,23.24l-.12.27c-5.17,11.41-11.75,21.26-19.74,29.52-8,8.27-16.91,14.63-26.76,19.08-9.85,4.45-20.18,6.59-30.99,6.42l-51.06-.81"/>
      <line class="cls-1" x1="216.8" y1="108.68" x2="216.8" y2="108.68"/>
      <path class="cls-1" d="m191.46,160.01l24.17.38c8.93.14,16.76-2.06,23.49-6.61,6.73-4.55,12.02-11.08,15.88-19.59l.12-.27c3.53-7.79,4.2-13.85,2.01-18.17-2.19-4.32-6.98-6.54-14.37-6.66l-25.95-.41"/>
      <line class="cls-1" x1="191.46" y1="160.01" x2="191.46" y2="160.01"/>
      <line class="cls-1" x1="180.94" y1="187.9" x2="180.94" y2="187.9"/>
      <path class="cls-1" d="m155.72,243.61l27.2.43c9,.14,16.98-2.13,23.95-6.81,6.97-4.68,12.5-11.55,16.6-20.61l.12-.27c2.71-5.98,3.89-11.05,3.56-15.2-.33-4.16-2.21-7.31-5.62-9.46-3.42-2.15-8.33-3.28-14.75-3.38l-25.84-.41"/>
      <line class="cls-1" x1="155.72" y1="243.61" x2="155.72" y2="243.61"/>
    </g>
    <line class="cls-1" x1="214.97" y1="108.59" x2="189.63" y2="159.93"/>
    <line class="cls-1" x1="180.57" y1="188.12" x2="155.35" y2="243.83"/>
  </g>
</svg>
