<svg xmlns="http://www.w3.org/2000/svg" fill="currentColor" viewBox="0 0 188 49">
    <g fill="currentColor">
        <path fill="currentColor"
              d="m0 0 19.058 49h3.51L3.51 0H0ZM40.667 24.505c1.136.37 2.177.748 3.122 1.134.886.352 1.719.818 2.478 1.386a5.814 5.814 0 0 1 1.651 1.94 5.75 5.75 0 0 1 .594 2.7v.05a7.3 7.3 0 0 1-.596 3.292 7.468 7.468 0 0 1-2.01 2.708c-1.738 1.444-4.173 2.166-7.304 2.167a17.443 17.443 0 0 1-5.78-.991 20.023 20.023 0 0 1-5.317-2.821l-.052-.051.052-.051 3.51-5.41.052.05a10.513 10.513 0 0 0 3.51 2.445 10.6 10.6 0 0 0 4.18.83c2.03 0 3.045-.636 3.046-1.91a1.426 1.426 0 0 0-.273-.829 1.48 1.48 0 0 0-.709-.527 17.764 17.764 0 0 0-2.322-.856 2.07 2.07 0 0 0-.49-.125 1.846 1.846 0 0 1-.49-.126 68.31 68.31 0 0 1-3.097-.88c-.99-.298-1.93-.738-2.788-1.306a6.922 6.922 0 0 1-2.038-2.117 6.126 6.126 0 0 1-.8-3.293v-.1a7.602 7.602 0 0 1 .671-3.218 7.256 7.256 0 0 1 1.91-2.514 8.777 8.777 0 0 1 2.994-1.633 12.295 12.295 0 0 1 3.87-.58c1.697.007 3.383.254 5.008.732 1.666.479 3.25 1.201 4.696 2.142v.1l-3.148 5.594-.051-.05a8.616 8.616 0 0 0-2.942-1.84 10.203 10.203 0 0 0-3.717-.68 7.64 7.64 0 0 0-.825.05c-.298.03-.587.115-.852.252-.252.129-.472.31-.645.529-.19.274-.28.602-.259.933a1.103 1.103 0 0 0 .41.832c.319.28.674.517 1.058.705.47.236.952.447 1.446.63.532.2 1.057.385 1.574.555.113.001.226.018.335.05.12.034.232.068.336.1M51.09 14.274h6.861v25.2H51.09v-25.2Zm0-10.08h6.861v5.9H51.09v-5.9ZM71.946 18.61h7.588v5.592h-4.439l-3.149-5.592Zm7.588-14.415v5.9h-5.627a2.415 2.415 0 0 0-1.166.24c-.362.177-.67.44-.898.767a4.677 4.677 0 0 0-.722 2.772v25.6h-6.862V24.202h-3.72V18.61h3.717v-5.04a8.975 8.975 0 0 1 .748-3.63 9.51 9.51 0 0 1 5.136-5.014 9.723 9.723 0 0 1 3.767-.731h5.627ZM100.076 16.9v5.594h-3.82l-3.2-5.594h7.02Zm-7.897 13.956c-.007.367.066.732.213 1.07.146.339.364.643.639.895.267.26.585.467.935.605.35.139.725.207 1.103.202h5.007v5.846h-5.007a9.878 9.878 0 0 1-3.79-.731 9.58 9.58 0 0 1-3.102-2.016 9.766 9.766 0 0 1-2.09-3 8.817 8.817 0 0 1-.775-3.68v-7.56h-3.714V16.9h3.716V7.772h6.862l.003 23.084ZM114.266 13.868c1.776-.01 3.534.343 5.162 1.034 3.189 1.333 5.731 3.815 7.097 6.929a12.366 12.366 0 0 1 1.058 5.091c.003.949-.1 1.895-.308 2.822l-.052.1h-13.108l-3.309-5.14h9.807a7.51 7.51 0 0 0-2.401-3.478 6.075 6.075 0 0 0-3.948-1.36 6.382 6.382 0 0 0-2.633.553 6.827 6.827 0 0 0-2.141 1.481 6.736 6.736 0 0 0-1.42 2.21 7.392 7.392 0 0 0-.512 2.787c.009.816.166 1.623.465 2.385a7.26 7.26 0 0 0 1.342 2.235 7.675 7.675 0 0 0 2.116 1.682 5.713 5.713 0 0 0 2.787.678 8.227 8.227 0 0 0 2.561-.378 4.752 4.752 0 0 0 2.193-1.689l.051-.05.103.05 5.987 2.575-.103.1a12.805 12.805 0 0 1-4.722 3.964 13.453 13.453 0 0 1-6.065 1.424 13.643 13.643 0 0 1-5.239-1.009 13.191 13.191 0 0 1-4.258-2.772 13.27 13.27 0 0 1-2.868-4.132 12.21 12.21 0 0 1-1.057-5.04 12.349 12.349 0 0 1 1.057-5.091c1.367-3.123 3.92-5.607 7.123-6.929a13.349 13.349 0 0 1 5.239-1.034M157.934 4.194v35.28h-6.917l.052-12.65a6.196 6.196 0 0 0-.594-2.67 7.496 7.496 0 0 0-1.548-2.193 6.91 6.91 0 0 0-2.271-1.463 7.49 7.49 0 0 0-2.813-.529 7.286 7.286 0 0 0-2.787.53 6.759 6.759 0 0 0-2.245 1.486 7.414 7.414 0 0 0-1.523 2.218 6.828 6.828 0 0 0 0 5.443 7.115 7.115 0 0 0 3.768 3.68 6.957 6.957 0 0 0 2.787.554c.484 0 .967-.033 1.445-.1.467-.061.92-.196 1.342-.4h.102l2.53 4.536-.053.05a9.953 9.953 0 0 1-6.193 1.916 13.538 13.538 0 0 1-5.11-.967 13.288 13.288 0 0 1-4.336-2.814 13.281 13.281 0 0 1-2.867-4.132 12.553 12.553 0 0 1-1.058-5.04c0-1.732.36-3.447 1.058-5.04a13.291 13.291 0 0 1 2.867-4.133 13.286 13.286 0 0 1 4.336-2.813 13.535 13.535 0 0 1 5.11-.967 9.46 9.46 0 0 1 4.531.903 9.211 9.211 0 0 1 3.521 2.927V4.194h6.866ZM183.939 0l-19.058 49h3.51l19.058-49h-3.51Z"/>
    </g>
</svg>
