<svg width="375" height="812" viewBox="0 0 375 812" fill="none" xmlns="http://www.w3.org/2000/svg">
<g clip-path="url(#clip0_119_1115)">
<rect width="375" height="812" fill="white"/>
<g clip-path="url(#clip1_119_1115)">
<rect opacity="0.35" x="336.5" y="17.8333" width="21" height="10.3333" rx="2.16667" stroke="black"/>
<path opacity="0.4" d="M359 21V25C359.805 24.6612 360.328 23.8731 360.328 23C360.328 22.1269 359.805 21.3388 359 21Z" fill="black"/>
<rect x="338" y="19.3333" width="18" height="7.33333" rx="1.33333" fill="black"/>
<path fill-rule="evenodd" clip-rule="evenodd" d="M323.33 19.6079C325.546 19.608 327.677 20.4594 329.283 21.9862C329.404 22.1041 329.598 22.1026 329.717 21.9829L330.873 20.8162C330.933 20.7555 330.967 20.6733 330.966 20.5877C330.966 20.5021 330.931 20.4202 330.87 20.3602C326.655 16.3207 320.005 16.3207 315.79 20.3602C315.729 20.4202 315.694 20.502 315.694 20.5876C315.693 20.6732 315.727 20.7555 315.787 20.8162L316.943 21.9829C317.062 22.1028 317.256 22.1043 317.377 21.9862C318.983 20.4593 321.114 19.6079 323.33 19.6079ZM323.33 23.4036C324.548 23.4035 325.722 23.856 326.624 24.6732C326.746 24.7892 326.939 24.7867 327.058 24.6676L328.212 23.5009C328.273 23.4397 328.307 23.3567 328.306 23.2704C328.305 23.1842 328.27 23.1018 328.208 23.0419C325.459 20.4855 321.204 20.4855 318.455 23.0419C318.393 23.1018 318.358 23.1842 318.357 23.2705C318.356 23.3568 318.39 23.4398 318.451 23.5009L319.605 24.6676C319.724 24.7867 319.917 24.7892 320.039 24.6732C320.941 23.8566 322.114 23.4041 323.33 23.4036ZM325.643 25.9574C325.645 26.0439 325.611 26.1273 325.549 26.1879L323.552 28.2036C323.493 28.2628 323.414 28.2961 323.33 28.2961C323.247 28.2961 323.167 28.2628 323.109 28.2036L321.111 26.1879C321.049 26.1272 321.015 26.0438 321.017 25.9573C321.019 25.8708 321.056 25.7889 321.121 25.7309C322.396 24.652 324.264 24.652 325.54 25.7309C325.604 25.7889 325.642 25.8709 325.643 25.9574Z" fill="black"/>
<path fill-rule="evenodd" clip-rule="evenodd" d="M309.667 17.6667H308.667C308.114 17.6667 307.667 18.1145 307.667 18.6667V27.3334C307.667 27.8857 308.114 28.3334 308.667 28.3334H309.667C310.219 28.3334 310.667 27.8857 310.667 27.3334V18.6667C310.667 18.1145 310.219 17.6667 309.667 17.6667ZM304 20.0001H305C305.552 20.0001 306 20.4478 306 21.0001V27.3334C306 27.8857 305.552 28.3334 305 28.3334H304C303.448 28.3334 303 27.8857 303 27.3334V21.0001C303 20.4478 303.448 20.0001 304 20.0001ZM300.333 22.3334H299.333C298.781 22.3334 298.333 22.7811 298.333 23.3334V27.3334C298.333 27.8857 298.781 28.3334 299.333 28.3334H300.333C300.886 28.3334 301.333 27.8857 301.333 27.3334V23.3334C301.333 22.7811 300.886 22.3334 300.333 22.3334ZM295.667 24.3334H294.667C294.114 24.3334 293.667 24.7811 293.667 25.3334V27.3334C293.667 27.8857 294.114 28.3334 294.667 28.3334H295.667C296.219 28.3334 296.667 27.8857 296.667 27.3334V25.3334C296.667 24.7811 296.219 24.3334 295.667 24.3334Z" fill="black"/>
<path d="M37.7764 29.2393C36.8741 29.2393 36.1062 28.9954 35.4727 28.5078C34.8393 28.0156 34.4496 27.3639 34.3038 26.5527H36.0606C36.1746 26.9264 36.3842 27.2227 36.6895 27.4414C36.9994 27.6556 37.3663 27.7627 37.7901 27.7627C38.5102 27.7627 39.073 27.446 39.4786 26.8125C39.8842 26.1745 40.087 25.2904 40.087 24.1602H40.0255H39.9913H39.9708C39.7384 24.6296 39.3988 24.9941 38.9522 25.2539C38.5056 25.5091 37.9929 25.6367 37.4141 25.6367C36.4753 25.6367 35.6983 25.3268 35.0831 24.707C34.4724 24.0872 34.1671 23.3034 34.1671 22.3555C34.1671 21.3438 34.5089 20.5143 35.1925 19.8672C35.8806 19.2155 36.7602 18.8896 37.8311 18.8896C38.5512 18.8896 39.1892 19.056 39.7452 19.3887C40.3012 19.7214 40.7455 20.2044 41.0782 20.8379C41.543 21.6628 41.7755 22.7018 41.7755 23.9551C41.7755 25.6139 41.4223 26.9105 40.7159 27.8447C40.0095 28.7744 39.0297 29.2393 37.7764 29.2393ZM36.4434 23.6953C36.808 24.0553 37.2729 24.2354 37.838 24.2354C38.4031 24.2354 38.8702 24.0553 39.2393 23.6953C39.6085 23.3353 39.793 22.8796 39.793 22.3281C39.793 21.7721 39.6062 21.305 39.2325 20.9268C38.8588 20.5485 38.3962 20.3594 37.8448 20.3594C37.2934 20.3594 36.8308 20.5462 36.4571 20.9199C36.0834 21.2891 35.8966 21.7493 35.8966 22.3008C35.8966 22.8659 36.0789 23.3307 36.4434 23.6953ZM44.5921 27.9541C44.2731 27.9541 44.0111 27.8516 43.806 27.6465C43.6009 27.4414 43.4984 27.1839 43.4984 26.874C43.4984 26.5596 43.6009 26.3021 43.806 26.1016C44.0111 25.8965 44.2731 25.7939 44.5921 25.7939C44.9157 25.7939 45.1778 25.8965 45.3783 26.1016C45.5834 26.3021 45.6859 26.5596 45.6859 26.874C45.6859 27.1839 45.5834 27.4414 45.3783 27.6465C45.1778 27.8516 44.9157 27.9541 44.5921 27.9541ZM44.5921 22.8271C44.2731 22.8271 44.0111 22.7269 43.806 22.5264C43.6009 22.3213 43.4984 22.0638 43.4984 21.7539C43.4984 21.4395 43.6009 21.182 43.806 20.9814C44.0111 20.7764 44.2731 20.6738 44.5921 20.6738C44.9157 20.6738 45.1778 20.7764 45.3783 20.9814C45.5834 21.182 45.6859 21.4395 45.6859 21.7539C45.6859 22.0638 45.5834 22.3213 45.3783 22.5264C45.1778 22.7269 44.9157 22.8271 44.5921 22.8271ZM52.2213 29V27.1611H47.402V25.5889C48.2041 24.1123 49.5439 21.9613 51.4215 19.1357H53.9098V25.6709H55.2428V27.1611H53.9098V29H52.2213ZM49.0358 25.6094V25.7119H52.2487V20.5713H52.153C51.0866 22.1481 50.0475 23.8275 49.0358 25.6094ZM59.1669 29V20.9131H59.0507L56.5966 22.6357V20.9404L59.1738 19.1357H60.9306V29H59.1669Z" fill="black"/>
</g>
<g clip-path="url(#clip2_119_1115)">
<path d="M118.145 218.09C114.436 219.25 114.176 224.595 110.424 225.608L94.0196 234.685L91.7164 246.796C91.6412 247.421 91.566 248.047 91.8819 248.636C92.0186 248.857 92.1961 249.072 92.3501 249.269L95.3684 253.495L105.086 266.998L110.749 274.892C110.856 275.052 111.055 275.132 111.212 275.065L115.595 274.091L133.555 270.263C139.051 269.059 144.566 267.984 149.997 266.614C155.066 265.342 160.132 263.763 164.857 261.423C169.791 258.942 174.259 255.565 178.101 251.469C182.094 247.263 185.532 242.547 188.946 237.812C192.568 232.783 196.148 227.761 199.757 222.646C203.366 217.532 206.905 212.362 210.308 207.125C212.01 204.506 213.67 201.893 215.301 199.219C216.686 196.998 218.135 194.789 219.084 192.303C220.426 188.794 220.501 184.331 217.378 181.809C216.305 180.892 214.969 180.453 213.626 180.541C213.398 180.553 213.194 180.583 212.973 180.637C213.087 180.423 213.185 180.233 213.299 180.019C215.176 176.322 217.19 171.706 215.69 167.453C214.937 165.305 213.496 163.302 211.294 162.793C209.783 162.446 208.35 162.766 207.001 163.382C207.406 162.445 207.763 161.471 208.016 160.491C209.109 156.142 207.721 150.798 203.39 149.002C201.501 148.205 199.404 148.273 197.62 149.193C196.168 149.955 195.036 151.196 194.045 152.548C194.025 149.569 192.908 146.641 190.206 145.285C186.717 143.54 183.635 145.989 181.615 148.852C179.128 152.376 176.683 155.894 174.243 159.454C170.912 164.33 167.669 169.237 164.479 174.224C164.961 172.246 165.144 170.223 164.614 168.174C164.328 167.076 163.801 165.904 162.802 165.349C161.685 164.702 160.361 164.919 159.232 165.326C157.789 165.868 156.557 166.992 155.44 168.055C152.109 171.221 149.286 175.014 146.61 178.807C144.33 182.037 142.134 185.408 140.343 188.983C138.055 193.574 136.037 198.301 133.631 202.799C132.714 204.513 131.746 206.3 130.452 207.719C130.366 207.841 130.273 207.921 130.163 208.024L130.128 208.073L129.728 208.33C129.328 208.586 126.783 211.462 126.352 211.657C123.788 213.802 120.998 217.209 118.145 218.09Z" fill="#7171FF"/>
<path d="M193.308 158.471C192.062 160.963 190.792 163.437 189.498 165.892C188.32 168.132 187.094 170.335 185.845 172.52C184.63 174.655 183.392 176.772 182.112 178.896C180.798 181.068 179.46 183.221 178.164 185.369C176.711 187.738 175.217 190.112 173.741 192.462L173.147 193.407C173.043 193.554 172.887 193.775 172.676 193.762C172.458 193.706 172.327 193.527 172.255 193.318C172.146 193.004 172.095 192.66 172.15 192.322C172.164 191.99 172.243 191.671 172.387 191.364C173.898 188.965 175.409 186.566 176.896 184.148C178.251 181.97 179.589 179.816 180.92 177.62C182.182 175.521 183.462 173.398 184.676 171.262C185.891 169.127 187.134 166.899 188.336 164.677C189.636 162.265 190.895 159.859 192.124 157.392C192.284 157.061 192.445 156.729 192.612 156.441C192.68 156.189 192.907 156.024 193.148 156.098C193.342 156.135 193.473 156.314 193.504 156.529C193.657 157.144 193.595 157.857 193.308 158.471Z" fill="white"/>
<path d="M204.38 168.074C202.95 170.461 201.561 172.843 200.173 175.225C198.829 177.49 197.527 179.748 196.161 181.995C194.87 184.186 193.555 186.359 192.199 188.538C190.844 190.717 189.482 192.853 188.079 194.994C186.624 197.21 185.121 199.388 183.595 201.548C183.405 201.818 183.214 202.088 183.006 202.383C182.902 202.53 182.679 202.585 182.537 202.474C182.365 202.301 182.246 202.055 182.208 201.796C182.072 201.156 182.223 200.474 182.563 199.94C182.945 199.4 183.326 198.86 183.708 198.32C183.899 198.05 184.089 197.78 184.28 197.51C184.367 197.388 184.471 197.24 184.558 197.118C184.575 197.093 184.714 196.897 184.627 197.02L184.644 196.995C184.679 196.946 184.696 196.921 184.731 196.872C185.453 195.798 186.175 194.724 186.897 193.651C188.283 191.533 189.668 189.416 191.007 187.262C192.345 185.107 193.66 182.935 194.974 180.762C196.3 178.521 197.626 176.281 198.969 174.016C200.34 171.659 201.753 169.296 203.124 166.939L203.643 166.048C203.747 165.901 203.903 165.68 204.114 165.693C204.332 165.749 204.463 165.928 204.535 166.137C204.644 166.451 204.695 166.796 204.64 167.134C204.626 167.466 204.547 167.785 204.403 168.092L204.38 168.074V168.074Z" fill="white"/>
<path d="M208.825 186.118C206.972 189.469 205.047 192.765 203.058 196.048C201.07 199.332 199.027 202.535 196.896 205.707C195.678 207.536 194.436 209.346 193.17 211.138C193.066 211.285 192.844 211.339 192.678 211.21C192.506 211.037 192.386 210.791 192.348 210.533C192.213 209.893 192.34 209.192 192.704 208.677C192.982 208.284 193.242 207.916 193.519 207.524C193.588 207.425 193.658 207.327 193.727 207.229C193.762 207.18 193.779 207.155 193.814 207.106C193.692 207.278 193.796 207.131 193.814 207.106L194.23 206.517C194.785 205.732 195.316 204.928 195.83 204.149C196.875 202.566 197.937 200.958 198.958 199.356C200.983 196.178 202.979 192.937 204.886 189.666C205.975 187.812 207.04 185.94 208.064 184.074C208.145 183.909 208.324 183.706 208.536 183.719C208.753 183.775 208.884 183.954 208.957 184.163C209.222 184.828 209.136 185.522 208.825 186.118Z" fill="white"/>
<path d="M166.137 192.152C168.343 192.785 170.533 193.594 172.626 194.592C174.696 195.571 176.687 196.715 178.581 198.046C180.492 199.354 182.283 200.831 183.965 202.411C185.676 204.053 187.285 205.84 188.744 207.736C190.156 209.595 191.459 211.558 192.572 213.636L192.974 214.403C193.248 214.994 193.284 215.663 193.064 216.283C192.997 216.532 192.843 216.751 192.652 216.866C192.479 216.957 192.281 216.877 192.192 216.694C190.806 214.026 189.172 211.503 187.297 209.167C186.785 208.503 186.239 207.887 185.67 207.252L185.816 207.405C182.329 203.544 178.234 200.339 173.701 197.959C172.423 197.298 171.111 196.686 169.788 196.141L169.963 196.202C168.64 195.657 167.289 195.203 165.927 194.816C165.41 194.674 165.372 193.853 165.408 193.391C165.422 193.062 165.499 192.746 165.641 192.442C165.757 192.382 165.922 192.096 166.137 192.152Z" fill="white"/>
<path d="M161.23 183.457L157.203 191.187C157.123 191.352 156.943 191.555 156.732 191.542C156.515 191.486 156.384 191.307 156.312 191.098C156.112 190.447 156.157 189.759 156.444 189.146L160.471 181.416C160.551 181.25 160.731 181.048 160.942 181.061C161.159 181.117 161.29 181.296 161.362 181.505C161.562 182.156 161.517 182.843 161.23 183.457Z" fill="white"/>
<path d="M156.607 187.917C157.947 191.931 158.256 196.316 157.786 200.508C157.216 205.154 155.937 209.664 153.918 213.821C152.82 216.154 151.547 218.425 150.173 220.579C150.07 220.726 149.938 220.965 149.704 220.934C149.487 220.878 149.356 220.7 149.284 220.491C149.176 220.178 149.125 219.834 149.18 219.497C149.194 219.166 149.273 218.848 149.415 218.541C150.64 216.65 151.753 214.71 152.749 212.677C152.989 212.181 153.212 211.71 153.452 211.214C153.515 211.073 153.56 210.957 153.623 210.816C153.658 210.767 153.686 210.675 153.72 210.626C153.755 210.577 153.822 210.326 153.72 210.626C153.829 210.369 153.937 210.111 154.045 209.854C154.479 208.825 154.865 207.76 155.186 206.681C155.339 206.155 155.491 205.628 155.643 205.101C155.654 205.033 155.689 204.984 155.682 204.941C155.75 204.69 155.604 205.26 155.671 205.009L155.778 204.598C155.845 204.347 155.913 204.096 155.957 203.826C156.169 202.852 156.34 201.884 156.487 200.897C156.514 200.652 156.438 201.277 156.482 201.007L156.498 200.83L156.535 200.517C156.579 200.247 156.582 199.984 156.626 199.714C156.662 199.248 156.716 198.758 156.711 198.298C156.714 198.034 156.723 197.813 156.726 197.55L156.742 197.372C156.723 197.813 156.739 197.636 156.743 197.525L156.728 197.133C156.716 196.63 156.688 196.152 156.677 195.649C156.656 195.367 156.642 195.128 156.622 194.846C156.603 194.717 156.601 194.563 156.582 194.435L156.557 194.263C156.526 194.048 156.607 194.606 156.563 194.306C156.488 193.79 156.412 193.275 156.313 192.741C156.214 192.208 156.091 191.656 155.975 191.146L155.926 190.956C156 191.318 155.962 191.06 155.95 190.974L155.852 190.594C155.773 190.342 155.689 190.048 155.61 189.796C155.501 189.483 155.475 189.158 155.506 188.803C155.52 188.472 155.598 188.153 155.741 187.847C155.845 187.7 155.994 187.437 156.211 187.493C156.381 187.511 156.535 187.708 156.607 187.917Z" fill="white"/>
<path d="M119.203 212.733C49.4135 272.908 9.97173 259.716 -22.5681 223.798C-31.0995 253.223 -43.4727 321.038 -43.4773 320.614C46.4327 366.222 126.987 304.051 156.025 267.265L119.203 212.733Z" fill="#FF8B00"/>
<path fill-rule="evenodd" clip-rule="evenodd" d="M-141.246 224.361C-140.702 302.626 -139.042 423.845 -137.763 440.702C-100.384 411.472 -43.7632 346.864 -19.5929 289.426L-20.051 289.077C-8.73701 263.586 -11.7341 236.048 -26.3265 221.455C-40.1598 207.594 -59.5539 210.308 -63.5321 211.039L-58.3142 201.158L-77.9413 208.47L-83.3167 186.34L-88.5346 196.22C-90.3321 192.066 -99.5122 172.417 -119.497 166.235C-141.899 159.341 -169.087 172.468 -183.223 199.611C-174.669 204.619 -159.301 213.684 -141.246 224.361Z" fill="#FF8B00"/>
<path fill-rule="evenodd" clip-rule="evenodd" d="M105.157 244.667C51.1532 291.055 5.77523 276.154 -9.97876 263.045L-9.44309 262.333C5.97831 275.165 50.9062 290.095 104.611 243.964L105.157 244.667Z" fill="white"/>
<path fill-rule="evenodd" clip-rule="evenodd" d="M0.457965 291.95C-8.71674 289.637 -15.776 286.341 -19.7426 283.041L-19.2069 282.329C-15.3795 285.513 -8.45703 288.769 0.659189 291.067C9.76459 293.362 21.0236 294.692 33.4981 294.053C58.4443 292.773 88.2382 283.618 115.391 258.565L115.96 259.248C88.642 284.453 58.6545 293.672 33.5402 294.959C20.9845 295.603 9.64349 294.265 0.457965 291.95Z" fill="white"/>
<path fill-rule="evenodd" clip-rule="evenodd" d="M-9.5658 319.504C-20.1724 316.965 -28.1042 313.366 -32.0756 310.061L-31.5399 309.349C-27.7174 312.53 -19.933 316.091 -9.3742 318.618C1.16948 321.142 14.4358 322.625 29.1893 321.682C58.6924 319.796 94.133 308.213 125.652 275.875L126.255 276.525C94.5667 309.036 58.9205 320.691 29.2417 322.588C14.4044 323.536 1.05596 322.046 -9.5658 319.504Z" fill="white"/>
<path d="M98.8712 220.15L112.987 210.836C116.224 208.699 120.485 209.598 122.688 212.881L158.351 266.011C160.405 269.071 160.02 273.252 157.446 275.841L144.432 288.933C141.216 292.167 136.008 291.588 133.508 287.717L96.744 230.81C94.4535 227.265 95.4185 222.428 98.8712 220.15Z" fill="#212121"/>
<path d="M114.509 226.998L114.509 226.999C114.819 227.514 115.072 228.065 115.263 228.644C115.452 229.221 115.572 229.817 115.624 230.417C115.666 231.039 115.616 231.663 115.468 232.261L115.467 232.264C115.318 232.885 115.073 233.477 114.745 234.018C114.115 235.054 113.227 235.876 112.181 236.392C111.586 236.683 110.951 236.88 110.304 236.961L110.302 236.961C109.639 237.047 108.963 237.006 108.313 236.834C107.728 236.675 107.176 236.408 106.672 236.047C106.168 235.686 105.721 235.236 105.36 234.72L105.36 234.719C104.993 234.199 104.713 233.614 104.543 232.995L104.543 232.995C104.375 232.387 104.303 231.745 104.321 231.109L104.321 231.108C104.339 230.464 104.442 229.829 104.627 229.219L104.627 229.219L104.628 229.216C104.803 228.614 105.061 228.044 105.394 227.522L105.394 227.521C105.711 227.021 106.095 226.582 106.54 226.214L106.54 226.214C106.999 225.834 107.501 225.52 108.035 225.272L108.035 225.272L108.038 225.27C108.561 225.02 109.11 224.852 109.681 224.756C110.24 224.663 110.807 224.661 111.369 224.75C111.92 224.839 112.452 225.031 112.937 225.323L113.059 225.396L113.06 225.396C113.209 225.495 113.353 225.609 113.493 225.734C113.884 226.1 114.228 226.527 114.509 226.998Z" stroke="white" stroke-width="0.680574"/>
<path fill-rule="evenodd" clip-rule="evenodd" d="M116.331 220.516C116.546 220.367 116.835 220.43 116.976 220.656L149.178 272.048C149.319 272.274 149.26 272.578 149.045 272.727C148.83 272.876 148.541 272.813 148.399 272.587L116.198 221.195C116.056 220.969 116.116 220.665 116.331 220.516Z" fill="white"/>
<rect width="181.845" height="136.763" rx="16" transform="matrix(0.877505 0.479567 -0.443025 0.896509 276.486 212.992)" fill="#A9D77E"/>
<path d="M320.624 274.254C320.535 273.397 320.107 272.534 319.402 272.059C318.932 271.802 318.461 271.545 317.99 271.288L288.606 255.231C288.135 254.973 287.697 254.824 287.224 254.744C285.801 254.686 284.405 255.09 283.273 255.999C282.521 256.485 281.935 257.153 281.483 257.894C281.134 258.601 280.784 259.308 280.435 260.015L275.164 270.337L270.802 278.819L270.557 279.314C270.522 279.385 270.522 279.385 270.487 279.456C270.175 279.914 270.065 280.482 270.603 280.776L291.919 292.424C294.81 294.004 297.634 295.548 300.525 297.128C302.005 297.936 303.484 298.744 304.963 299.553L305.098 299.626C305.703 299.957 306.588 299.722 307.169 299.411C308.021 299.068 308.741 298.474 309.193 297.733L312.405 291.406L317.99 280.448L319.839 276.878C319.944 276.666 320.049 276.454 320.154 276.242C320.466 275.784 320.646 275.074 320.624 274.254Z" fill="#FFF3E8"/>
<path d="M256.164 310.49C255.952 313.338 257.099 316.03 259.278 317.669C261.758 319.563 265.081 319.404 267.813 318.023C269.588 317.197 271.166 315.904 272.376 314.32C273.309 313.123 273.94 311.672 274.031 310.105C274.077 309.322 273.681 308.567 273.044 308.129C271.866 307.575 270.365 308.192 269.373 308.817C268.483 309.409 267.693 310.144 267.104 310.99C266.448 311.799 265.792 312.608 265.271 313.49C264.198 314.97 263.596 316.707 263.365 318.556C263.242 320.015 263.627 321.483 264.491 322.673C267.154 325.925 271.822 324.255 274.632 322.198C276.14 321.047 277.449 319.607 278.49 318.02C279.285 316.928 280.425 315.485 280.21 314.02C280.153 313.271 279.687 312.657 279.012 312.468C277.832 312.092 276.433 312.675 275.441 313.301C273.626 314.554 272.245 316.314 271.468 318.404C270.802 319.926 270.743 321.6 271.33 323.178C271.919 324.577 273.261 325.49 274.716 325.657C276.781 325.798 278.825 325.118 280.573 323.828C282.218 322.572 283.565 320.883 284.476 318.866C284.86 318.089 285.142 317.345 285.46 316.53C285.777 315.716 285.037 315.311 284.324 315.371C283.203 315.566 282.246 316.121 281.42 316.927C279.219 319.137 278.289 322.401 279.056 325.514C279.896 328.308 282.102 330.411 284.805 330.99C285.38 331.035 285.958 330.902 286.504 330.662C287.152 330.387 287.701 329.968 288.217 329.442C288.768 328.845 289.362 327.643 288.179 327.446L287.808 327.333C287.436 327.22 287.942 327.406 287.673 327.259C287.404 327.112 287.1 327.036 286.831 326.889C286.293 326.595 285.79 326.23 285.39 325.832L285.624 326.049C284.722 325.108 284.061 324.028 283.74 322.775L283.837 323.097C283.711 322.489 283.651 321.918 283.592 321.347C283.562 321.061 283.635 320.742 283.672 320.493C283.707 320.422 283.748 319.995 283.745 320.173C283.742 320.351 283.782 319.924 283.817 319.854C283.855 319.605 283.995 319.322 284.032 319.073C284.102 318.932 284.172 318.79 284.242 318.649C284.277 318.578 284.312 318.507 284.347 318.437L284.277 318.578C284.245 318.471 284.694 317.908 284.728 317.837C284.97 317.52 284.521 318.083 284.694 317.908C284.866 317.732 284.901 317.662 285.038 317.557L280.964 318.025C280.786 318.556 280.577 318.981 280.399 319.512C280.294 319.725 280.155 320.007 280.05 320.22L280.015 320.29C279.945 320.432 279.91 320.502 279.875 320.573C279.631 321.068 279.354 321.456 279.077 321.843C279.249 321.668 279.284 321.597 279.147 321.702L279.01 321.806C278.94 321.948 278.838 321.982 278.7 322.087C278.391 322.367 278.735 322.016 278.838 321.982C278.94 321.948 278.324 322.33 278.803 322.053C279.281 321.775 278.905 322.019 278.803 322.053C278.7 322.087 278.292 322.222 279.007 321.985C278.905 322.019 278.803 322.053 278.768 322.123C278.426 322.296 279.176 321.987 278.972 322.055L278.768 322.123C278.394 322.188 278.7 322.087 278.87 322.089C278.7 322.087 278.429 322.118 278.259 322.115C277.988 322.146 278.598 322.121 278.362 322.081C278.294 322.044 278.125 322.041 278.023 322.075L277.786 322.036C277.415 321.923 277.921 322.109 277.719 321.999C277.315 321.779 276.979 321.595 276.678 321.341L276.912 321.558C276.479 321.052 276.148 320.512 275.954 319.867L276.051 320.19C275.924 319.582 275.9 318.94 275.943 318.335C275.943 318.335 275.983 317.907 275.946 318.156C275.983 317.907 276.053 317.766 276.091 317.517C276.195 317.305 276.198 317.127 276.303 316.915C276.338 316.844 276.582 316.349 276.408 316.703C276.582 316.349 276.789 316.103 276.964 315.749C277.069 315.537 277.206 315.433 277.311 315.22L277.483 315.045C277.241 315.362 277.241 315.362 277.413 315.186C277.585 315.011 277.894 314.731 277.276 315.291C277.413 315.186 277.413 315.186 277.174 315.325C277.002 315.5 276.797 315.568 276.558 315.707C276.217 315.88 275.945 315.911 275.606 315.905C275.404 315.795 275.404 315.795 275.539 315.869C275.606 315.905 275.673 315.942 275.741 315.979L275.507 315.761C275.606 315.905 275.773 316.086 275.77 316.264L275.673 315.942C275.671 316.12 275.735 316.335 275.698 316.584C275.668 316.298 275.768 316.443 275.698 316.584C275.663 316.655 275.593 316.796 275.59 316.974C275.555 317.045 275.52 317.116 275.52 317.116C275.45 317.257 275.485 317.186 275.625 316.904C275.59 316.974 275.52 317.116 275.45 317.257C275.311 317.54 275.104 317.786 274.932 317.962C274.76 318.137 274.585 318.49 274.343 318.807C274.273 318.949 274.136 319.053 274.066 319.195C274.238 319.019 274.273 318.949 274.066 319.195C273.859 319.441 273.652 319.687 273.445 319.933C273.308 320.038 273.238 320.179 273.101 320.284C272.964 320.389 273.066 320.355 273.273 320.109L273.101 320.284C272.964 320.389 272.929 320.459 272.792 320.564C272.655 320.669 272.655 320.669 272.517 320.773L272.827 320.493C272.69 320.598 272.587 320.632 272.45 320.737C272.894 320.53 272.929 320.459 272.69 320.598L272.552 320.703C272.348 320.771 271.974 320.836 272.62 320.739C272.517 320.773 272.313 320.841 272.211 320.875L272.007 320.943L272.211 320.875C272.042 320.873 271.939 320.906 271.77 320.904C271.703 320.867 271.227 320.966 271.668 320.938C271.498 320.935 271.396 320.969 271.262 320.895C271.092 320.893 271.025 320.856 270.856 320.853C270.788 320.816 270.417 320.703 270.686 320.85C270.181 320.664 269.643 320.37 269.277 319.901L269.511 320.118C269.01 319.575 268.615 318.82 268.389 318.068L268.486 318.391C268.295 317.568 268.238 316.818 268.386 316.001C268.386 316.001 268.426 315.574 268.423 315.752C268.42 315.93 268.458 315.681 268.493 315.611C268.531 315.362 268.6 315.22 268.705 315.008C268.81 314.796 268.883 314.476 268.987 314.264C269.057 314.123 269.092 314.052 269.162 313.911C269.057 314.123 269.162 313.911 269.232 313.769C269.477 313.274 269.753 312.887 270.065 312.428C270.17 312.216 270.342 312.041 270.514 311.866C270.584 311.724 270.686 311.69 270.756 311.549C270.479 311.936 270.721 311.619 270.791 311.478C270.963 311.303 271.068 311.09 271.24 310.915C271.275 310.844 271.377 310.81 271.447 310.669C271.654 310.423 271.275 310.844 271.275 310.844C271.549 310.635 271.036 310.983 271.001 311.054C270.761 311.192 270.455 311.294 270.148 311.396C269.436 311.456 269.199 311.416 269.503 311.493C269.57 311.529 269.57 311.529 269.503 311.493C269.301 311.382 269.637 311.566 269.637 311.566L269.403 311.348C269.57 311.529 269.702 311.781 269.767 311.996L269.67 311.674C269.767 311.996 269.761 312.352 269.689 312.672C269.694 312.315 269.689 312.672 269.619 312.813C269.549 312.955 269.546 313.133 269.442 313.345C269.337 313.557 269.197 313.84 269.159 314.089C269.337 313.557 269.194 314.018 269.125 314.16C269.055 314.301 268.985 314.442 268.848 314.547C268.711 314.652 268.778 314.689 268.778 314.689C268.778 314.689 268.743 314.759 268.95 314.513C268.813 314.618 268.743 314.759 268.606 314.864C268.434 315.039 268.022 315.353 268.708 314.83C268.571 314.935 268.536 315.005 268.399 315.11C268.262 315.215 267.85 315.529 268.262 315.215C268.673 314.901 268.262 315.215 268.124 315.319C267.987 315.424 267.579 315.56 268.329 315.251C268.192 315.356 268.09 315.39 267.885 315.458C267.339 315.699 268.396 315.288 267.987 315.424C267.885 315.458 267.783 315.492 267.614 315.489C267.444 315.486 267.342 315.52 267.24 315.554C267.853 315.351 267.409 315.557 267.173 315.518L266.799 315.583C266.358 315.611 267.138 315.588 266.799 315.583C266.46 315.577 266.223 315.538 265.919 315.461L265.548 315.348C265.414 315.275 265.414 315.275 265.548 315.348L265.346 315.238C265.145 315.128 264.876 314.981 264.674 314.871C264.136 314.577 263.633 314.212 263.232 313.814L263.466 314.031C262.498 313.053 261.772 311.758 261.419 310.398L261.516 310.72C261.325 309.897 261.268 309.148 261.416 308.33C261.456 307.903 261.052 307.683 260.681 307.57C260.106 307.525 259.528 307.658 258.982 307.898C257.992 308.346 256.726 309.18 256.605 310.461L256.164 310.49Z" fill="#05061B"/>
<path d="M295.684 335.588C297.374 338.218 300.265 339.798 303.285 339.562C307.085 339.304 310.473 337.114 312.421 333.688C313.359 332.135 313.76 330.288 313.684 328.541C313.63 327.613 312.508 327.809 311.93 327.942C309.279 328.468 306.786 329.711 304.692 331.53C302.872 333.14 301.243 335.572 301.542 338.25C301.75 340.25 302.944 341.98 304.59 342.969C306.841 344.29 309.528 343.692 311.681 342.444C313.972 341.092 316.04 338.809 316.251 335.961C316.329 335.285 315.517 335.2 315.076 335.229C314.159 335.356 313.374 335.735 312.653 336.33C310.422 338.253 307.733 341.275 308.6 344.532C309.087 345.966 310.257 347.054 311.71 347.399C313.466 347.82 315.23 347.706 316.902 346.914C318.779 346.053 320.524 344.941 322.138 343.578L318.539 343.947C319.474 349.486 323.681 353.761 328.99 354.597C330.243 354.653 331.472 354.067 332.335 353.012C332.819 352.378 333.515 351.142 332.332 350.945C332.028 350.868 331.689 350.863 331.385 350.787L331.014 350.674C331.014 350.674 330.576 350.524 330.879 350.6C330.307 350.377 329.801 350.19 329.263 349.896C328.254 349.345 327.248 348.616 326.38 347.782L326.614 348C325.078 346.442 323.988 344.499 323.444 342.316L323.541 342.638C323.444 342.316 323.414 342.03 323.353 341.637C323.072 339.958 320.44 341.483 319.754 342.006C319.445 342.286 319.069 342.53 318.76 342.81C318.623 342.914 318.383 343.053 318.246 343.158C318.864 342.597 318.383 343.053 318.211 343.228C318.039 343.404 317.835 343.472 317.698 343.576C317.56 343.681 317.56 343.681 317.458 343.715C317.835 343.472 317.937 343.438 317.698 343.576C317.458 343.715 317.222 343.675 317.152 343.817C317.56 343.681 317.56 343.681 317.356 343.749L317.05 343.851L316.743 343.953C317.05 343.851 317.117 343.888 316.912 343.956L316.369 344.018C316.2 344.015 316.2 344.015 316.436 344.055L316.2 344.015C316.03 344.012 315.861 344.01 315.659 343.899C315.592 343.863 315.086 343.676 315.355 343.823C315.221 343.75 315.019 343.639 314.885 343.566C314.548 343.382 314.314 343.164 314.013 342.91L314.247 343.128C313.779 342.692 313.483 342.082 313.322 341.544L313.419 341.867C313.354 341.652 313.324 341.366 313.295 341.08C313.262 340.973 313.265 340.795 313.3 340.724C313.335 340.653 313.375 340.226 313.268 340.617C313.305 340.368 313.445 340.085 313.483 339.836C313.552 339.695 313.587 339.624 313.657 339.483C313.867 339.058 313.415 339.799 313.657 339.483C313.762 339.27 313.969 339.024 314.074 338.812L314.144 338.671C314.316 338.495 314.214 338.529 314.074 338.812C314.176 338.778 314.281 338.566 314.316 338.495C314.488 338.32 314.66 338.145 314.867 337.898C315.246 337.477 314.593 338.108 314.832 337.969C315.071 337.83 315.106 337.76 315.176 337.618L311.578 337.987L311.573 338.343C311.57 338.522 311.535 338.592 311.573 338.343C311.535 338.592 311.465 338.734 311.36 338.946C311.291 339.087 311.256 339.158 311.186 339.299C311.046 339.582 311.256 339.158 311.256 339.158C311.256 339.158 310.944 339.616 310.909 339.687C310.632 340.075 311.288 339.265 310.944 339.616C310.909 339.687 310.874 339.758 310.772 339.792C310.6 339.967 310.36 340.106 310.909 339.687C310.874 339.758 310.772 339.792 310.737 339.862C310.565 340.038 310.258 340.14 310.941 339.794L310.702 339.933C310.463 340.072 310.191 340.103 310.906 339.865C310.804 339.899 310.702 339.933 310.667 340.004C310.463 340.072 310.328 339.998 310.871 339.936C310.769 339.97 310.667 340.004 310.565 340.038C310.36 340.106 310.328 339.998 310.734 340.041C310.632 340.075 310.565 340.038 310.463 340.072L310.191 340.103C310.191 340.103 310.664 340.182 310.258 340.14C310.022 340.1 309.852 340.097 309.615 340.058L309.312 339.982C309.513 340.092 309.446 340.055 309.312 339.982C309.177 339.908 308.975 339.798 308.774 339.688C308.37 339.467 308.069 339.213 307.735 338.851L307.969 339.069C307.235 338.308 306.74 337.409 306.449 336.442L306.546 336.764C306.484 336.371 306.422 335.978 306.395 335.514C306.398 335.336 306.4 335.158 306.438 334.909C306.438 334.909 306.478 334.482 306.441 334.731C306.403 334.98 306.511 334.589 306.511 334.589C306.548 334.34 306.688 334.058 306.793 333.845C306.828 333.775 306.967 333.492 306.863 333.704C306.758 333.916 306.933 333.563 306.933 333.563C306.933 333.563 307.037 333.35 307.107 333.209C307.177 333.068 307.349 332.892 307.142 333.138C306.935 333.384 307.177 333.068 307.212 332.997C307.247 332.926 307.384 332.821 307.454 332.68C307.661 332.434 307.043 332.994 307.317 332.785L307.626 332.505C307.661 332.434 307.763 332.4 307.9 332.295C308.312 331.981 307.489 332.609 307.763 332.4C308.037 332.191 308.14 332.157 308.379 332.018C308.858 331.741 307.935 332.225 308.242 332.123C308.344 332.089 308.481 331.984 308.583 331.95C308.685 331.916 309.027 331.743 309.231 331.676C309.436 331.608 309.333 331.642 309.129 331.71C309.231 331.676 309.333 331.642 309.436 331.608C309.947 331.438 310.423 331.339 310.933 331.169L309.18 330.57C309.242 330.963 309.237 331.319 309.196 331.746C309.194 331.924 309.191 332.103 309.086 332.315C309.046 332.742 309.156 332.173 309.016 332.456C308.909 332.846 308.836 333.166 308.662 333.52C308.592 333.661 308.487 333.873 308.417 334.015C308.242 334.368 308.557 333.732 308.382 334.085C308.207 334.439 308 334.685 307.759 335.002C307.586 335.177 307.689 335.143 307.828 334.86C307.793 334.931 307.759 335.002 307.656 335.036C307.554 335.07 307.484 335.211 307.347 335.316C307.038 335.596 307.828 334.86 307.347 335.316C307.21 335.421 307.073 335.525 306.936 335.63C307.656 335.036 307.175 335.491 306.971 335.559C306.559 335.873 307.654 335.214 307.073 335.525C306.936 335.63 306.766 335.627 306.629 335.732C307.312 335.387 306.834 335.664 306.629 335.732L306.358 335.763C306.731 335.698 306.731 335.698 306.527 335.766C306.323 335.834 306.255 335.797 306.086 335.794C305.917 335.791 305.814 335.825 305.645 335.823L305.712 335.859L305.476 335.82C305.137 335.814 304.833 335.738 304.529 335.662C304.359 335.659 304.225 335.585 304.056 335.583L303.854 335.472C303.55 335.396 303.246 335.32 302.977 335.173C302.372 334.842 301.802 334.441 301.301 333.898L301.535 334.116C301.135 333.717 300.769 333.248 300.438 332.708C300.171 332.383 299.733 332.233 299.324 332.369C298.034 332.561 296.904 333.291 296.109 334.383C295.764 334.734 295.453 335.192 295.684 335.588Z" fill="#05061B"/>
<path d="M343.794 361.968C345.158 363.701 347.14 364.874 349.27 365.23C351.739 365.591 354.288 365.098 356.544 363.817C358.73 362.676 360.485 360.851 361.604 358.589C362.023 357.74 362.24 356.781 362.119 355.817C361.966 354.745 361.199 353.877 360.22 353.612C358.768 353.267 357.2 353.847 355.936 354.504C354.775 355.126 353.713 355.893 352.85 356.948C351.47 358.53 350.662 360.512 350.528 362.684C350.365 366.816 353.673 369.971 357.323 370.708C359.961 371.072 362.613 370.545 364.871 369.086C367.264 367.699 369.192 365.699 370.45 363.153C370.624 362.8 370.495 362.37 370.194 362.115C370.127 362.079 370.059 362.042 370.059 362.042C369.452 361.889 368.806 361.986 368.225 362.297C365.324 363.675 362.843 366.45 362.758 369.906C362.753 372.508 364.413 374.852 366.842 375.64C368.595 376.239 370.529 376.129 372.166 375.407C372.814 375.132 373.363 374.714 373.879 374.187C374.223 373.837 374.468 373.342 374.543 372.844C374.459 371.631 372.722 372.208 372.176 372.449C372.926 372.14 372.483 372.347 372.313 372.344C372.144 372.341 371.837 372.443 372.211 372.378C372.585 372.313 371.802 372.514 371.77 372.406L371.939 372.409L371.77 372.406C371.703 372.37 371.601 372.404 371.431 372.401C371.194 372.361 370.958 372.322 370.721 372.282C370.484 372.243 370.856 372.356 370.654 372.246L370.385 372.099C370.183 371.988 369.914 371.841 369.713 371.731C369.309 371.511 368.941 371.219 368.607 370.858L368.841 371.075C368.206 370.459 367.778 369.597 367.52 368.737L367.617 369.059C367.455 368.522 367.396 367.951 367.439 367.345C367.442 367.167 367.444 366.989 367.514 366.848C367.519 366.491 367.409 367.06 367.549 366.777C367.622 366.457 367.726 366.245 367.799 365.926C367.834 365.855 367.906 365.535 368.009 365.501L367.904 365.714C367.939 365.643 367.974 365.572 368.009 365.501C368.078 365.36 368.113 365.289 368.25 365.185C368.285 365.114 368.32 365.043 368.355 364.972C368.148 365.219 368.078 365.36 368.183 365.148C368.288 364.936 368.39 364.902 368.492 364.868L368.183 365.148L368.355 364.972C368.699 364.622 367.775 365.284 368.218 365.077C368.834 364.695 367.672 365.318 368.116 365.111L365.79 364.289C365.999 363.865 365.755 364.36 365.72 364.43L365.408 364.888C365.338 365.03 365.268 365.171 365.131 365.276C364.994 365.381 365.061 365.417 365.026 365.488C364.991 365.559 364.991 365.559 365.198 365.313C364.991 365.559 364.784 365.805 364.577 366.051L364.405 366.226C364.233 366.402 364.268 366.331 364.577 366.051C364.44 366.156 364.338 366.19 364.268 366.331C364.131 366.436 364.029 366.47 363.959 366.611C364.577 366.051 364.233 366.402 364.096 366.507C363.959 366.611 363.822 366.716 363.685 366.821C363.104 367.132 364.23 366.58 363.787 366.787L363.445 366.959C363.241 367.027 362.969 367.058 363.547 366.925C363.276 366.956 362.934 367.129 362.663 367.16C362.391 367.191 363.139 367.061 362.663 367.16L362.187 367.259L361.746 367.288C361.305 367.316 362.152 367.33 361.679 367.251C361.103 367.206 360.495 367.053 359.955 366.938C360.259 367.014 359.82 366.864 359.82 366.864L359.484 366.68C358.642 366.31 357.87 365.799 357.203 365.075L357.437 365.292C356.501 364.422 355.874 363.271 355.554 362.018L355.651 362.341C355.392 361.481 355.405 360.59 355.521 359.665C355.556 359.594 355.523 359.487 355.558 359.416C355.486 359.736 355.558 359.416 355.593 359.346C355.631 359.097 355.736 358.885 355.738 358.706C355.843 358.494 355.881 358.245 355.951 358.104C355.986 358.033 356.055 357.892 356.09 357.821C356.021 357.963 355.951 358.104 356.09 357.821C356.23 357.538 356.265 357.468 356.437 357.292C356.472 357.221 356.714 356.905 356.472 357.221C356.23 357.538 356.472 357.221 356.507 357.151C356.542 357.08 356.679 356.975 356.714 356.905C356.921 356.659 356.268 357.289 356.577 357.009L356.851 356.8C357.09 356.661 356.235 357.182 356.612 356.939C356.714 356.905 357.09 356.661 356.612 356.939C356.133 357.216 356.577 357.009 356.612 356.939C356.918 356.837 356.51 356.973 356.408 357.007C356.918 356.837 355.932 357.106 356.408 357.007C356.612 356.939 356.577 357.009 356.408 357.007C356.408 357.007 356.814 357.049 356.644 357.046C356.475 357.043 356.846 357.156 356.846 357.156C356.98 357.23 357.048 357.267 357.147 357.411L356.913 357.193C357.147 357.411 357.279 357.662 357.376 357.985L357.279 357.662C357.309 357.948 357.338 358.234 357.368 358.519C357.333 358.59 357.258 359.088 357.365 358.697C357.295 358.839 357.328 358.946 357.258 359.088C357.188 359.229 357.118 359.371 357.081 359.619C356.906 359.973 357.255 359.266 357.081 359.619C357.046 359.69 356.492 360.465 356.492 360.465C356.699 360.219 356.734 360.148 356.562 360.324L356.492 360.465C356.355 360.57 356.25 360.782 356.113 360.887C355.734 361.308 356.559 360.502 356.148 360.816C356.011 360.921 355.839 361.096 355.701 361.201C355.29 361.515 356.282 360.89 355.839 361.096L355.427 361.41L355.769 361.238L355.529 361.376C355.392 361.481 355.223 361.478 355.086 361.583C354.949 361.687 354.983 361.617 355.392 361.481L355.086 361.583L354.677 361.719C354.473 361.787 354.473 361.787 354.846 361.721L354.575 361.753L354.134 361.781C353.964 361.778 353.693 361.809 353.523 361.807C353.862 361.812 353.523 361.807 353.354 361.804C353.015 361.798 352.644 361.685 352.305 361.68L351.832 361.601C351.697 361.527 351.63 361.49 351.764 361.564L351.496 361.417C351.124 361.304 350.855 361.157 350.519 360.973C349.914 360.643 349.277 360.204 348.776 359.662L349.01 359.879C348.776 359.662 348.542 359.444 348.343 359.156C347.644 358.324 346.143 358.941 345.458 359.465C344.877 359.776 344.396 360.231 344.049 360.76C343.909 361.043 343.527 361.643 343.794 361.968V361.968Z" fill="#05061B"/>
<path fill-rule="evenodd" clip-rule="evenodd" d="M174.163 357.676C173.756 358.518 173.417 359.382 173.147 360.258C172.956 360.4 172.802 360.586 172.737 360.825C172.473 361.752 172.137 362.666 171.724 363.517C171.352 364.31 170.884 365.068 170.364 365.786L170.358 365.794L170.323 365.843L170.277 365.905L170.116 366.127C170.056 366.21 169.989 366.288 169.923 366.365C169.856 366.443 169.789 366.521 169.729 366.604C169.462 366.916 169.189 367.179 168.917 367.442L168.917 367.442C168.868 367.49 168.868 367.49 168.886 367.472C168.921 367.436 169.028 367.327 168.957 367.387C168.937 367.414 168.897 367.47 168.851 367.477C168.825 367.481 168.788 367.517 168.746 367.56C168.713 367.593 168.676 367.629 168.638 367.657C168.522 367.772 168.402 367.857 168.271 367.95L168.27 367.95C168.237 367.974 168.202 367.998 168.167 368.024C168.091 368.072 168.022 368.126 167.952 368.18C167.883 368.233 167.813 368.287 167.737 368.335C167.618 368.415 167.672 368.382 167.727 368.349C167.781 368.316 167.836 368.283 167.717 368.363C167.631 368.425 167.545 368.488 167.433 368.529C167.357 368.578 167.286 368.619 167.214 368.661C167.143 368.703 167.072 368.744 166.996 368.793L166.778 368.924C166.731 368.958 166.602 369.02 166.566 369.037C166.559 369.04 166.556 369.042 166.556 369.042C166.556 369.042 166.607 369.019 166.758 368.952C166.603 369.025 166.442 369.092 166.28 369.16C166.119 369.227 165.957 369.295 165.802 369.368C165.756 369.375 165.712 369.394 165.667 369.413L165.667 369.413C165.65 369.42 165.632 369.428 165.614 369.435C165.607 369.437 165.599 369.439 165.59 369.442C165.581 369.445 165.57 369.449 165.559 369.453C165.55 369.455 165.541 369.457 165.532 369.458C165.453 369.482 165.363 369.508 165.272 369.534C165.182 369.56 165.092 369.586 165.013 369.61C164.934 369.635 164.848 369.654 164.763 369.673C164.678 369.692 164.592 369.711 164.513 369.735L164.263 369.798L164.172 369.812L164.126 369.819L163.988 369.84L163.758 369.874C163.574 369.902 163.391 369.93 163.227 369.93C163.053 369.944 162.885 369.951 162.716 369.958C162.547 369.965 162.379 369.972 162.205 369.986L162.253 369.986C162.218 369.987 162.182 369.99 162.159 369.993L161.924 369.98C161.842 369.98 161.754 369.974 161.666 369.969L161.665 369.969C161.577 369.964 161.489 369.959 161.407 369.959C161.08 369.959 160.747 369.911 160.414 369.863C160.224 369.842 160.035 369.822 159.865 369.774L159.578 369.718L159.507 369.705L159.481 369.684C159.122 369.615 158.783 369.518 158.444 369.422C157.767 369.229 157.058 368.966 156.395 368.697C156.153 368.635 155.898 368.649 155.648 368.711C155.352 368.781 155.088 368.919 154.83 369.106C154.532 369.349 154.23 369.764 154.698 369.964L154.767 370.001L154.644 370.096C155.001 370.253 155.362 370.397 155.727 370.526C155.827 370.583 155.926 370.641 156.024 370.7C156.182 370.793 156.339 370.887 156.501 370.973C157.13 371.346 157.738 371.747 158.327 372.175C159.478 373.012 160.549 373.959 161.54 375.016C162.074 375.576 162.542 376.171 162.99 376.793L162.906 376.683C163.828 377.948 164.491 379.401 164.839 380.95C164.937 381.379 164.988 381.815 165.014 382.23L164.997 382.085C165.066 383.06 164.977 384.084 164.713 385.011C164.675 385.166 164.627 385.313 164.578 385.467L164.577 385.467C164.545 385.569 164.511 385.674 164.478 385.786C164.47 385.797 164.455 385.834 164.443 385.865C164.422 385.916 164.407 385.953 164.438 385.842L164.363 386.001L164.199 386.395C164.158 386.496 164.114 386.595 164.067 386.694C163.469 387.554 162.892 388.431 162.325 389.316C162.287 389.369 162.254 389.42 162.222 389.471L162.165 389.538L162.164 389.538L162.182 389.537L162.167 389.562C162.118 389.643 162.07 389.725 162.009 389.808C161.909 389.946 161.932 390.14 162.041 390.271C162.17 390.375 162.36 390.396 162.523 390.396C163.06 390.388 163.548 390.166 163.921 389.765C164.889 388.719 165.677 387.53 166.254 386.222C166.414 385.995 166.576 385.769 166.74 385.542L167.001 385.182L167.041 385.127L167.363 384.684C167.604 384.352 167.891 384.013 168.158 383.701C168.692 383.078 169.226 382.455 169.811 381.873C169.958 381.728 170.099 381.589 170.24 381.451C170.358 381.336 170.475 381.221 170.596 381.101L170.629 381.084L170.735 380.994C170.778 380.963 170.815 380.926 170.852 380.89C170.888 380.854 170.925 380.817 170.968 380.786C171.084 380.67 171.205 380.585 171.336 380.493C171.369 380.469 171.404 380.445 171.439 380.419C171.617 380.274 171.805 380.137 171.986 380.004C172.075 379.939 172.162 379.875 172.246 379.812C172.311 379.768 172.435 379.68 172.34 379.74C172.383 379.709 172.421 379.685 172.459 379.661C172.497 379.637 172.535 379.612 172.578 379.581C172.654 379.533 172.737 379.489 172.819 379.446L172.819 379.446L172.82 379.446C172.902 379.403 172.985 379.359 173.061 379.311C173.127 379.276 173.193 379.242 173.279 379.179L173.411 379.11L173.461 379.084C173.461 379.084 173.455 379.087 173.445 379.091C173.387 379.121 173.192 379.22 173.299 379.152C173.451 379.055 173.629 378.978 173.787 378.93C173.811 378.917 173.84 378.907 173.87 378.896C173.92 378.878 173.977 378.858 174.031 378.819C174.123 378.805 174.207 378.774 174.291 378.743L174.291 378.743C174.375 378.711 174.459 378.68 174.55 378.666L174.78 378.632L174.918 378.611L175.056 378.59L175.331 378.548C175.423 378.534 175.51 378.527 175.597 378.52C175.649 378.516 175.7 378.512 175.753 378.506L175.77 378.506L175.782 378.505C175.834 378.503 175.898 378.499 175.862 378.492L175.908 378.485L176.19 378.492C176.353 378.492 176.543 378.513 176.686 378.54L176.947 378.575L177.065 378.581C177.45 378.671 177.789 378.768 178.153 378.885C178.219 378.908 178.284 378.932 178.349 378.957C179.195 379.667 180.108 380.279 181.067 380.785C181.308 380.847 181.564 380.833 181.814 380.771C182.063 380.708 182.307 380.598 182.5 380.445C182.718 380.314 183.269 379.836 182.907 379.546C182.813 379.467 182.717 379.39 182.62 379.314L182.7 379.261C182.712 379.267 182.72 379.268 182.708 379.256L182.709 379.255L182.706 379.254C182.701 379.249 182.694 379.243 182.683 379.234L182.534 379.158L182.21 378.986C182.009 378.868 181.808 378.751 181.627 378.606C181.245 378.343 180.863 378.08 180.501 377.79C179.778 377.209 179.115 376.546 178.492 375.827C178.138 375.412 177.805 374.969 177.498 374.548L177.581 374.658C176.2 372.674 175.23 370.405 174.779 367.984C174.652 367.313 174.572 366.635 174.537 365.95L174.555 366.095C174.391 363.729 174.718 361.363 175.455 359.107L175.613 358.664L175.668 358.533L175.757 358.297C175.863 358.006 176.002 357.71 176.134 357.43L176.199 357.294C176.422 356.816 175.914 356.671 175.547 356.727C175.245 356.748 174.956 356.866 174.691 357.004C174.582 357.155 174.477 357.283 174.381 357.4L174.381 357.4C174.301 357.498 174.227 357.588 174.163 357.676ZM175.862 378.492L175.782 378.505L175.764 378.505C175.796 378.502 175.829 378.497 175.862 378.492ZM172.305 379.767L172.246 379.812C172.207 379.839 172.189 379.85 172.254 379.803C172.264 379.789 172.28 379.78 172.297 379.772L172.305 379.767ZM172.34 379.74C172.332 379.752 172.319 379.76 172.305 379.767L172.34 379.74ZM165.559 369.453C165.578 369.448 165.596 369.442 165.614 369.435C165.653 369.423 165.66 369.421 165.651 369.425C165.639 369.43 165.596 369.445 165.557 369.453L165.559 369.453ZM171.914 366.298C172.058 366.117 172.197 365.933 172.333 365.745C172.352 369.96 173.826 374.089 176.632 377.272C175.399 377.328 174.174 377.623 173.04 378.156C171.424 378.918 169.914 379.984 168.591 381.245C168.087 381.729 167.601 382.237 167.132 382.761C167.189 381.834 167.107 380.902 166.877 380.001C166.484 378.458 165.794 376.985 164.847 375.699C163.842 374.323 162.691 373.092 161.373 372.035C161.104 371.819 160.831 371.608 160.554 371.402C161.399 371.416 162.25 371.36 163.101 371.231C166.454 370.723 169.669 369.053 171.914 366.298ZM170.669 381.029C170.721 380.991 170.665 381.041 170.616 381.081L170.669 381.029ZM170.568 381.119C170.571 381.116 170.576 381.113 170.581 381.109L170.563 381.119C170.56 381.123 170.562 381.122 170.568 381.119ZM142.967 367.643C142.689 368.221 142.459 368.815 142.276 369.418C142.166 369.533 142.08 369.67 142.038 369.833C141.883 370.443 141.657 371.038 141.359 371.62C141.1 372.146 140.796 372.679 140.44 373.17L140.42 373.198L140.301 373.361C140.222 373.47 140.143 373.58 140.017 373.695C139.833 373.893 139.649 374.09 139.458 374.239C139.435 374.271 139.403 374.296 139.376 374.317C139.357 374.331 139.341 374.343 139.333 374.355L139.333 374.355C139.228 374.443 139.122 374.531 139.037 374.592C139.02 374.604 139.003 374.617 138.985 374.63C138.923 374.676 138.853 374.728 138.779 374.763L138.8 374.748C138.854 374.703 138.791 374.745 138.739 374.78L138.735 374.782C138.699 374.807 138.686 374.816 138.686 374.817C138.686 374.817 138.711 374.799 138.739 374.78C138.753 374.775 138.766 374.769 138.779 374.763L138.63 374.87C138.587 374.9 138.533 374.932 138.478 374.965C138.424 374.997 138.37 375.029 138.327 375.059L138.189 375.146C138.186 375.147 138.183 375.149 138.179 375.15C138.148 375.164 138.088 375.191 138.065 375.194L137.888 375.268C137.776 375.308 137.665 375.348 137.534 375.415L137.483 375.43C137.49 375.425 137.48 375.423 137.442 375.428C137.29 375.449 137.219 375.476 137.136 375.507C137.118 375.514 137.101 375.52 137.081 375.527C137.026 375.547 136.975 375.561 136.924 375.574C136.873 375.587 136.823 375.6 136.767 375.62L136.629 375.639L136.583 375.646L135.942 375.735L135.595 375.759L135.431 375.758C134.987 375.746 134.516 375.714 134.065 375.654C133.993 375.64 133.928 375.63 133.862 375.621L133.862 375.621L133.862 375.621C133.797 375.612 133.731 375.602 133.66 375.588L133.47 375.565L133.398 375.551L133.444 375.544L132.719 375.351C132.236 375.223 131.746 375.046 131.322 374.835C131.081 374.771 130.825 374.782 130.576 374.841C130.282 374.907 130.019 375.041 129.763 375.224C129.467 375.462 129.17 375.871 129.62 376.103L129.692 376.141L129.652 376.172C129.799 376.236 129.948 376.298 130.098 376.356L130.174 376.418L130.252 376.48C130.353 376.54 130.46 376.605 130.568 376.669L130.568 376.669C130.676 376.734 130.783 376.799 130.884 376.858C131.289 377.102 131.699 377.388 132.088 377.659L132.088 377.659L132.161 377.71C132.962 378.309 133.697 378.943 134.399 379.679C134.776 380.067 135.087 380.49 135.398 380.913L135.314 380.802C136.138 381.938 136.659 383.263 136.82 384.687L136.801 384.543C136.867 385.406 136.753 386.295 136.448 387.116L136.446 387.12C136.461 387.073 136.467 387.055 136.466 387.055C136.466 387.054 136.463 387.062 136.458 387.074C136.451 387.092 136.439 387.12 136.427 387.146C135.86 387.941 135.33 388.753 134.79 389.58L134.789 389.581L134.754 389.635C134.655 389.772 134.68 389.965 134.79 390.096C134.92 390.201 135.11 390.223 135.273 390.225C135.81 390.224 136.295 390.009 136.664 389.614C136.687 389.59 136.709 389.566 136.731 389.542L136.841 389.54L136.841 389.54C136.958 389.357 137.074 389.174 137.19 388.992C137.469 388.628 137.722 388.239 137.946 387.833C138.171 387.497 138.401 387.164 138.638 386.837L138.737 386.701L138.816 386.591L138.895 386.482L139.034 386.291C139.113 386.182 139.204 386.071 139.294 385.961L139.294 385.961C139.385 385.85 139.476 385.739 139.555 385.63C139.918 385.187 140.287 384.792 140.655 384.397C140.748 384.299 140.846 384.205 140.945 384.112L140.945 384.112C141.033 384.029 141.12 383.946 141.203 383.859L141.215 383.853C141.235 383.826 141.261 383.804 141.287 383.782C141.314 383.76 141.34 383.738 141.36 383.71L141.676 383.446C141.691 383.433 141.707 383.421 141.723 383.408C141.742 383.393 141.761 383.378 141.78 383.363C141.942 383.235 142.115 383.097 142.293 382.991C142.402 382.927 142.343 382.966 142.284 383.005C142.224 383.044 142.165 383.083 142.274 383.019C142.306 383.002 142.328 382.987 142.349 382.971C142.371 382.956 142.392 382.941 142.425 382.924C142.479 382.896 142.53 382.864 142.578 382.834C142.645 382.791 142.708 382.752 142.773 382.728L142.904 382.661C142.97 382.627 143.167 382.526 142.95 382.655C142.879 382.696 142.855 382.711 142.855 382.711C142.855 382.712 142.863 382.708 142.874 382.702C142.907 382.685 142.973 382.651 142.996 382.648C143.041 382.642 143.107 382.608 143.173 382.574C143.238 382.541 143.435 382.44 143.507 382.454C143.517 382.456 143.518 382.46 143.513 382.464L143.396 382.494L143.359 382.513C143.306 382.527 143.273 382.536 143.33 382.528L143.359 382.513L143.36 382.513L143.361 382.513C143.417 382.498 143.496 382.477 143.513 382.464L143.599 382.441C143.653 382.422 143.709 382.414 143.765 382.406C143.706 382.423 143.686 382.434 143.843 382.394C143.875 382.388 143.908 382.381 143.939 382.369L144.077 382.35C144.136 382.354 144.193 382.346 144.25 382.338C144.275 382.335 144.3 382.331 144.325 382.329C144.331 382.329 144.338 382.33 144.347 382.331C144.356 382.331 144.366 382.332 144.378 382.333C144.414 382.34 144.443 382.342 144.473 382.344C144.502 382.346 144.532 382.348 144.568 382.355C144.639 382.37 144.71 382.372 144.78 382.375C144.85 382.377 144.921 382.38 144.993 382.394L145.182 382.417L145.254 382.431C145.542 382.489 145.809 382.574 146.083 382.708C146.158 382.747 146.238 382.778 146.318 382.81C146.398 382.842 146.478 382.874 146.553 382.912L146.651 382.948L146.677 382.968L146.731 383.001C146.933 383.144 147.14 383.279 147.352 383.406C147.501 383.511 147.652 383.621 147.804 383.743L147.874 383.697C147.905 383.713 147.936 383.729 147.967 383.745C148.209 383.809 148.464 383.798 148.713 383.739C148.962 383.68 149.205 383.572 149.395 383.423C149.612 383.295 150.158 382.826 149.774 382.561C149.223 382.096 148.617 381.724 147.974 381.447C147.873 381.361 147.776 381.273 147.683 381.185C147.084 380.664 146.557 380.045 146.073 379.415C144.818 377.63 144.035 375.535 143.867 373.33L143.885 373.474C143.8 372.456 143.853 371.419 144.029 370.438C144.124 369.909 144.245 369.402 144.392 368.915C144.419 368.85 144.439 368.78 144.459 368.71C144.479 368.64 144.499 368.569 144.526 368.504C144.533 368.494 144.545 368.462 144.554 368.434C144.57 368.389 144.582 368.357 144.565 368.45C144.585 368.423 144.593 368.397 144.602 368.371C144.61 368.346 144.618 368.32 144.638 368.293L144.638 368.292C144.744 368.032 144.851 367.772 144.977 367.485C145.196 367.013 144.686 366.863 144.32 366.914C144.019 366.932 143.73 367.046 143.468 367.181C143.291 367.254 143.106 367.452 142.967 367.643ZM143.939 382.369C143.902 382.379 143.869 382.387 143.843 382.394C143.818 382.399 143.794 382.402 143.769 382.405L143.765 382.406C143.804 382.395 143.861 382.38 143.894 382.376L143.939 382.369ZM135.691 377.046C137.951 376.73 140.159 375.7 141.768 373.934C141.943 376.481 142.889 378.957 144.544 380.957C143.873 381.045 143.216 381.229 142.591 381.503C141.2 382.102 139.991 383.023 138.92 384.104C138.905 383.655 138.846 383.208 138.742 382.776C138.194 380.522 136.571 378.615 134.873 377.209C134.838 377.181 134.803 377.153 134.768 377.125C135.076 377.111 135.384 377.085 135.691 377.046ZM138.111 375.188L138.177 375.153L138.176 375.154L138.111 375.188ZM141.149 383.887L141.177 383.872C141.13 383.911 141.09 383.942 141.149 383.887ZM144.386 382.327L144.355 382.326C144.378 382.325 144.401 382.325 144.424 382.326C144.473 382.33 144.433 382.329 144.386 382.327ZM154.301 347.304C154.425 346.876 154.583 346.46 154.776 346.061L154.822 346.054C154.981 345.837 155.145 345.667 155.389 345.561C155.653 345.428 155.943 345.316 156.247 345.301C156.616 345.252 157.131 345.407 156.914 345.879C156.821 346.064 156.749 346.221 156.683 346.427C156.676 346.437 156.666 346.459 156.658 346.477C156.645 346.507 156.636 346.528 156.644 346.481C156.657 346.406 156.604 346.536 156.604 346.536C156.545 346.618 156.512 346.721 156.499 346.796C156.38 347.132 156.308 347.462 156.262 347.813C156.164 348.467 156.138 349.136 156.185 349.821L156.165 349.675C156.317 351.13 156.811 352.515 157.651 353.708C157.972 354.119 158.312 354.506 158.709 354.864L159.186 355.247C159.51 355.419 159.82 355.626 160.116 355.863C160.485 356.16 159.938 356.626 159.721 356.753C159.529 356.902 159.285 357.008 159.035 357.065C158.784 357.123 158.527 357.132 158.283 357.065C157.799 356.81 157.343 356.495 156.922 356.137C156.885 356.124 156.848 356.112 156.81 356.099C156.718 356.068 156.626 356.037 156.54 356.011L156.421 356.002C156.375 356.008 156.327 356.002 156.279 355.996C156.231 355.99 156.184 355.984 156.137 355.99L156.068 355.985C156.048 355.989 156.029 355.99 156.004 355.99C155.974 355.991 155.936 355.992 155.88 355.999L155.649 356.03C155.603 356.036 155.491 356.075 155.491 356.075C155.491 356.075 155.523 356.06 155.563 356.043C155.558 356.044 155.554 356.046 155.549 356.047C155.521 356.056 155.488 356.066 155.445 356.081C155.41 356.093 155.359 356.117 155.317 356.137C155.296 356.149 155.273 356.162 155.247 356.181C155.204 356.211 155.166 356.235 155.128 356.258C155.09 356.282 155.052 356.305 155.009 356.335C154.901 356.399 154.96 356.36 155.019 356.322C155.079 356.283 155.138 356.244 155.029 356.308C154.878 356.402 154.726 356.496 154.601 356.611C154.558 356.641 154.522 356.677 154.485 356.712C154.451 356.745 154.418 356.778 154.379 356.807C154.369 356.817 154.359 356.829 154.35 356.841C154.205 356.983 154.08 357.098 153.955 357.213L153.955 357.213C153.731 357.464 153.487 357.743 153.243 358.021L153.243 358.021C153.098 358.164 152.979 358.327 152.861 358.491L152.796 358.579L152.781 358.6C152.762 358.627 152.683 358.736 152.762 358.627L152.742 358.654L152.643 358.79C152.588 358.867 152.533 358.944 152.478 359.021C152.193 359.652 151.817 360.226 151.358 360.734C150.989 361.127 150.501 361.339 149.96 361.336C149.795 361.333 149.604 361.309 149.472 361.203C149.359 361.07 149.333 360.876 149.432 360.74C149.47 360.678 149.508 360.616 149.547 360.555L149.524 360.555C149.543 360.539 149.561 360.523 149.578 360.507C149.769 360.207 149.968 359.913 150.171 359.621C150.183 359.598 150.196 359.576 150.209 359.553C150.247 359.486 150.285 359.42 150.321 359.341L150.433 359.129C150.438 359.101 150.447 359.059 150.455 359.026C150.613 358.517 150.669 357.929 150.616 357.379L150.636 357.525C150.53 356.577 150.173 355.687 149.598 354.924L149.684 355.036C149.195 354.385 148.594 353.774 147.96 353.265C147.644 353.011 147.28 352.763 146.917 352.514C146.733 352.366 146.554 352.266 146.376 352.166L146.224 352.087C146.105 352.026 146.234 352.083 146.234 352.083C146.234 352.083 146.225 352.078 146.198 352.066L145.894 351.909C145.439 351.673 145.735 351.264 146.032 351.028C146.289 350.846 146.553 350.713 146.85 350.649C147.1 350.592 147.358 350.583 147.602 350.649C147.925 350.78 148.249 350.91 148.565 350.992C148.638 351.007 148.717 351.027 148.796 351.048C148.876 351.068 148.955 351.089 149.027 351.104L149.146 351.113L149.364 351.158C149.542 351.195 149.725 351.204 149.911 351.213C150.024 351.218 150.137 351.224 150.252 351.235C150.276 351.234 150.298 351.233 150.314 351.231L150.545 351.201C150.71 351.204 150.848 351.186 150.987 351.167C151.033 351.161 151.073 351.15 151.112 351.139C151.152 351.127 151.191 351.116 151.238 351.11C151.279 351.104 151.311 351.1 151.34 351.094L151.442 351.058C151.469 351.045 151.497 351.039 151.526 351.034C151.569 351.025 151.615 351.016 151.666 350.98L152.062 350.78C152.085 350.777 152.107 350.762 152.128 350.747C152.143 350.736 152.159 350.725 152.175 350.718C152.209 350.693 152.247 350.669 152.28 350.653L152.451 350.532L152.557 350.444C152.559 350.443 152.562 350.441 152.564 350.44C152.606 350.393 152.654 350.347 152.702 350.302C152.769 350.237 152.837 350.173 152.886 350.105L153.025 349.914L153.104 349.805C153.321 349.506 153.532 349.157 153.697 348.815C153.721 348.756 153.746 348.706 153.77 348.66C153.798 348.606 153.824 348.556 153.841 348.5L153.894 348.37C153.894 348.37 153.98 348.137 153.927 348.267L154.124 347.65C154.158 347.518 154.22 347.403 154.301 347.304ZM154.05 350.904C154.062 350.988 154.074 351.072 154.088 351.155C154.313 352.509 154.868 353.783 155.706 354.864C155.438 354.933 155.174 355.024 154.916 355.139C154.155 355.459 153.473 355.909 152.856 356.441C152.831 356.306 152.799 356.172 152.759 356.038C152.417 354.628 151.464 353.439 150.402 352.518C151.737 352.317 153.016 351.779 154.05 350.904ZM152.623 350.395C152.622 350.397 152.613 350.406 152.6 350.416C152.618 350.398 152.625 350.393 152.623 350.395ZM152.148 350.74C152.124 350.76 152.103 350.781 152.088 350.801C152.051 350.852 151.927 350.871 152.148 350.74ZM150.115 351.236C150.104 351.235 150.128 351.235 150.22 351.236C150.172 351.237 150.126 351.236 150.115 351.236ZM150.455 359.026C150.461 358.998 150.466 358.977 150.466 358.977C150.466 358.977 150.461 358.997 150.446 359.053C150.449 359.044 150.452 359.035 150.455 359.026ZM156.111 355.969C156.177 355.97 156.148 355.972 156.101 355.974C156.104 355.972 156.108 355.971 156.111 355.969Z" fill="#878890"/>
<path d="M325.577 165.557C318.991 163.028 313.394 158.337 309.636 152.201C307.636 149.009 306.241 145.54 305.506 141.808C305.131 139.848 305.08 137.785 305.437 135.767C305.63 134.949 305.88 134.145 306.173 133.414C306.047 133.691 306.186 133.355 306.2 133.297C306.214 133.238 306.298 133.136 306.326 133.019C306.424 132.858 306.535 132.639 306.633 132.478L306.731 132.318C306.535 132.639 306.731 132.318 306.745 132.259C306.913 132.055 307.024 131.836 307.193 131.631C307.263 131.587 307.458 131.266 307.193 131.631C307.263 131.587 307.29 131.47 307.361 131.427C307.515 131.281 307.613 131.12 307.753 131.033C307.893 130.945 307.949 130.711 307.753 131.033C307.837 130.93 307.907 130.887 307.977 130.843C308.132 130.697 308.286 130.551 308.483 130.478L308.553 130.434C308.623 130.391 308.693 130.347 308.834 130.259L309.115 130.084C309.115 130.084 309.452 129.924 309.185 130.041C309.578 129.895 309.972 129.75 310.365 129.604C310.169 129.677 310.492 129.575 310.492 129.575L310.675 129.561C310.858 129.546 311.041 129.532 311.224 129.518C311.533 129.475 311.886 129.505 312.181 129.52C312.928 129.653 313.661 129.844 314.296 130.197C315.538 130.769 316.556 131.781 317.21 133.069C317.48 133.698 317.68 134.372 317.697 135.059C317.671 135.425 317.63 135.849 317.604 136.215C317.535 136.507 317.645 136.039 317.576 136.332L317.507 136.624C317.479 136.741 317.466 136.799 317.382 136.902C317.297 137.004 317.158 137.34 317.34 137.077C317.242 137.238 317.201 137.413 317.117 137.515C317.089 137.632 317.019 137.676 316.935 137.778C317.173 137.53 316.935 137.778 316.921 137.837C316.823 137.998 316.725 138.158 316.585 138.246L316.739 138.1L316.585 138.246C316.501 138.348 316.361 138.435 316.277 138.538C316.038 138.786 316.501 138.348 316.277 138.538L316.052 138.727C315.982 138.771 315.547 139.092 315.828 138.917C315.673 139.063 315.477 139.136 315.266 139.267L314.999 139.384C315.266 139.267 314.929 139.427 314.859 139.471C313.214 140.097 311.412 140.123 309.721 139.681C306.45 138.826 303.485 136.934 301.249 134.238C296.974 129.271 295.283 122.496 296.69 116.034C296.773 115.683 296.648 116.209 296.718 115.917C296.745 115.8 296.759 115.741 296.787 115.624C296.814 115.507 296.87 115.273 296.911 115.098C297.008 114.689 297.161 114.294 297.314 113.899C297.426 113.68 297.424 113.431 297.297 113.212C297.085 113.094 296.86 113.035 296.649 113.167C295.988 113.429 295.442 113.969 295.163 114.641C292.574 121.291 293.89 129.149 297.985 134.875C300.04 137.834 302.922 140.077 306.194 141.429C308.099 142.237 310.198 142.475 312.182 142.187C314.236 141.854 316.16 140.805 317.603 139.257C318.962 137.811 320.01 135.912 320.071 133.879C320.106 132.212 319.479 130.557 318.319 129.385C317.216 128.228 315.72 127.464 314.156 127.242C312.353 127.019 310.595 127.367 309.05 128.329C305.414 130.545 303.122 134.417 302.804 138.805C302.47 143.002 303.742 147.246 305.561 150.95C308.887 157.904 314.431 163.575 321.204 166.835C322.008 167.232 322.827 167.57 323.645 167.908C324.463 168.246 326.494 165.983 325.577 165.557Z" fill="#878890"/>
<path d="M306.048 174.363C304.759 171.513 303.259 168.797 301.41 166.303C299.785 163.868 297.922 161.684 295.765 159.738C293.09 157.469 289.7 155.703 286.186 155.979C282.783 156.283 279.759 158.258 277.968 161.308C276.331 163.959 276.626 167.492 278.699 169.793C279.638 170.855 280.912 171.502 282.298 171.676C283.713 171.731 285.155 171.166 286.219 170.187C288.472 168.2 289.662 165.181 289.254 162.121C288.861 159.003 286.522 156.569 284.099 154.994C281.088 153.139 277.769 151.831 274.324 151.057C270.613 150.15 266.846 149.731 263.023 149.8C262.071 149.803 261.161 149.879 260.195 149.941C259.509 150.076 258.921 150.55 258.585 151.217C258.375 151.602 258.193 152.371 258.865 152.295C265.853 151.671 272.882 152.879 279.338 155.76C281.915 156.936 284.492 158.615 285.964 161.198C286.426 162.01 286.748 162.911 286.889 163.828C286.917 163.961 286.945 164.094 286.917 164.212C286.889 164.33 286.931 164.404 286.917 164.463C286.903 164.523 286.931 164.404 286.945 164.596C286.973 165.232 286.903 165.779 286.763 166.371C286.749 166.43 286.735 166.489 286.707 166.608C286.749 166.43 286.721 166.549 286.707 166.608C286.68 166.726 286.638 166.904 286.61 167.022C286.582 167.14 286.484 167.303 286.442 167.481C286.428 167.54 286.414 167.599 286.4 167.658C286.274 167.94 286.512 167.436 286.4 167.658C286.316 167.762 286.274 167.94 286.19 168.043L286.092 168.206L286.078 168.265L286.162 168.162C286.092 168.206 285.994 168.369 285.98 168.428C285.966 168.487 285.686 168.666 286.05 168.384C285.98 168.428 285.966 168.488 285.882 168.591L285.742 168.68C285.504 168.932 286.036 168.443 285.812 168.636L285.532 168.814C285.308 169.007 285.812 168.636 285.532 168.814L285.392 168.903L285.196 168.977C285.126 169.022 285.448 168.918 285.196 168.977C285.07 169.007 284.944 169.037 284.874 169.082C284.804 169.126 284.552 169.186 284.804 169.126L284.622 169.142C284.314 169.187 284.006 169.232 283.712 169.218C283.138 169.131 282.578 168.984 282.115 168.675C281.079 168.027 280.28 167.127 279.776 165.99C279.51 165.355 279.299 164.735 279.215 164.085C279.159 163.819 279.159 163.567 279.173 163.257C279.145 163.124 279.187 162.946 279.215 162.828C279.229 162.769 279.257 162.65 279.271 162.591C279.285 162.532 279.355 162.236 279.313 162.414C279.383 162.118 279.509 161.836 279.648 161.496C279.774 161.215 279.55 161.659 279.662 161.437C279.676 161.378 279.76 161.274 279.774 161.215C279.872 161.052 279.914 160.874 280.054 160.785C279.816 161.037 280.04 160.844 280.068 160.726C280.082 160.667 280.152 160.622 280.166 160.563L280.334 160.356L280.348 160.297L280.278 160.341C280.306 160.223 280.516 160.089 280.6 159.985C280.684 159.882 280.754 159.837 280.768 159.778L280.684 159.882L280.824 159.793C280.964 159.703 281.118 159.555 281.258 159.466C281.328 159.422 281.398 159.377 281.412 159.318L281.272 159.407L281.412 159.318L281.818 159.11L282.028 158.976C282.098 158.932 282.434 158.768 282.168 158.887C282.434 158.768 282.756 158.664 283.022 158.545L283.54 158.366L283.736 158.292C283.61 158.321 283.918 158.276 283.932 158.217C286.985 157.632 290.136 158.896 292.629 160.678C294.786 162.373 296.747 164.393 298.344 166.695C300.109 169.042 301.72 171.536 303.065 174.15C303.345 174.725 303.584 175.228 303.864 175.803C304.144 176.379 304.83 175.993 305.194 175.711C305.488 175.474 305.74 175.163 305.936 174.837C305.978 174.911 306.174 174.585 306.048 174.363Z" fill="#878890"/>
<path d="M144.637 128.976L134.91 122.639L132.148 120.864C131.756 120.62 131.062 120.912 130.735 121.21C130.541 121.367 129.911 121.921 130.342 122.19L140.069 128.527L142.831 130.302C143.223 130.547 143.917 130.255 144.244 129.957C144.438 129.8 145.068 129.245 144.637 128.976Z" fill="#878890"/>
<path d="M139.61 134.703L126.939 133.218C126.392 133.155 125.846 133.372 125.449 133.794C125.232 133.992 124.883 134.611 125.431 134.674L138.102 136.159C138.649 136.222 139.195 136.005 139.592 135.583C139.77 135.36 140.158 134.766 139.61 134.703Z" fill="#878890"/>
<path d="M178.674 113.687L181.011 105.116C181.126 104.63 180.703 104.534 180.328 104.635C180.039 104.678 179.743 104.827 179.525 105.026C179.292 105.159 179.136 105.341 179.059 105.571L176.722 114.143C176.607 114.628 177.03 114.725 177.405 114.624C177.694 114.581 177.99 114.431 178.208 114.232C178.418 114.141 178.573 113.959 178.674 113.687Z" fill="#878890"/>
<path d="M171.992 115.487L166.108 102.797C165.91 102.395 165.114 102.68 164.857 102.854C164.6 103.028 163.876 103.468 164.112 103.894L169.997 116.584C170.195 116.985 170.99 116.701 171.247 116.527C171.505 116.353 172.206 115.954 171.992 115.487Z" fill="#878890"/>
</g>
<rect opacity="0.1" x="120" y="799" width="135" height="5" rx="2.5" fill="#8991A4"/>
<path d="M47.0332 548L40.4062 522.635H47.0684L50.5137 539.404H50.6367L54.75 522.635H60.1641L64.2773 539.404H64.4004L67.8457 522.635H74.5078L67.8809 548H61.5352L57.5098 532.777H57.3867L53.3789 548H47.0332ZM83.6484 548.404C77.6016 548.404 73.9277 544.625 73.9277 538.438V538.42C73.9277 532.268 77.6191 528.453 83.4375 528.453C89.2207 528.453 92.8945 532.232 92.8945 538.033V539.861H80.0273C80.0977 542.445 81.5039 543.975 83.7715 543.975C85.7754 543.975 86.8652 542.832 87.1465 542.041L87.1641 541.953H92.7891L92.7363 542.164C92.1562 544.818 89.748 548.404 83.6484 548.404ZM83.5781 532.883C81.75 532.883 80.4316 534.078 80.1152 536.188H87.0234C86.707 534.043 85.4062 532.883 83.5781 532.883ZM95.4258 548V522.635H101.666V548H95.4258ZM113.936 548.404C107.906 548.404 104.197 544.625 104.197 538.42V538.402C104.197 532.232 107.924 528.453 113.883 528.453C119.279 528.453 122.83 531.688 122.918 536.24L122.936 536.363H117.205L117.188 536.188C116.941 534.412 115.816 533.182 113.988 533.182C111.826 533.182 110.525 535.098 110.525 538.42V538.438C110.525 541.812 111.791 543.676 114.006 543.676C115.834 543.676 116.941 542.498 117.188 540.67L117.223 540.494H122.936V540.617C122.812 545.064 119.455 548.404 113.936 548.404ZM134.449 548.404C128.385 548.404 124.658 544.748 124.658 538.438V538.402C124.658 532.197 128.508 528.453 134.449 528.453C140.408 528.453 144.24 532.162 144.24 538.402V538.438C144.24 544.766 140.479 548.404 134.449 548.404ZM134.467 543.676C136.594 543.676 137.93 541.795 137.93 538.438V538.402C137.93 535.098 136.559 533.182 134.449 533.182C132.34 533.182 130.986 535.098 130.986 538.402V538.438C130.986 541.812 132.305 543.676 134.467 543.676ZM146.648 548V528.857H152.889V532.303H153.012C153.75 529.965 155.789 528.453 158.408 528.453C161.133 528.453 163.084 529.947 163.629 532.549H163.752C164.49 530.07 166.811 528.453 169.658 528.453C173.402 528.453 175.951 531.09 175.951 534.975V548H169.711V536.574C169.711 534.57 168.779 533.533 167.021 533.533C165.334 533.533 164.279 534.746 164.279 536.645V548H158.32V536.521C158.32 534.588 157.371 533.533 155.666 533.533C153.979 533.533 152.889 534.781 152.889 536.68V548H146.648ZM188.027 548.404C181.98 548.404 178.307 544.625 178.307 538.438V538.42C178.307 532.268 181.998 528.453 187.816 528.453C193.6 528.453 197.273 532.232 197.273 538.033V539.861H184.406C184.477 542.445 185.883 543.975 188.15 543.975C190.154 543.975 191.244 542.832 191.525 542.041L191.543 541.953H197.168L197.115 542.164C196.535 544.818 194.127 548.404 188.027 548.404ZM187.957 532.883C186.129 532.883 184.811 534.078 184.494 536.188H191.402C191.086 534.043 189.785 532.883 187.957 532.883ZM215.01 548.404C210.369 548.404 208.26 546.734 208.26 542.41V533.428H205.658V528.857H208.26V524.445H214.5V528.857H217.928V533.428H214.5V541.566C214.5 543.219 215.238 543.834 216.768 543.834C217.26 543.834 217.576 543.799 217.928 543.746V548.176C217.242 548.299 216.311 548.404 215.01 548.404ZM229.582 548.404C223.518 548.404 219.791 544.748 219.791 538.438V538.402C219.791 532.197 223.641 528.453 229.582 528.453C235.541 528.453 239.373 532.162 239.373 538.402V538.438C239.373 544.766 235.611 548.404 229.582 548.404ZM229.6 543.676C231.727 543.676 233.062 541.795 233.062 538.438V538.402C233.062 535.098 231.691 533.182 229.582 533.182C227.473 533.182 226.119 535.098 226.119 538.402V538.438C226.119 541.812 227.438 543.676 229.6 543.676ZM249.199 548V522.635H260.994C266.021 522.635 269.062 525.061 269.062 529.016V529.051C269.062 531.916 266.865 534.201 263.982 534.57V534.693C267.445 534.869 270.17 537.383 270.17 540.705V540.74C270.17 545.152 266.742 548 261.311 548H249.199ZM259.289 527.188H255.65V533.059H258.814C261.398 533.059 262.77 531.934 262.77 530.035V530C262.77 528.242 261.469 527.188 259.289 527.188ZM259.289 537.119H255.65V543.447H259.482C262.119 543.447 263.613 542.34 263.613 540.283V540.248C263.613 538.227 262.119 537.119 259.289 537.119ZM284.707 548.457C277.008 548.457 272.191 543.412 272.191 535.326V535.291C272.191 527.223 277.043 522.178 284.707 522.178C292.424 522.178 297.24 527.223 297.24 535.291V535.326C297.24 543.412 292.441 548.457 284.707 548.457ZM284.707 543.113C288.398 543.113 290.684 540.09 290.684 535.326V535.291C290.684 530.492 288.346 527.521 284.707 527.521C281.104 527.521 278.766 530.475 278.766 535.291V535.326C278.766 540.143 281.086 543.113 284.707 543.113ZM300.387 548V522.635H306.838V533.797H306.961L315.504 522.635H322.412L313.729 533.85L322.922 548H315.346L309.018 537.998L306.838 540.828V548H300.387ZM326.49 539.422L325.945 522.635H332.344L331.799 539.422H326.49ZM329.145 548.229C327.299 548.229 325.805 546.84 325.805 545.064C325.805 543.307 327.299 541.918 329.145 541.918C330.973 541.918 332.467 543.307 332.467 545.064C332.467 546.84 330.973 548.229 329.145 548.229Z" fill="black"/>
<path d="M53.0625 585V573.727H57.5938C59.7109 573.727 60.9844 574.805 60.9844 576.531V576.547C60.9844 577.719 60.1172 578.773 59.0078 578.961V579.094C60.5312 579.258 61.5469 580.336 61.5469 581.805V581.82C61.5469 583.797 60.1016 585 57.6953 585H53.0625ZM57.1875 575.156H54.8125V578.523H56.8906C58.4375 578.523 59.2422 577.945 59.2422 576.852V576.836C59.2422 575.773 58.4844 575.156 57.1875 575.156ZM57.2422 579.859H54.8125V583.57H57.3438C58.9219 583.57 59.7578 582.922 59.7578 581.711V581.695C59.7578 580.484 58.8906 579.859 57.2422 579.859ZM64.4844 575C63.8984 575 63.4219 574.523 63.4219 573.945C63.4219 573.359 63.8984 572.883 64.4844 572.883C65.0625 572.883 65.5469 573.359 65.5469 573.945C65.5469 574.523 65.0625 575 64.4844 575ZM63.6328 585V576.516H65.3203V585H63.6328ZM67.8672 585V573.188H69.5625V585H67.8672ZM72.1641 585V573.188H73.8594V585H72.1641ZM84.3516 585.164C81.8594 585.164 80.3359 583.5 80.3359 580.766V580.75C80.3359 578.023 81.8672 576.352 84.3516 576.352C86.8281 576.352 88.3594 578.016 88.3594 580.75V580.766C88.3594 583.5 86.8359 585.164 84.3516 585.164ZM84.3516 583.75C85.8047 583.75 86.6328 582.641 86.6328 580.766V580.75C86.6328 578.867 85.8047 577.766 84.3516 577.766C82.8906 577.766 82.0703 578.867 82.0703 580.75V580.766C82.0703 582.648 82.8906 583.75 84.3516 583.75ZM90.9844 585V577.852H89.5859V576.516H90.9844V575.625C90.9844 573.938 91.8438 573.109 93.6094 573.109C93.9922 573.109 94.3203 573.141 94.6094 573.188V574.43C94.4531 574.406 94.2266 574.391 93.9609 574.391C93.0234 574.391 92.6562 574.844 92.6562 575.703V576.516H94.5391V577.852H92.6719V585H90.9844ZM100.898 585V573.188H102.594V580.094H102.719L106.086 576.516H108.07L104.531 580.094L108.305 585H106.242L103.32 581.188L102.594 581.914V585H100.898ZM109.852 585V576.516H111.547V577.805H111.672C112.086 576.898 112.898 576.352 114.133 576.352C116.031 576.352 117.078 577.484 117.078 579.508V585H115.391V579.906C115.391 578.5 114.805 577.805 113.562 577.805C112.32 577.805 111.547 578.656 111.547 580.023V585H109.852ZM123.039 585.164C120.547 585.164 119.023 583.5 119.023 580.766V580.75C119.023 578.023 120.555 576.352 123.039 576.352C125.516 576.352 127.047 578.016 127.047 580.75V580.766C127.047 583.5 125.523 585.164 123.039 585.164ZM123.039 583.75C124.492 583.75 125.32 582.641 125.32 580.766V580.75C125.32 578.867 124.492 577.766 123.039 577.766C121.578 577.766 120.758 578.867 120.758 580.75V580.766C120.758 582.648 121.578 583.75 123.039 583.75ZM130.375 585L128.031 576.516H129.734L131.258 583.062H131.383L133.133 576.516H134.742L136.492 583.062H136.625L138.141 576.516H139.82L137.484 585H135.742L133.984 578.672H133.852L132.102 585H130.375ZM141.633 585V573.188H143.328V585H141.633ZM149.414 585.164C146.93 585.164 145.43 583.469 145.43 580.781V580.773C145.43 578.125 146.961 576.352 149.328 576.352C151.695 576.352 153.148 578.062 153.148 580.609V581.203H147.133C147.164 582.828 148.055 583.773 149.453 583.773C150.539 583.773 151.188 583.234 151.391 582.797L151.422 582.734L153.055 582.727L153.039 582.797C152.758 583.914 151.586 585.164 149.414 585.164ZM149.336 577.742C148.18 577.742 147.305 578.531 147.156 579.992H151.469C151.336 578.477 150.484 577.742 149.336 577.742ZM158.258 585.141C156.125 585.141 154.742 583.43 154.742 580.766V580.75C154.742 578.062 156.102 576.367 158.258 576.367C159.422 576.367 160.414 576.945 160.867 577.859H161V573.188H162.688V585H161V583.664H160.867C160.375 584.594 159.445 585.141 158.258 585.141ZM158.742 583.695C160.156 583.695 161.023 582.578 161.023 580.766V580.75C161.023 578.938 160.148 577.82 158.742 577.82C157.32 577.82 156.469 578.93 156.469 580.75V580.766C156.469 582.586 157.32 583.695 158.742 583.695ZM168.797 587.992C166.641 587.992 165.312 587.047 165.109 585.633L165.125 585.617H166.836L166.844 585.633C166.984 586.219 167.672 586.633 168.82 586.633C170.219 586.633 171.047 585.977 171.047 584.82V583.148H170.922C170.406 584.07 169.469 584.586 168.305 584.586C166.125 584.586 164.781 582.906 164.781 580.516V580.5C164.781 578.078 166.133 576.367 168.336 576.367C169.523 576.367 170.445 576.953 170.938 577.906H171.039V576.516H172.727V584.828C172.727 586.758 171.203 587.992 168.797 587.992ZM168.773 583.188C170.211 583.188 171.078 582.094 171.078 580.508V580.492C171.078 578.914 170.203 577.805 168.773 577.805C167.328 577.805 166.516 578.914 166.516 580.492V580.508C166.516 582.086 167.328 583.188 168.773 583.188ZM178.727 585.164C176.242 585.164 174.742 583.469 174.742 580.781V580.773C174.742 578.125 176.273 576.352 178.641 576.352C181.008 576.352 182.461 578.062 182.461 580.609V581.203H176.445C176.477 582.828 177.367 583.773 178.766 583.773C179.852 583.773 180.5 583.234 180.703 582.797L180.734 582.734L182.367 582.727L182.352 582.797C182.07 583.914 180.898 585.164 178.727 585.164ZM178.648 577.742C177.492 577.742 176.617 578.531 176.469 579.992H180.781C180.648 578.477 179.797 577.742 178.648 577.742ZM193.422 587.828V573.727H194.969V587.828H193.422ZM213.781 585V575.234H210.234V573.727H219.07V575.234H215.531V585H213.781ZM221.102 585V573.188H222.797V577.805H222.922C223.336 576.898 224.148 576.352 225.383 576.352C227.281 576.352 228.328 577.484 228.328 579.508V585H226.641V579.906C226.641 578.5 226.055 577.805 224.812 577.805C223.57 577.805 222.797 578.656 222.797 580.023V585H221.102ZM234.258 585.164C231.773 585.164 230.273 583.469 230.273 580.781V580.773C230.273 578.125 231.805 576.352 234.172 576.352C236.539 576.352 237.992 578.062 237.992 580.609V581.203H231.977C232.008 582.828 232.898 583.773 234.297 583.773C235.383 583.773 236.031 583.234 236.234 582.797L236.266 582.734L237.898 582.727L237.883 582.797C237.602 583.914 236.43 585.164 234.258 585.164ZM234.18 577.742C233.023 577.742 232.148 578.531 232 579.992H236.312C236.18 578.477 235.328 577.742 234.18 577.742ZM244.266 585V583.805L250.391 575.367V575.234H244.453V573.727H252.586V574.922L246.492 583.359V583.492H252.734V585H244.266ZM260.031 585V577.852H258.633V576.516H260.031V575.625C260.031 573.938 260.891 573.109 262.656 573.109C263.039 573.109 263.367 573.141 263.656 573.188V574.43C263.5 574.406 263.273 574.391 263.008 574.391C262.07 574.391 261.703 574.844 261.703 575.703V576.516H263.586V577.852H261.719V585H260.031ZM266.375 575C265.789 575 265.312 574.523 265.312 573.945C265.312 573.359 265.789 572.883 266.375 572.883C266.953 572.883 267.438 573.359 267.438 573.945C267.438 574.523 266.953 575 266.375 575ZM265.523 585V576.516H267.211V585H265.523ZM269.68 585V576.516H271.375V577.805H271.5C271.914 576.898 272.727 576.352 273.961 576.352C275.859 576.352 276.906 577.484 276.906 579.508V585H275.219V579.906C275.219 578.5 274.633 577.805 273.391 577.805C272.148 577.805 271.375 578.656 271.375 580.023V585H269.68ZM281.602 585.141C279.984 585.141 278.789 584.156 278.789 582.617V582.602C278.789 581.086 279.93 580.203 281.953 580.078L284.25 579.945V579.195C284.25 578.266 283.664 577.75 282.516 577.75C281.578 577.75 280.961 578.094 280.758 578.695L280.75 578.727H279.117L279.125 578.672C279.328 577.281 280.664 576.352 282.594 576.352C284.727 576.352 285.93 577.414 285.93 579.195V585H284.25V583.797H284.117C283.617 584.656 282.727 585.141 281.602 585.141ZM280.477 582.547C280.477 583.328 281.141 583.789 282.055 583.789C283.32 583.789 284.25 582.961 284.25 581.867V581.141L282.18 581.273C281.008 581.344 280.477 581.766 280.477 582.531V582.547ZM288.32 585V576.516H290.016V577.805H290.141C290.555 576.898 291.367 576.352 292.602 576.352C294.5 576.352 295.547 577.484 295.547 579.508V585H293.859V579.906C293.859 578.5 293.273 577.805 292.031 577.805C290.789 577.805 290.016 578.656 290.016 580.023V585H288.32ZM301.484 585.164C299.008 585.164 297.492 583.477 297.492 580.734V580.719C297.492 578.031 299 576.352 301.477 576.352C303.609 576.352 304.883 577.555 305.117 579.203V579.242L303.492 579.25L303.484 579.227C303.297 578.391 302.609 577.766 301.484 577.766C300.07 577.766 299.219 578.891 299.219 580.719V580.734C299.219 582.609 300.086 583.75 301.484 583.75C302.547 583.75 303.203 583.266 303.477 582.352L303.492 582.312H305.117L305.102 582.383C304.797 584.031 303.586 585.164 301.484 585.164ZM307.922 575C307.336 575 306.859 574.523 306.859 573.945C306.859 573.359 307.336 572.883 307.922 572.883C308.5 572.883 308.984 573.359 308.984 573.945C308.984 574.523 308.5 575 307.922 575ZM307.07 585V576.516H308.758V585H307.07ZM313.555 585.141C311.938 585.141 310.742 584.156 310.742 582.617V582.602C310.742 581.086 311.883 580.203 313.906 580.078L316.203 579.945V579.195C316.203 578.266 315.617 577.75 314.469 577.75C313.531 577.75 312.914 578.094 312.711 578.695L312.703 578.727H311.07L311.078 578.672C311.281 577.281 312.617 576.352 314.547 576.352C316.68 576.352 317.883 577.414 317.883 579.195V585H316.203V583.797H316.07C315.57 584.656 314.68 585.141 313.555 585.141ZM312.43 582.547C312.43 583.328 313.094 583.789 314.008 583.789C315.273 583.789 316.203 582.961 316.203 581.867V581.141L314.133 581.273C312.961 581.344 312.43 581.766 312.43 582.531V582.547ZM320.352 585V573.188H322.047V585H320.352ZM83.8281 599C83.2422 599 82.7656 598.523 82.7656 597.945C82.7656 597.359 83.2422 596.883 83.8281 596.883C84.4062 596.883 84.8906 597.359 84.8906 597.945C84.8906 598.523 84.4062 599 83.8281 599ZM82.9766 609V600.516H84.6641V609H82.9766ZM87.1328 609V600.516H88.8281V601.805H88.9531C89.3672 600.898 90.1797 600.352 91.4141 600.352C93.3125 600.352 94.3594 601.484 94.3594 603.508V609H92.6719V603.906C92.6719 602.5 92.0859 601.805 90.8438 601.805C89.6016 601.805 88.8281 602.656 88.8281 604.023V609H87.1328ZM99.8203 609.141C97.6875 609.141 96.3047 607.43 96.3047 604.766V604.75C96.3047 602.062 97.6641 600.367 99.8203 600.367C100.984 600.367 101.977 600.945 102.43 601.859H102.562V597.188H104.25V609H102.562V607.664H102.43C101.938 608.594 101.008 609.141 99.8203 609.141ZM100.305 607.695C101.719 607.695 102.586 606.578 102.586 604.766V604.75C102.586 602.938 101.711 601.82 100.305 601.82C98.8828 601.82 98.0312 602.93 98.0312 604.75V604.766C98.0312 606.586 98.8828 607.695 100.305 607.695ZM110.336 609.164C107.852 609.164 106.352 607.469 106.352 604.781V604.773C106.352 602.125 107.883 600.352 110.25 600.352C112.617 600.352 114.07 602.062 114.07 604.609V605.203H108.055C108.086 606.828 108.977 607.773 110.375 607.773C111.461 607.773 112.109 607.234 112.312 606.797L112.344 606.734L113.977 606.727L113.961 606.797C113.68 607.914 112.508 609.164 110.336 609.164ZM110.258 601.742C109.102 601.742 108.227 602.531 108.078 603.992H112.391C112.258 602.477 111.406 601.742 110.258 601.742ZM116.086 611.828V600.516H117.781V601.852H117.906C118.398 600.922 119.328 600.367 120.516 600.367C122.656 600.367 124.031 602.078 124.031 604.75V604.766C124.031 607.453 122.672 609.141 120.516 609.141C119.352 609.141 118.359 608.57 117.906 607.656H117.781V611.828H116.086ZM120.039 607.695C121.453 607.695 122.305 606.586 122.305 604.766V604.75C122.305 602.922 121.453 601.82 120.039 601.82C118.625 601.82 117.75 602.938 117.75 604.75V604.766C117.75 606.578 118.625 607.695 120.039 607.695ZM129.633 609.164C127.148 609.164 125.648 607.469 125.648 604.781V604.773C125.648 602.125 127.18 600.352 129.547 600.352C131.914 600.352 133.367 602.062 133.367 604.609V605.203H127.352C127.383 606.828 128.273 607.773 129.672 607.773C130.758 607.773 131.406 607.234 131.609 606.797L131.641 606.734L133.273 606.727L133.258 606.797C132.977 607.914 131.805 609.164 129.633 609.164ZM129.555 601.742C128.398 601.742 127.523 602.531 127.375 603.992H131.688C131.555 602.477 130.703 601.742 129.555 601.742ZM135.383 609V600.516H137.078V601.805H137.203C137.617 600.898 138.43 600.352 139.664 600.352C141.562 600.352 142.609 601.484 142.609 603.508V609H140.922V603.906C140.922 602.5 140.336 601.805 139.094 601.805C137.852 601.805 137.078 602.656 137.078 604.023V609H135.383ZM148.07 609.141C145.938 609.141 144.555 607.43 144.555 604.766V604.75C144.555 602.062 145.914 600.367 148.07 600.367C149.234 600.367 150.227 600.945 150.68 601.859H150.812V597.188H152.5V609H150.812V607.664H150.68C150.188 608.594 149.258 609.141 148.07 609.141ZM148.555 607.695C149.969 607.695 150.836 606.578 150.836 604.766V604.75C150.836 602.938 149.961 601.82 148.555 601.82C147.133 601.82 146.281 602.93 146.281 604.75V604.766C146.281 606.586 147.133 607.695 148.555 607.695ZM158.586 609.164C156.102 609.164 154.602 607.469 154.602 604.781V604.773C154.602 602.125 156.133 600.352 158.5 600.352C160.867 600.352 162.32 602.062 162.32 604.609V605.203H156.305C156.336 606.828 157.227 607.773 158.625 607.773C159.711 607.773 160.359 607.234 160.562 606.797L160.594 606.734L162.227 606.727L162.211 606.797C161.93 607.914 160.758 609.164 158.586 609.164ZM158.508 601.742C157.352 601.742 156.477 602.531 156.328 603.992H160.641C160.508 602.477 159.656 601.742 158.508 601.742ZM164.336 609V600.516H166.031V601.805H166.156C166.57 600.898 167.383 600.352 168.617 600.352C170.516 600.352 171.562 601.484 171.562 603.508V609H169.875V603.906C169.875 602.5 169.289 601.805 168.047 601.805C166.805 601.805 166.031 602.656 166.031 604.023V609H164.336ZM177.5 609.164C175.023 609.164 173.508 607.477 173.508 604.734V604.719C173.508 602.031 175.016 600.352 177.492 600.352C179.625 600.352 180.898 601.555 181.133 603.203V603.242L179.508 603.25L179.5 603.227C179.312 602.391 178.625 601.766 177.5 601.766C176.086 601.766 175.234 602.891 175.234 604.719V604.734C175.234 606.609 176.102 607.75 177.5 607.75C178.562 607.75 179.219 607.266 179.492 606.352L179.508 606.312H181.133L181.117 606.383C180.812 608.031 179.602 609.164 177.5 609.164ZM186.617 609.164C184.133 609.164 182.633 607.469 182.633 604.781V604.773C182.633 602.125 184.164 600.352 186.531 600.352C188.898 600.352 190.352 602.062 190.352 604.609V605.203H184.336C184.367 606.828 185.258 607.773 186.656 607.773C187.742 607.773 188.391 607.234 188.594 606.797L188.625 606.734L190.258 606.727L190.242 606.797C189.961 607.914 188.789 609.164 186.617 609.164ZM186.539 601.742C185.383 601.742 184.508 602.531 184.359 603.992H188.672C188.539 602.477 187.688 601.742 186.539 601.742ZM196.742 609V600.516H198.438V601.82H198.562C198.938 600.891 199.766 600.352 200.875 600.352C202.031 600.352 202.852 600.953 203.227 601.867H203.359C203.789 600.953 204.766 600.352 205.945 600.352C207.656 600.352 208.656 601.383 208.656 603.148V609H206.969V603.555C206.969 602.383 206.438 601.805 205.328 601.805C204.25 601.805 203.539 602.609 203.539 603.633V609H201.852V603.383C201.852 602.414 201.219 601.805 200.219 601.805C199.195 601.805 198.438 602.68 198.438 603.789V609H196.742ZM213.352 609.141C211.734 609.141 210.539 608.156 210.539 606.617V606.602C210.539 605.086 211.68 604.203 213.703 604.078L216 603.945V603.195C216 602.266 215.414 601.75 214.266 601.75C213.328 601.75 212.711 602.094 212.508 602.695L212.5 602.727H210.867L210.875 602.672C211.078 601.281 212.414 600.352 214.344 600.352C216.477 600.352 217.68 601.414 217.68 603.195V609H216V607.797H215.867C215.367 608.656 214.477 609.141 213.352 609.141ZM212.227 606.547C212.227 607.328 212.891 607.789 213.805 607.789C215.07 607.789 216 606.961 216 605.867V605.141L213.93 605.273C212.758 605.344 212.227 605.766 212.227 606.531V606.547ZM223.164 609.141C221.031 609.141 219.648 607.43 219.648 604.766V604.75C219.648 602.062 221.008 600.367 223.164 600.367C224.328 600.367 225.32 600.945 225.773 601.859H225.906V597.188H227.594V609H225.906V607.664H225.773C225.281 608.594 224.352 609.141 223.164 609.141ZM223.648 607.695C225.062 607.695 225.93 606.578 225.93 604.766V604.75C225.93 602.938 225.055 601.82 223.648 601.82C222.227 601.82 221.375 602.93 221.375 604.75V604.766C221.375 606.586 222.227 607.695 223.648 607.695ZM233.68 609.164C231.195 609.164 229.695 607.469 229.695 604.781V604.773C229.695 602.125 231.227 600.352 233.594 600.352C235.961 600.352 237.414 602.062 237.414 604.609V605.203H231.398C231.43 606.828 232.32 607.773 233.719 607.773C234.805 607.773 235.453 607.234 235.656 606.797L235.688 606.734L237.32 606.727L237.305 606.797C237.023 607.914 235.852 609.164 233.68 609.164ZM233.602 601.742C232.445 601.742 231.57 602.531 231.422 603.992H235.734C235.602 602.477 234.75 601.742 233.602 601.742ZM246.891 609.164C244.844 609.164 243.547 608.203 243.383 606.781V606.773H245.078L245.086 606.781C245.297 607.422 245.914 607.852 246.922 607.852C247.969 607.852 248.695 607.375 248.695 606.68V606.664C248.695 606.133 248.297 605.773 247.312 605.547L245.961 605.234C244.359 604.867 243.617 604.141 243.617 602.898V602.891C243.617 601.414 244.992 600.352 246.914 600.352C248.852 600.352 250.094 601.32 250.242 602.703V602.711H248.625V602.695C248.461 602.102 247.859 601.656 246.906 601.656C245.977 601.656 245.305 602.117 245.305 602.797V602.812C245.305 603.344 245.695 603.672 246.648 603.898L247.992 604.203C249.625 604.586 250.406 605.281 250.406 606.508V606.523C250.406 608.094 248.906 609.164 246.891 609.164ZM253.312 599C252.727 599 252.25 598.523 252.25 597.945C252.25 597.359 252.727 596.883 253.312 596.883C253.891 596.883 254.375 597.359 254.375 597.945C254.375 598.523 253.891 599 253.312 599ZM252.461 609V600.516H254.148V609H252.461ZM256.617 609V600.516H258.312V601.82H258.438C258.812 600.891 259.641 600.352 260.75 600.352C261.906 600.352 262.727 600.953 263.102 601.867H263.234C263.664 600.953 264.641 600.352 265.82 600.352C267.531 600.352 268.531 601.383 268.531 603.148V609H266.844V603.555C266.844 602.383 266.312 601.805 265.203 601.805C264.125 601.805 263.414 602.609 263.414 603.633V609H261.727V603.383C261.727 602.414 261.094 601.805 260.094 601.805C259.07 601.805 258.312 602.68 258.312 603.789V609H256.617ZM270.898 611.828V600.516H272.594V601.852H272.719C273.211 600.922 274.141 600.367 275.328 600.367C277.469 600.367 278.844 602.078 278.844 604.75V604.766C278.844 607.453 277.484 609.141 275.328 609.141C274.164 609.141 273.172 608.57 272.719 607.656H272.594V611.828H270.898ZM274.852 607.695C276.266 607.695 277.117 606.586 277.117 604.766V604.75C277.117 602.922 276.266 601.82 274.852 601.82C273.438 601.82 272.562 602.938 272.562 604.75V604.766C272.562 606.578 273.438 607.695 274.852 607.695ZM280.961 609V597.188H282.656V609H280.961ZM288.742 609.164C286.258 609.164 284.758 607.469 284.758 604.781V604.773C284.758 602.125 286.289 600.352 288.656 600.352C291.023 600.352 292.477 602.062 292.477 604.609V605.203H286.461C286.492 606.828 287.383 607.773 288.781 607.773C289.867 607.773 290.516 607.234 290.719 606.797L290.75 606.734L292.383 606.727L292.367 606.797C292.086 607.914 290.914 609.164 288.742 609.164ZM288.664 601.742C287.508 601.742 286.633 602.531 286.484 603.992H290.797C290.664 602.477 289.812 601.742 288.664 601.742Z" fill="black"/>
<rect width="375" height="40" transform="translate(0 772)" fill="white"/>
<rect x="121" y="790" width="134" height="5" rx="2.5" fill="black"/>
<rect x="24" y="644" width="327" height="48" rx="24" fill="#0000FF"/>
<path d="M167.586 674.195C164.906 674.195 163.18 672.969 163.047 670.891L163.039 670.766H165.266L165.281 670.852C165.43 671.727 166.359 672.273 167.648 672.273C168.953 672.273 169.773 671.703 169.773 670.844V670.836C169.773 670.07 169.219 669.688 167.82 669.398L166.633 669.164C164.406 668.719 163.281 667.656 163.281 665.961V665.953C163.281 663.891 165.078 662.531 167.578 662.531C170.188 662.531 171.789 663.836 171.898 665.812L171.906 665.961H169.68L169.672 665.867C169.555 664.984 168.742 664.445 167.578 664.445C166.367 664.453 165.641 665.008 165.641 665.812V665.82C165.641 666.531 166.219 666.945 167.516 667.203L168.711 667.445C171.07 667.914 172.133 668.875 172.133 670.648V670.656C172.133 672.82 170.43 674.195 167.586 674.195ZM174.57 664.547C173.883 664.547 173.352 664.008 173.352 663.359C173.352 662.711 173.883 662.172 174.57 662.172C175.258 662.172 175.789 662.711 175.789 663.359C175.789 664.008 175.258 664.547 174.57 664.547ZM173.43 674V665.625H175.711V674H173.43ZM181.156 676.906C178.852 676.906 177.398 675.867 177.18 674.523L177.172 674.453H179.391L179.414 674.508C179.594 674.922 180.203 675.281 181.156 675.281C182.336 675.281 182.961 674.672 182.961 673.734V672.453H182.914C182.477 673.328 181.539 673.883 180.328 673.883C178.234 673.883 176.938 672.32 176.938 669.719V669.711C176.938 667.039 178.25 665.453 180.367 665.453C181.547 665.453 182.461 666.078 182.914 667.055H182.961V665.625H185.242V673.766C185.242 675.633 183.672 676.906 181.156 676.906ZM181.117 672.211C182.234 672.211 182.969 671.273 182.969 669.773V669.766C182.969 668.273 182.227 667.344 181.117 667.344C179.984 667.344 179.258 668.266 179.258 669.766V669.773C179.258 671.281 179.977 672.211 181.117 672.211ZM186.742 674V665.625H189.023V667H189.07C189.5 666.039 190.359 665.453 191.625 665.453C193.469 665.453 194.516 666.633 194.516 668.594V674H192.234V669.062C192.234 667.969 191.719 667.344 190.695 667.344C189.672 667.344 189.023 668.094 189.023 669.188V674H186.742ZM200.32 664.547C199.633 664.547 199.102 664.008 199.102 663.359C199.102 662.711 199.633 662.172 200.32 662.172C201.008 662.172 201.539 662.711 201.539 663.359C201.539 664.008 201.008 664.547 200.32 664.547ZM199.18 674V665.625H201.461V674H199.18ZM202.992 674V665.625H205.273V667H205.32C205.75 666.039 206.609 665.453 207.875 665.453C209.719 665.453 210.766 666.633 210.766 668.594V674H208.484V669.062C208.484 667.969 207.969 667.344 206.945 667.344C205.922 667.344 205.273 668.094 205.273 669.188V674H202.992Z" fill="white"/>
<g clip-path="url(#clip3_119_1115)">
<g filter="url(#filter0_dd_119_1115)">
<g clip-path="url(#clip4_119_1115)">
<path d="M126.508 738.195C123.211 738.195 121.141 735.992 121.141 732.359V732.352C121.141 728.719 123.219 726.531 126.508 726.531C129.242 726.531 131.203 728.258 131.422 730.648L131.43 730.719H129.133L129.102 730.586C128.836 729.344 127.914 728.531 126.508 728.531C124.703 728.531 123.547 729.984 123.547 732.344V732.352C123.547 734.727 124.703 736.195 126.508 736.195C127.867 736.195 128.82 735.414 129.125 734.078L129.141 734H131.438L131.43 734.086C131.211 736.484 129.234 738.195 126.508 738.195ZM132.703 738V729.625H134.984V731.086H135.031C135.281 730.055 135.961 729.453 136.938 729.453C137.188 729.453 137.422 729.492 137.594 729.539V731.547C137.406 731.469 137.094 731.422 136.766 731.422C135.641 731.422 134.984 732.094 134.984 733.312V738H132.703ZM142.062 738.172C139.5 738.172 137.945 736.508 137.945 733.828V733.82C137.945 731.156 139.516 729.453 141.969 729.453C144.422 729.453 145.961 731.117 145.961 733.648V734.352H140.195C140.219 735.688 140.945 736.469 142.109 736.469C143.047 736.469 143.617 735.953 143.781 735.484L143.797 735.438H145.891L145.867 735.523C145.609 736.758 144.453 738.172 142.062 738.172ZM142.008 731.156C141.07 731.156 140.367 731.781 140.219 732.914H143.773C143.633 731.758 142.953 731.156 142.008 731.156ZM149.633 738.133C147.953 738.133 146.82 737.078 146.82 735.602V735.586C146.82 734.062 148 733.172 150.078 733.039L152.148 732.914V732.398C152.148 731.656 151.664 731.195 150.773 731.195C149.922 731.195 149.406 731.594 149.297 732.133L149.281 732.203H147.195L147.203 732.109C147.328 730.562 148.656 729.453 150.867 729.453C153.031 729.453 154.43 730.57 154.43 732.258V738H152.148V736.75H152.102C151.625 737.609 150.734 738.133 149.633 738.133ZM149.078 735.484C149.078 736.102 149.586 736.469 150.375 736.469C151.398 736.469 152.148 735.812 152.148 734.938V734.336L150.422 734.445C149.539 734.5 149.078 734.875 149.078 735.469V735.484ZM159.234 738.172C157.375 738.172 156.5 737.453 156.5 735.656V731.344H155.336V729.625H156.5V727.578H158.805V729.625H160.336V731.344H158.805V735.406C158.805 736.188 159.156 736.453 159.844 736.453C160.047 736.453 160.195 736.43 160.336 736.414V738.086C160.078 738.125 159.711 738.172 159.234 738.172ZM165.281 738.172C162.719 738.172 161.164 736.508 161.164 733.828V733.82C161.164 731.156 162.734 729.453 165.188 729.453C167.641 729.453 169.18 731.117 169.18 733.648V734.352H163.414C163.438 735.688 164.164 736.469 165.328 736.469C166.266 736.469 166.836 735.953 167 735.484L167.016 735.438H169.109L169.086 735.523C168.828 736.758 167.672 738.172 165.281 738.172ZM165.227 731.156C164.289 731.156 163.586 731.781 163.438 732.914H166.992C166.852 731.758 166.172 731.156 165.227 731.156ZM176.023 738.133C174.344 738.133 173.211 737.078 173.211 735.602V735.586C173.211 734.062 174.391 733.172 176.469 733.039L178.539 732.914V732.398C178.539 731.656 178.055 731.195 177.164 731.195C176.312 731.195 175.797 731.594 175.688 732.133L175.672 732.203H173.586L173.594 732.109C173.719 730.562 175.047 729.453 177.258 729.453C179.422 729.453 180.82 730.57 180.82 732.258V738H178.539V736.75H178.492C178.016 737.609 177.125 738.133 176.023 738.133ZM175.469 735.484C175.469 736.102 175.977 736.469 176.766 736.469C177.789 736.469 178.539 735.812 178.539 734.938V734.336L176.812 734.445C175.93 734.5 175.469 734.875 175.469 735.469V735.484ZM182.297 738V729.625H184.578V731H184.625C185.055 730.039 185.914 729.453 187.18 729.453C189.023 729.453 190.07 730.633 190.07 732.594V738H187.789V733.062C187.789 731.969 187.273 731.344 186.25 731.344C185.227 731.344 184.578 732.094 184.578 733.188V738H182.297ZM197.18 738.133C195.5 738.133 194.367 737.078 194.367 735.602V735.586C194.367 734.062 195.547 733.172 197.625 733.039L199.695 732.914V732.398C199.695 731.656 199.211 731.195 198.32 731.195C197.469 731.195 196.953 731.594 196.844 732.133L196.828 732.203H194.742L194.75 732.109C194.875 730.562 196.203 729.453 198.414 729.453C200.578 729.453 201.977 730.57 201.977 732.258V738H199.695V736.75H199.648C199.172 737.609 198.281 738.133 197.18 738.133ZM196.625 735.484C196.625 736.102 197.133 736.469 197.922 736.469C198.945 736.469 199.695 735.812 199.695 734.938V734.336L197.969 734.445C197.086 734.5 196.625 734.875 196.625 735.469V735.484ZM207.281 738.172C204.727 738.172 203.148 736.508 203.148 733.805V733.797C203.148 731.117 204.75 729.453 207.258 729.453C209.531 729.453 210.977 730.852 211.062 732.664V732.719H208.945L208.93 732.648C208.789 731.852 208.234 731.242 207.289 731.242C206.172 731.242 205.469 732.203 205.469 733.805V733.812C205.469 735.453 206.172 736.383 207.297 736.383C208.211 736.383 208.781 735.82 208.938 734.977L208.945 734.906H211.07V734.953C210.961 736.781 209.516 738.172 207.281 738.172ZM216 738.172C213.445 738.172 211.867 736.508 211.867 733.805V733.797C211.867 731.117 213.469 729.453 215.977 729.453C218.25 729.453 219.695 730.852 219.781 732.664V732.719H217.664L217.648 732.648C217.508 731.852 216.953 731.242 216.008 731.242C214.891 731.242 214.188 732.203 214.188 733.805V733.812C214.188 735.453 214.891 736.383 216.016 736.383C216.93 736.383 217.5 735.82 217.656 734.977L217.664 734.906H219.789V734.953C219.68 736.781 218.234 738.172 216 738.172ZM224.734 738.172C222.188 738.172 220.586 736.539 220.586 733.812V733.797C220.586 731.102 222.227 729.453 224.727 729.453C227.234 729.453 228.883 731.086 228.883 733.797V733.812C228.883 736.547 227.266 738.172 224.734 738.172ZM224.742 736.383C225.852 736.383 226.562 735.445 226.562 733.812V733.797C226.562 732.18 225.836 731.242 224.727 731.242C223.625 731.242 222.906 732.18 222.906 733.797V733.812C222.906 735.453 223.617 736.383 224.742 736.383ZM232.914 738.172C231.07 738.172 230.023 736.992 230.023 735.031V729.625H232.305V734.555C232.305 735.648 232.82 736.281 233.844 736.281C234.867 736.281 235.516 735.531 235.516 734.438V729.625H237.797V738H235.516V736.617H235.469C235.039 737.578 234.18 738.172 232.914 738.172ZM239.281 738V729.625H241.562V731H241.609C242.039 730.039 242.898 729.453 244.164 729.453C246.008 729.453 247.055 730.633 247.055 732.594V738H244.773V733.062C244.773 731.969 244.258 731.344 243.234 731.344C242.211 731.344 241.562 732.094 241.562 733.188V738H239.281ZM251.828 738.172C249.969 738.172 249.094 737.453 249.094 735.656V731.344H247.93V729.625H249.094V727.578H251.398V729.625H252.93V731.344H251.398V735.406C251.398 736.188 251.75 736.453 252.438 736.453C252.641 736.453 252.789 736.43 252.93 736.414V738.086C252.672 738.125 252.305 738.172 251.828 738.172Z" fill="black"/>
</g>
</g>
</g>
<rect x="24.5" y="708.5" width="326" height="47" rx="23.5" stroke="black" stroke-opacity="0.3"/>
</g>
<defs>
<filter id="filter0_dd_119_1115" x="20" y="705" width="335" height="59" filterUnits="userSpaceOnUse" color-interpolation-filters="sRGB">
<feFlood flood-opacity="0" result="BackgroundImageFix"/>
<feColorMatrix in="SourceAlpha" type="matrix" values="0 0 0 0 0 0 0 0 0 0 0 0 0 0 0 0 0 0 127 0" result="hardAlpha"/>
<feOffset dy="1"/>
<feGaussianBlur stdDeviation="2"/>
<feColorMatrix type="matrix" values="0 0 0 0 0 0 0 0 0 0 0 0 0 0 0 0 0 0 0.25 0"/>
<feBlend mode="normal" in2="BackgroundImageFix" result="effect1_dropShadow_119_1115"/>
<feColorMatrix in="SourceAlpha" type="matrix" values="0 0 0 0 0 0 0 0 0 0 0 0 0 0 0 0 0 0 127 0" result="hardAlpha"/>
<feOffset dy="4"/>
<feGaussianBlur stdDeviation="2"/>
<feComposite in2="hardAlpha" operator="out"/>
<feColorMatrix type="matrix" values="0 0 0 0 0 0 0 0 0 0 0 0 0 0 0 0 0 0 0.25 0"/>
<feBlend mode="normal" in2="effect1_dropShadow_119_1115" result="effect2_dropShadow_119_1115"/>
<feBlend mode="normal" in="SourceGraphic" in2="effect2_dropShadow_119_1115" result="shape"/>
</filter>
<clipPath id="clip0_119_1115">
<rect width="375" height="812" fill="white"/>
</clipPath>
<clipPath id="clip1_119_1115">
<rect width="375" height="44" fill="white"/>
</clipPath>
<clipPath id="clip2_119_1115">
<rect width="368" height="387" fill="white" transform="matrix(-1 0 0 1 368 44)"/>
</clipPath>
<clipPath id="clip3_119_1115">
<rect x="24" y="708" width="327" height="48" rx="24" fill="white"/>
</clipPath>
<clipPath id="clip4_119_1115">
<rect x="24" y="708" width="327" height="48" rx="12" fill="white"/>
</clipPath>
</defs>
</svg>
