<svg width="375" height="375" viewBox="0 0 375 375" fill="none" xmlns="http://www.w3.org/2000/svg">
<g clip-path="url(#clip0_119_1134)">
<path d="M120.494 168.968C116.719 170.117 116.42 175.292 112.603 176.299L95.8824 185.201L93.4622 196.94C93.3817 197.545 93.3011 198.151 93.618 198.719C93.7553 198.932 93.9342 199.139 94.0892 199.328L97.1262 203.398L106.905 216.398L112.603 223.999C112.71 224.152 112.912 224.229 113.072 224.163L117.53 223.189L135.794 219.357C141.384 218.153 146.993 217.074 152.517 215.71C157.674 214.442 162.829 212.878 167.643 210.58C172.67 208.144 177.231 204.844 181.16 200.852C185.243 196.753 188.766 192.164 192.265 187.557C195.977 182.665 199.647 177.778 203.346 172.802C207.046 167.827 210.674 162.798 214.165 157.705C215.911 155.158 217.615 152.617 219.289 150.018C220.71 147.858 222.196 145.71 223.177 143.297C224.563 139.891 224.67 135.572 221.515 133.152C220.432 132.272 219.077 131.857 217.713 131.952C217.482 131.964 217.274 131.995 217.049 132.049C217.167 131.841 217.267 131.657 217.384 131.449C219.316 127.857 221.391 123.375 219.897 119.269C219.147 117.196 217.697 115.267 215.464 114.79C213.932 114.464 212.474 114.785 211.1 115.39C211.517 114.48 211.887 113.535 212.15 112.585C213.289 108.367 211.915 103.205 207.529 101.497C205.616 100.74 203.486 100.82 201.668 101.723C200.188 102.471 199.03 103.68 198.015 104.996C198.015 102.112 196.899 99.2866 194.165 97.9927C190.634 96.3283 187.487 98.7206 185.416 101.506C182.867 104.934 180.36 108.356 177.858 111.82C174.443 116.563 171.116 121.335 167.844 126.184C168.346 124.266 168.545 122.307 168.021 120.328C167.738 119.267 167.211 118.136 166.2 117.606C165.07 116.988 163.724 117.207 162.575 117.609C161.106 118.143 159.846 119.24 158.706 120.277C155.301 123.365 152.409 127.056 149.665 130.746C147.329 133.888 145.076 137.167 143.233 140.639C140.879 145.099 138.797 149.688 136.324 154.06C135.381 155.725 134.386 157.461 133.062 158.843C132.974 158.962 132.879 159.04 132.767 159.141L132.732 159.189L132.323 159.44C131.915 159.691 129.311 162.492 128.873 162.684C126.254 164.779 123.398 168.096 120.494 168.968Z" fill="#7171FF"/>
<path d="M197.019 110.909C195.741 113.324 194.44 115.72 193.115 118.099C191.908 120.27 190.653 122.405 189.374 124.522C188.131 126.592 186.864 128.645 185.555 130.703C184.211 132.809 182.843 134.897 181.517 136.979C180.031 139.276 178.504 141.578 176.995 143.857L176.388 144.773C176.281 144.916 176.122 145.13 175.908 145.119C175.689 145.067 175.557 144.895 175.485 144.694C175.377 144.392 175.328 144.06 175.386 143.733C175.403 143.413 175.485 143.104 175.632 142.807C177.177 140.48 178.721 138.154 180.242 135.81C181.628 133.698 182.996 131.61 184.357 129.48C185.648 127.445 186.957 125.387 188.2 123.317C189.444 121.247 190.716 119.088 191.947 116.935C193.278 114.598 194.568 112.266 195.828 109.876C195.993 109.555 196.157 109.234 196.328 108.954C196.399 108.711 196.629 108.55 196.873 108.62C197.069 108.655 197.2 108.826 197.231 109.034C197.381 109.626 197.313 110.315 197.019 110.909Z" fill="white"/>
<path d="M208.289 120.213C206.828 122.527 205.407 124.836 203.987 127.144C202.614 129.339 201.282 131.528 199.885 133.705C198.565 135.829 197.221 137.935 195.835 140.047C194.45 142.159 193.058 144.229 191.625 146.306C190.139 148.454 188.605 150.567 187.047 152.662C186.852 152.924 186.658 153.186 186.445 153.471C186.339 153.614 186.114 153.668 185.971 153.562C185.798 153.397 185.679 153.16 185.642 152.911C185.509 152.294 185.666 151.635 186.014 151.118C186.404 150.594 186.793 150.07 187.182 149.546C187.377 149.284 187.572 149.023 187.767 148.761C187.855 148.642 187.961 148.499 188.05 148.38C188.067 148.356 188.209 148.165 188.121 148.285L188.138 148.261C188.174 148.213 188.191 148.189 188.227 148.142C188.964 147.1 189.701 146.059 190.439 145.017C191.854 142.965 193.27 140.912 194.637 138.823C196.005 136.735 197.349 134.629 198.693 132.523C200.049 130.352 201.404 128.181 202.778 125.986C204.18 123.701 205.625 121.411 207.027 119.127L207.558 118.264C207.664 118.122 207.823 117.907 208.037 117.918C208.256 117.971 208.388 118.142 208.46 118.344C208.568 118.646 208.617 118.978 208.559 119.304C208.542 119.625 208.46 119.934 208.313 120.231L208.289 120.213Z" fill="white"/>
<path d="M212.812 137.698C210.915 140.946 208.947 144.14 206.913 147.323C204.879 150.505 202.792 153.611 200.615 156.688C199.371 158.461 198.102 160.217 196.81 161.955C196.704 162.097 196.479 162.152 196.312 162.028C196.139 161.862 196.02 161.626 195.983 161.377C195.85 160.76 195.984 160.083 196.355 159.583C196.638 159.202 196.904 158.845 197.187 158.464C197.258 158.369 197.329 158.274 197.4 158.179C197.435 158.131 197.453 158.107 197.488 158.06C197.47 158.083 197.364 158.226 197.488 158.06L197.913 157.488C198.479 156.726 199.022 155.947 199.547 155.191C200.614 153.656 201.7 152.097 202.743 150.544C204.813 147.462 206.853 144.321 208.804 141.15C209.917 139.354 211.008 137.54 212.056 135.731C212.139 135.571 212.322 135.374 212.535 135.385C212.755 135.438 212.886 135.609 212.958 135.811C213.222 136.45 213.13 137.121 212.812 137.698Z" fill="white"/>
<path d="M169.322 143.586C171.573 144.188 173.808 144.962 175.942 145.92C178.052 146.861 180.08 147.962 182.007 149.247C183.953 150.509 185.774 151.937 187.483 153.467C189.223 155.056 190.856 156.787 192.335 158.626C193.766 160.43 195.085 162.335 196.209 164.354L196.616 165.099C196.891 165.674 196.923 166.326 196.695 166.932C196.624 167.176 196.465 167.39 196.27 167.504C196.092 167.594 195.89 167.517 195.8 167.34C194.401 164.747 192.747 162.297 190.845 160.033C190.326 159.388 189.772 158.791 189.194 158.177L189.343 158.324C185.803 154.583 181.637 151.486 177.017 149.197C175.715 148.561 174.378 147.974 173.029 147.451L173.207 147.51C171.858 146.987 170.48 146.554 169.09 146.186C168.561 146.052 168.528 145.251 168.568 144.8C168.584 144.479 168.666 144.171 168.813 143.873C168.932 143.813 169.102 143.534 169.322 143.586Z" fill="white"/>
<path d="M164.303 135.123L160.169 142.622C160.087 142.782 159.904 142.979 159.69 142.968C159.47 142.915 159.339 142.744 159.267 142.542C159.069 141.914 159.119 141.249 159.413 140.655L163.547 133.156C163.63 132.995 163.813 132.799 164.027 132.81C164.246 132.862 164.378 133.034 164.45 133.235C164.648 133.863 164.597 134.528 164.303 135.123Z" fill="white"/>
<path d="M159.681 139.45C161.015 143.325 161.299 147.566 160.794 151.626C160.184 156.126 158.855 160.499 156.778 164.536C155.648 166.801 154.34 169.008 152.931 171.102C152.824 171.245 152.689 171.477 152.451 171.448C152.232 171.396 152.1 171.224 152.028 171.023C151.92 170.721 151.871 170.389 151.929 170.062C151.946 169.742 152.028 169.433 152.175 169.136C153.431 167.297 154.574 165.411 155.598 163.437C155.845 162.956 156.075 162.498 156.322 162.016C156.387 161.879 156.434 161.767 156.499 161.63C156.534 161.582 156.563 161.493 156.599 161.445C156.634 161.398 156.704 161.154 156.599 161.445C156.71 161.196 156.822 160.946 156.934 160.696C157.38 159.698 157.78 158.664 158.113 157.618C158.272 157.107 158.43 156.596 158.588 156.085C158.599 156.02 158.635 155.972 158.629 155.931C158.699 155.687 158.547 156.24 158.617 155.996L158.728 155.598C158.798 155.355 158.868 155.111 158.915 154.85C159.136 153.906 159.316 152.967 159.473 152.012C159.501 151.774 159.421 152.38 159.467 152.118L159.484 151.946L159.524 151.643C159.571 151.382 159.576 151.127 159.622 150.866C159.662 150.415 159.719 149.94 159.717 149.495C159.722 149.24 159.733 149.026 159.738 148.771L159.755 148.599C159.733 149.026 159.75 148.854 159.756 148.747L159.742 148.367C159.734 147.881 159.709 147.418 159.701 146.932C159.682 146.659 159.669 146.428 159.65 146.155C159.632 146.03 159.631 145.882 159.613 145.757L159.588 145.591C159.558 145.384 159.637 145.923 159.594 145.633C159.521 145.135 159.448 144.637 159.351 144.121C159.254 143.605 159.133 143.072 159.018 142.58L158.97 142.396C159.042 142.746 159.006 142.497 158.994 142.413L158.897 142.046C158.819 141.803 158.735 141.519 158.657 141.276C158.549 140.974 158.523 140.659 158.558 140.315C158.574 139.994 158.656 139.686 158.803 139.388C158.909 139.245 159.062 138.99 159.282 139.042C159.454 139.059 159.609 139.249 159.681 139.45Z" fill="white"/>
<path d="M122.589 161.637C50.3251 221.858 10.0036 209.29 -22.9866 174.205C-32.0633 203.355 -45.5038 270.453 -45.5038 270.034C46.2406 314.021 129.572 251.706 159.769 215.05L122.589 161.637Z" fill="#FF8B00"/>
<path fill-rule="evenodd" clip-rule="evenodd" d="M-143.05 174.756C-143.345 250.72 -142.971 368.366 -141.857 384.714C-103.63 355.913 -45.5043 292.551 -20.3689 236.52L-20.8298 236.187C-9.0791 211.313 -11.8211 184.617 -26.4634 170.619C-40.3438 157.323 -60.0433 160.179 -64.0861 160.934L-58.687 151.284L-78.6726 158.606L-83.8851 137.186L-89.2842 146.837C-91.0623 142.825 -100.161 123.857 -120.363 118.085C-143.01 111.65 -170.727 124.703 -185.357 151.213C-176.736 155.976 -161.247 164.6 -143.05 174.756Z" fill="#FF8B00"/>
<path fill-rule="evenodd" clip-rule="evenodd" d="M107.158 194.445C52.1262 239.394 5.88508 224.955 -10.1686 212.253L-9.62272 211.563C6.09203 223.997 51.8745 238.464 106.601 193.763L107.158 194.445Z" fill="white"/>
<path fill-rule="evenodd" clip-rule="evenodd" d="M0.466726 240.261C-8.8825 238.021 -16.0761 234.826 -20.118 231.628L-19.5722 230.938C-15.672 234.024 -8.61784 237.179 0.67178 239.406C9.95038 241.63 21.4236 242.919 34.1354 242.299C59.5561 241.059 89.9167 232.188 117.586 207.912L118.166 208.573C90.3282 232.997 59.7703 241.93 34.1782 243.178C21.3837 243.801 9.82698 242.505 0.466726 240.261Z" fill="white"/>
<path fill-rule="evenodd" clip-rule="evenodd" d="M-9.74773 266.961C-20.5561 264.501 -28.6387 261.013 -32.6857 257.811L-32.1398 257.121C-28.2446 260.203 -20.3122 263.654 -9.55248 266.103C1.19175 268.549 14.7104 269.985 29.7446 269.071C59.8089 267.244 95.9236 256.02 128.042 224.685L128.657 225.315C96.3655 256.818 60.0413 268.111 29.798 269.949C14.6784 270.868 1.07607 269.425 -9.74773 266.961Z" fill="white"/>
<path d="M100.752 170.688L115.137 161.662C118.435 159.592 122.777 160.463 125.022 163.644L161.363 215.127C163.456 218.092 163.064 222.143 160.441 224.652L147.179 237.338C143.902 240.472 138.595 239.91 136.047 236.16L98.5843 181.018C96.2502 177.582 97.2337 172.895 100.752 170.688Z" fill="#212121"/>
<path d="M116.694 177.329L116.695 177.33C117.01 177.827 117.267 178.359 117.461 178.919C117.653 179.476 117.775 180.052 117.828 180.631C117.871 181.231 117.82 181.834 117.669 182.411L117.668 182.414C117.517 183.015 117.267 183.588 116.934 184.112C116.292 185.116 115.385 185.914 114.316 186.416C113.708 186.699 113.059 186.89 112.397 186.969L112.396 186.969C111.716 187.052 111.026 187.013 110.363 186.845C109.765 186.692 109.203 186.433 108.69 186.083C108.177 185.733 107.722 185.298 107.356 184.8L107.355 184.799C106.983 184.297 106.699 183.733 106.526 183.135L106.526 183.135C106.356 182.549 106.283 181.929 106.301 181.314L106.301 181.314C106.319 180.692 106.424 180.078 106.612 179.488L106.612 179.488L106.613 179.485C106.792 178.903 107.053 178.351 107.393 177.845L107.393 177.844C107.716 177.36 108.108 176.933 108.562 176.576L108.562 176.576C109.031 176.207 109.544 175.903 110.089 175.661L110.089 175.661L110.092 175.66C110.627 175.417 111.188 175.253 111.772 175.16C112.343 175.07 112.923 175.068 113.497 175.154C114.06 175.24 114.603 175.427 115.097 175.709L115.219 175.779L115.22 175.778C115.373 175.875 115.52 175.986 115.663 176.107C116.061 176.461 116.409 176.874 116.694 177.329Z" stroke="white" stroke-width="0.680574"/>
<path fill-rule="evenodd" clip-rule="evenodd" d="M118.543 171.043C118.762 170.899 119.057 170.959 119.201 171.178L152.015 220.976C152.16 221.196 152.099 221.49 151.88 221.635C151.661 221.779 151.366 221.718 151.222 221.499L118.408 171.701C118.264 171.482 118.324 171.187 118.543 171.043Z" fill="white"/>
<rect x="281.745" y="163.752" width="183.252" height="133.893" rx="16" transform="rotate(27.46 281.745 163.752)" fill="#A9D77E"/>
<path d="M326.723 223.114C326.632 222.284 326.196 221.448 325.478 220.988C324.998 220.739 324.519 220.489 324.039 220.24L294.096 204.681C293.616 204.431 293.169 204.286 292.687 204.21C291.237 204.153 289.815 204.545 288.662 205.425C287.895 205.896 287.297 206.543 286.837 207.261C286.481 207.947 286.125 208.632 285.769 209.317L280.398 219.318L275.953 227.538L275.704 228.018C275.668 228.086 275.668 228.086 275.632 228.155C275.315 228.599 275.202 229.15 275.751 229.434L297.471 240.721C300.418 242.252 303.296 243.748 306.242 245.279C307.749 246.062 309.257 246.845 310.764 247.629L310.901 247.7C311.518 248.02 312.42 247.793 313.011 247.491C313.88 247.159 314.614 246.583 315.074 245.865L318.347 239.734L324.039 229.116L325.923 225.657C326.03 225.452 326.137 225.246 326.244 225.041C326.561 224.597 326.745 223.909 326.723 223.114Z" fill="#FFF3E8"/>
<path d="M261.037 258.227C260.821 260.986 261.989 263.595 264.209 265.183C266.737 267.019 270.124 266.864 272.908 265.526C274.716 264.725 276.324 263.473 277.557 261.938C278.508 260.778 279.151 259.372 279.244 257.854C279.29 257.095 278.887 256.363 278.238 255.939C277.037 255.402 275.508 256 274.497 256.606C273.59 257.179 272.785 257.892 272.185 258.711C271.516 259.495 270.848 260.279 270.317 261.134C269.224 262.568 268.61 264.25 268.375 266.043C268.249 267.457 268.642 268.879 269.522 270.032C272.236 273.183 276.992 271.565 279.856 269.572C281.393 268.456 282.727 267.061 283.787 265.523C284.598 264.465 285.759 263.067 285.54 261.648C285.482 260.921 285.008 260.327 284.32 260.144C283.117 259.779 281.692 260.344 280.681 260.95C278.831 262.165 277.423 263.87 276.632 265.895C275.953 267.37 275.893 268.992 276.491 270.521C277.091 271.877 278.459 272.762 279.942 272.923C282.046 273.06 284.129 272.401 285.91 271.151C287.586 269.934 288.959 268.298 289.887 266.343C290.279 265.59 290.566 264.869 290.89 264.08C291.213 263.29 290.459 262.899 289.733 262.956C288.59 263.146 287.615 263.683 286.774 264.464C284.53 266.605 283.583 269.768 284.364 272.785C285.22 275.492 287.468 277.53 290.222 278.091C290.809 278.135 291.398 278.006 291.954 277.773C292.614 277.507 293.173 277.101 293.699 276.591C294.261 276.013 294.866 274.848 293.66 274.657L293.282 274.547C292.904 274.438 293.419 274.618 293.145 274.476C292.871 274.333 292.561 274.26 292.287 274.117C291.739 273.832 291.227 273.479 290.818 273.093L291.057 273.304C290.138 272.391 289.464 271.345 289.137 270.131L289.236 270.443C289.107 269.854 289.047 269.301 288.986 268.747C288.956 268.47 289.03 268.161 289.068 267.919C289.104 267.851 289.145 267.437 289.142 267.61C289.14 267.782 289.18 267.368 289.216 267.3C289.254 267.059 289.397 266.785 289.435 266.544C289.506 266.407 289.578 266.269 289.649 266.132C289.684 266.064 289.72 265.995 289.756 265.927L289.684 266.064C289.651 265.96 290.109 265.414 290.145 265.346C290.391 265.039 289.934 265.584 290.109 265.414C290.284 265.244 290.32 265.176 290.46 265.074L286.308 265.528C286.127 266.043 285.914 266.454 285.733 266.969C285.626 267.175 285.484 267.449 285.377 267.655L285.341 267.723C285.27 267.86 285.234 267.929 285.199 267.997C284.95 268.477 284.668 268.852 284.385 269.228C284.561 269.058 284.596 268.989 284.457 269.091L284.317 269.192C284.246 269.329 284.141 269.362 284.002 269.464C283.687 269.735 284.037 269.395 284.141 269.362C284.246 269.329 283.618 269.699 284.106 269.431C284.21 269.398 284.594 269.162 284.106 269.431C284.002 269.464 283.585 269.595 284.314 269.365C284.21 269.398 284.106 269.431 284.07 269.499C283.722 269.667 284.487 269.368 284.279 269.433L284.07 269.499C283.689 269.562 284.002 269.464 284.174 269.466C284.002 269.464 283.725 269.494 283.552 269.491C283.276 269.521 283.898 269.497 283.656 269.458C283.588 269.423 283.415 269.42 283.311 269.453L283.07 269.415C282.692 269.305 283.207 269.486 283.002 269.379C282.59 269.165 282.248 268.987 281.941 268.741L282.179 268.952C281.738 268.461 281.401 267.938 281.203 267.313L281.302 267.626C281.173 267.036 281.148 266.414 281.192 265.828C281.192 265.828 281.233 265.414 281.194 265.655C281.233 265.414 281.304 265.277 281.342 265.036C281.449 264.83 281.452 264.658 281.559 264.452C281.594 264.384 281.843 263.904 281.665 264.247C281.843 263.904 282.054 263.666 282.232 263.323C282.339 263.117 282.479 263.016 282.586 262.81L282.761 262.64C282.515 262.947 282.515 262.947 282.69 262.777C282.865 262.608 283.18 262.336 282.55 262.879C282.69 262.778 282.69 262.778 282.446 262.912C282.271 263.082 282.062 263.148 281.819 263.282C281.471 263.449 281.194 263.479 280.849 263.474C280.643 263.367 280.643 263.367 280.78 263.438C280.849 263.474 280.917 263.51 280.986 263.545L280.747 263.334C280.849 263.474 281.019 263.649 281.016 263.822L280.917 263.51C280.914 263.682 280.98 263.891 280.942 264.132C280.912 263.855 281.013 263.995 280.942 264.132C280.906 264.2 280.835 264.337 280.832 264.51C280.797 264.578 280.761 264.647 280.761 264.647C280.69 264.784 280.726 264.716 280.868 264.441C280.832 264.51 280.761 264.647 280.69 264.784C280.548 265.058 280.337 265.297 280.161 265.467C279.986 265.636 279.808 265.979 279.561 266.286C279.49 266.423 279.35 266.525 279.279 266.662C279.49 266.423 279.455 266.492 279.279 266.662C279.068 266.9 278.857 267.139 278.646 267.377C278.507 267.478 278.436 267.616 278.296 267.717C278.156 267.818 278.26 267.785 278.471 267.547L278.296 267.717C278.156 267.818 278.12 267.887 277.981 267.988C277.841 268.09 277.841 268.09 277.701 268.191L278.016 267.92C277.877 268.021 277.772 268.054 277.633 268.156C278.085 267.955 278.12 267.887 277.877 268.021L277.737 268.123C277.529 268.189 277.148 268.252 277.805 268.158C277.701 268.191 277.493 268.257 277.389 268.29L277.181 268.356L277.389 268.29C277.216 268.287 277.112 268.32 276.939 268.317C276.871 268.282 276.386 268.378 276.835 268.35C276.663 268.348 276.559 268.381 276.422 268.309C276.249 268.307 276.18 268.271 276.008 268.268C275.939 268.233 275.561 268.123 275.835 268.266C275.32 268.085 274.772 267.8 274.399 267.345L274.637 267.556C274.127 267.03 273.724 266.299 273.494 265.57L273.593 265.882C273.398 265.085 273.34 264.359 273.491 263.567C273.491 263.567 273.532 263.153 273.529 263.325C273.526 263.498 273.565 263.257 273.6 263.188C273.638 262.947 273.71 262.81 273.817 262.605C273.923 262.399 273.997 262.089 274.104 261.884C274.175 261.747 274.211 261.678 274.282 261.541C274.175 261.747 274.282 261.541 274.353 261.404C274.603 260.925 274.885 260.549 275.202 260.105C275.309 259.899 275.485 259.73 275.66 259.56C275.731 259.423 275.835 259.39 275.906 259.253C275.624 259.628 275.871 259.321 275.942 259.184C276.117 259.014 276.224 258.809 276.4 258.639C276.435 258.57 276.539 258.537 276.61 258.4C276.821 258.162 276.435 258.57 276.435 258.57C276.715 258.367 276.191 258.704 276.156 258.773C275.912 258.907 275.599 259.006 275.287 259.105C274.561 259.163 274.32 259.124 274.629 259.198C274.698 259.234 274.698 259.234 274.629 259.198C274.424 259.091 274.766 259.269 274.766 259.269L274.528 259.058C274.698 259.234 274.832 259.478 274.898 259.686L274.799 259.373C274.898 259.686 274.893 260.031 274.819 260.341C274.824 259.996 274.819 260.341 274.748 260.478C274.676 260.615 274.674 260.788 274.567 260.993C274.46 261.199 274.318 261.473 274.279 261.714C274.46 261.199 274.315 261.645 274.244 261.782C274.173 261.919 274.101 262.057 273.962 262.158C273.822 262.259 273.89 262.295 273.89 262.295C273.89 262.295 273.855 262.364 274.066 262.125C273.926 262.226 273.855 262.364 273.715 262.465C273.54 262.635 273.121 262.939 273.819 262.432C273.679 262.533 273.644 262.602 273.504 262.703C273.364 262.805 272.945 263.109 273.364 262.805C273.784 262.501 273.364 262.805 273.225 262.906C273.085 263.008 272.668 263.139 273.433 262.84C273.293 262.942 273.189 262.975 272.981 263.041C272.425 263.274 273.501 262.876 273.085 263.008C272.981 263.041 272.877 263.074 272.704 263.071C272.531 263.068 272.427 263.101 272.323 263.134C272.948 262.937 272.496 263.137 272.255 263.098L271.874 263.162C271.424 263.189 272.219 263.167 271.874 263.162C271.528 263.156 271.287 263.118 270.978 263.044L270.599 262.934C270.462 262.863 270.462 262.863 270.599 262.934L270.394 262.828C270.188 262.721 269.914 262.578 269.709 262.472C269.16 262.187 268.648 261.833 268.239 261.447L268.478 261.658C267.491 260.71 266.751 259.455 266.392 258.137L266.49 258.45C266.295 257.652 266.238 256.926 266.388 256.134C266.429 255.72 266.018 255.507 265.64 255.397C265.053 255.353 264.464 255.482 263.908 255.716C262.9 256.149 261.609 256.958 261.486 258.199L261.037 258.227Z" fill="#05061B"/>
<path d="M301.308 282.547C303.03 285.095 305.977 286.626 309.054 286.397C312.926 286.147 316.378 284.025 318.364 280.706C319.32 279.201 319.728 277.411 319.651 275.718C319.596 274.819 318.453 275.008 317.864 275.137C315.162 275.648 312.622 276.852 310.488 278.614C308.633 280.174 306.973 282.531 307.278 285.126C307.489 287.064 308.707 288.74 310.384 289.699C312.678 290.978 315.416 290.399 317.61 289.19C319.945 287.879 322.051 285.667 322.267 282.908C322.346 282.253 321.519 282.171 321.069 282.198C320.135 282.322 319.335 282.689 318.6 283.265C316.327 285.129 313.587 288.057 314.47 291.213C314.967 292.603 316.159 293.657 317.639 293.991C319.429 294.399 321.226 294.289 322.931 293.521C324.843 292.687 326.621 291.61 328.265 290.289L324.599 290.646C325.551 296.014 329.838 300.156 335.248 300.966C336.525 301.02 337.777 300.453 338.657 299.43C339.15 298.816 339.859 297.618 338.653 297.427C338.344 297.353 337.998 297.348 337.689 297.274L337.31 297.164C337.31 297.164 336.864 297.019 337.173 297.093C336.59 296.877 336.074 296.696 335.526 296.411C334.498 295.877 333.473 295.17 332.588 294.362L332.826 294.573C331.261 293.064 330.151 291.181 329.597 289.066L329.695 289.378C329.597 289.066 329.566 288.789 329.503 288.408C329.218 286.781 326.535 288.258 325.837 288.766C325.522 289.037 325.138 289.273 324.823 289.544C324.683 289.646 324.439 289.78 324.3 289.881C324.93 289.339 324.439 289.78 324.264 289.95C324.089 290.12 323.88 290.186 323.741 290.287C323.601 290.389 323.601 290.389 323.497 290.421C323.881 290.186 323.985 290.153 323.741 290.287C323.497 290.421 323.256 290.383 323.185 290.52C323.601 290.389 323.601 290.389 323.393 290.454L323.08 290.553L322.768 290.652C323.08 290.553 323.149 290.589 322.941 290.655L322.387 290.715C322.215 290.712 322.215 290.712 322.456 290.751L322.214 290.712C322.042 290.71 321.869 290.707 321.664 290.6C321.595 290.565 321.08 290.384 321.354 290.526C321.217 290.455 321.011 290.348 320.874 290.277C320.532 290.099 320.293 289.888 319.986 289.642L320.225 289.852C319.748 289.431 319.446 288.839 319.282 288.318L319.38 288.63C319.314 288.422 319.284 288.145 319.254 287.869C319.221 287.765 319.224 287.592 319.259 287.523C319.295 287.455 319.336 287.041 319.227 287.419C319.265 287.178 319.407 286.904 319.446 286.663C319.517 286.526 319.552 286.457 319.624 286.32C319.377 286.627 319.837 285.909 319.624 286.32C319.73 286.115 319.941 285.876 320.048 285.671L320.119 285.534C320.295 285.364 320.191 285.397 320.048 285.671C320.152 285.638 320.259 285.432 320.295 285.364C320.47 285.194 320.645 285.024 320.856 284.785C321.243 284.377 320.577 284.988 320.821 284.854C321.065 284.719 321.1 284.651 321.171 284.514L317.505 284.871L317.499 285.216C317.497 285.389 317.461 285.458 317.499 285.216C317.461 285.458 317.39 285.595 317.283 285.8C317.212 285.937 317.176 286.006 317.105 286.143C316.963 286.417 317.176 286.006 317.176 286.006C317.176 286.006 316.859 286.45 316.823 286.518C316.541 286.894 317.209 286.11 316.859 286.45C316.823 286.518 316.787 286.587 316.683 286.62C316.508 286.79 316.264 286.924 316.823 286.518C316.787 286.587 316.683 286.62 316.648 286.688C316.472 286.858 316.16 286.957 316.856 286.622L316.612 286.757C316.368 286.891 316.091 286.921 316.82 286.691C316.716 286.724 316.612 286.757 316.576 286.825C316.368 286.891 316.231 286.82 316.785 286.76C316.681 286.792 316.576 286.825 316.472 286.858C316.264 286.924 316.231 286.82 316.645 286.861C316.541 286.894 316.472 286.858 316.368 286.891L316.091 286.921C316.091 286.921 316.574 286.998 316.16 286.957C315.919 286.919 315.746 286.916 315.505 286.878L315.195 286.804C315.332 286.875 315.401 286.911 315.195 286.804C315.058 286.733 314.853 286.626 314.647 286.519C314.236 286.305 313.929 286.059 313.589 285.708L313.828 285.919C313.079 285.182 312.575 284.311 312.278 283.374L312.377 283.686C312.314 283.305 312.251 282.924 312.223 282.475C312.226 282.302 312.229 282.13 312.267 281.888C312.267 281.888 312.308 281.475 312.27 281.716C312.231 281.957 312.341 281.579 312.341 281.579C312.379 281.338 312.522 281.064 312.629 280.858C312.664 280.789 312.807 280.515 312.7 280.721C312.593 280.926 312.771 280.584 312.771 280.584C312.771 280.584 312.878 280.378 312.949 280.241C313.02 280.104 313.196 279.934 312.985 280.173C312.774 280.411 313.02 280.104 313.056 280.036C313.091 279.967 313.231 279.866 313.302 279.729C313.513 279.49 312.883 280.033 313.163 279.83L313.478 279.559C313.513 279.49 313.617 279.457 313.757 279.356C314.176 279.052 313.338 279.66 313.617 279.457C313.897 279.254 314.001 279.222 314.245 279.087C314.733 278.818 313.793 279.287 314.105 279.189C314.209 279.156 314.349 279.054 314.453 279.021C314.557 278.988 314.905 278.821 315.113 278.755C315.322 278.69 315.218 278.722 315.009 278.788C315.113 278.755 315.218 278.722 315.322 278.69C315.842 278.525 316.327 278.429 316.848 278.264L315.061 277.684C315.124 278.065 315.119 278.41 315.078 278.824C315.075 278.997 315.072 279.169 314.966 279.375C314.925 279.789 315.037 279.238 314.894 279.512C314.785 279.89 314.711 280.2 314.533 280.542C314.462 280.679 314.355 280.885 314.284 281.022C314.106 281.364 314.426 280.748 314.248 281.09C314.07 281.433 313.859 281.671 313.613 281.978C313.437 282.148 313.541 282.116 313.684 281.841C313.648 281.91 313.613 281.978 313.509 282.011C313.404 282.044 313.333 282.181 313.193 282.283C312.878 282.554 313.684 281.841 313.193 282.283C313.054 282.384 312.914 282.486 312.774 282.587C313.509 282.011 313.018 282.453 312.81 282.519C312.391 282.823 313.506 282.184 312.914 282.486C312.774 282.587 312.602 282.584 312.462 282.686C312.67 282.62 313.158 282.351 312.462 282.686L312.185 282.716C312.566 282.653 312.566 282.653 312.358 282.719C312.149 282.785 312.081 282.749 311.908 282.746C311.736 282.744 311.632 282.777 311.459 282.774L311.527 282.809L311.286 282.771C310.941 282.766 310.631 282.692 310.322 282.618C310.149 282.615 310.012 282.544 309.839 282.541L309.634 282.435C309.324 282.361 309.014 282.287 308.74 282.144C308.124 281.824 307.543 281.435 307.033 280.909L307.271 281.12C306.863 280.734 306.49 280.279 306.153 279.755C305.881 279.44 305.435 279.295 305.018 279.427C303.703 279.614 302.552 280.321 301.741 281.379C301.39 281.719 301.073 282.163 301.308 282.547Z" fill="#05061B"/>
<path d="M350.333 308.109C351.723 309.788 353.743 310.925 355.914 311.269C358.429 311.619 361.027 311.142 363.326 309.9C365.554 308.795 367.342 307.027 368.482 304.834C368.909 304.012 369.131 303.083 369.007 302.148C368.851 301.11 368.069 300.269 367.072 300.011C365.592 299.677 363.995 300.24 362.707 300.876C361.523 301.479 360.441 302.222 359.561 303.244C358.156 304.777 357.332 306.698 357.195 308.803C357.029 312.806 360.401 315.864 364.12 316.578C366.808 316.931 369.51 316.42 371.812 315.005C374.25 313.662 376.214 311.724 377.496 309.257C377.674 308.915 377.543 308.498 377.236 308.252C377.167 308.216 377.099 308.18 377.099 308.18C376.479 308.033 375.822 308.126 375.23 308.427C372.273 309.763 369.745 312.452 369.658 315.801C369.653 318.322 371.345 320.593 373.819 321.357C375.606 321.937 377.577 321.83 379.245 321.131C379.906 320.865 380.465 320.459 380.991 319.949C381.341 319.609 381.591 319.13 381.667 318.647C381.582 317.472 379.812 318.031 379.255 318.264C380.02 317.965 379.568 318.166 379.395 318.163C379.223 318.16 378.91 318.259 379.291 318.196C379.672 318.133 378.875 318.327 378.842 318.223L379.014 318.226L378.842 318.223C378.773 318.188 378.669 318.221 378.496 318.218C378.255 318.18 378.014 318.141 377.773 318.103C377.532 318.065 377.91 318.174 377.704 318.067L377.43 317.925C377.225 317.818 376.951 317.676 376.745 317.569C376.334 317.355 375.958 317.073 375.619 316.723L375.857 316.933C375.21 316.336 374.774 315.501 374.511 314.668L374.61 314.98C374.445 314.459 374.385 313.906 374.428 313.319C374.431 313.147 374.434 312.974 374.505 312.837C374.51 312.492 374.398 313.043 374.54 312.768C374.614 312.459 374.721 312.253 374.795 311.944C374.831 311.875 374.905 311.565 375.009 311.532L374.902 311.738C374.937 311.669 374.973 311.601 375.009 311.532C375.08 311.395 375.115 311.327 375.255 311.225C375.291 311.157 375.326 311.088 375.362 311.02C375.151 311.258 375.08 311.395 375.187 311.19C375.294 310.984 375.398 310.951 375.502 310.918L375.187 311.19L375.362 311.02C375.713 310.68 374.77 311.321 375.222 311.121C375.85 310.751 374.666 311.354 375.118 311.154L372.748 310.357C372.961 309.946 372.712 310.426 372.676 310.494L372.359 310.939C372.287 311.076 372.216 311.213 372.076 311.314C371.937 311.415 372.005 311.451 371.97 311.52C371.934 311.588 371.934 311.588 372.145 311.35C371.934 311.588 371.723 311.827 371.512 312.065L371.337 312.235C371.161 312.405 371.197 312.336 371.512 312.065C371.372 312.166 371.268 312.199 371.197 312.336C371.057 312.438 370.953 312.471 370.882 312.608C371.512 312.065 371.161 312.405 371.022 312.506C370.882 312.608 370.742 312.709 370.603 312.811C370.011 313.112 371.159 312.578 370.707 312.778L370.359 312.945C370.15 313.011 369.874 313.041 370.463 312.912C370.186 312.942 369.838 313.11 369.561 313.14C369.284 313.17 370.046 313.044 369.561 313.14L369.076 313.236L368.627 313.263C368.177 313.291 369.041 313.304 368.558 313.228C367.972 313.184 367.352 313.036 366.802 312.924C367.111 312.998 366.665 312.853 366.665 312.853L366.322 312.675C365.464 312.316 364.677 311.82 363.998 311.119L364.236 311.33C363.282 310.486 362.643 309.371 362.317 308.157L362.416 308.47C362.152 307.637 362.166 306.773 362.283 305.877C362.319 305.809 362.286 305.705 362.322 305.636C362.248 305.946 362.322 305.636 362.357 305.568C362.396 305.326 362.502 305.121 362.505 304.948C362.612 304.743 362.65 304.501 362.721 304.364C362.757 304.296 362.828 304.159 362.864 304.09C362.793 304.227 362.721 304.364 362.864 304.09C363.006 303.816 363.042 303.748 363.217 303.578C363.253 303.509 363.499 303.202 363.253 303.509C363.006 303.816 363.253 303.509 363.288 303.441C363.324 303.372 363.464 303.271 363.499 303.202C363.71 302.964 363.045 303.575 363.36 303.304L363.639 303.101C363.883 302.966 363.012 303.471 363.395 303.235C363.499 303.202 363.883 302.966 363.395 303.235C362.908 303.504 363.36 303.304 363.395 303.235C363.708 303.136 363.291 303.268 363.187 303.301C362.702 303.397 363.708 303.136 363.187 303.301C363.395 303.235 363.36 303.304 363.187 303.301C363.187 303.301 363.601 303.342 363.428 303.339C363.255 303.337 363.634 303.446 363.634 303.446C363.771 303.517 363.839 303.553 363.941 303.693L363.702 303.482C363.941 303.693 364.075 303.936 364.174 304.249L364.075 303.936C364.105 304.213 364.135 304.49 364.166 304.767C364.13 304.835 364.054 305.318 364.163 304.939C364.092 305.076 364.125 305.181 364.054 305.318C363.982 305.455 363.911 305.592 363.873 305.833C364.051 305.49 363.695 306.175 363.873 305.833C363.837 305.901 363.273 306.652 363.273 306.652C363.484 306.414 363.519 306.345 363.344 306.515L363.273 306.652C363.133 306.754 363.026 306.959 362.887 307.061C362.5 307.469 363.341 306.688 362.922 306.992C362.783 307.094 362.607 307.264 362.467 307.365C362.048 307.669 363.059 307.064 362.607 307.264L362.188 307.568L362.536 307.401L362.292 307.535C362.152 307.637 361.98 307.634 361.84 307.735C361.7 307.837 361.736 307.768 362.152 307.637L361.84 307.735L361.424 307.867C361.215 307.933 361.215 307.933 361.596 307.87L361.319 307.9L360.87 307.927C360.697 307.925 360.421 307.955 360.248 307.952C360.593 307.958 360.248 307.952 360.075 307.95C359.73 307.944 359.352 307.835 359.006 307.829L358.524 307.753C358.387 307.681 358.319 307.646 358.456 307.717L358.182 307.575C357.803 307.465 357.529 307.323 357.187 307.145C356.57 306.824 355.92 306.4 355.411 305.874L355.649 306.085C355.411 305.874 355.172 305.663 354.969 305.383C354.256 304.578 352.727 305.176 352.029 305.683C351.437 305.984 350.947 306.426 350.593 306.938C350.451 307.212 350.062 307.794 350.333 308.109Z" fill="#05061B"/>
<path fill-rule="evenodd" clip-rule="evenodd" d="M177.476 303.95C177.061 304.766 176.716 305.603 176.441 306.452C176.246 306.59 176.089 306.769 176.023 307.001C175.754 307.9 175.411 308.785 174.99 309.61C174.61 310.381 174.13 311.119 173.598 311.816L173.516 311.924L173.352 312.138C173.291 312.219 173.223 312.294 173.155 312.37C173.087 312.445 173.019 312.521 172.958 312.601C172.686 312.903 172.408 313.158 172.13 313.413L172.087 313.453C172.087 313.453 172.091 313.449 172.098 313.442C172.134 313.407 172.243 313.301 172.171 313.359C172.15 313.386 172.109 313.44 172.062 313.446C172.036 313.45 171.999 313.486 171.956 313.527C171.922 313.559 171.885 313.594 171.846 313.621C171.727 313.733 171.605 313.815 171.471 313.905L171.471 313.905C171.437 313.928 171.402 313.952 171.366 313.977C171.289 314.023 171.218 314.075 171.147 314.128C171.076 314.18 171.005 314.232 170.928 314.279C170.806 314.356 170.862 314.324 170.917 314.292C170.973 314.26 171.028 314.228 170.907 314.305C170.819 314.366 170.732 314.426 170.617 314.466C170.54 314.513 170.468 314.554 170.395 314.594C170.323 314.634 170.25 314.675 170.173 314.722L169.951 314.849C169.902 314.882 169.771 314.942 169.734 314.959C169.728 314.962 169.724 314.963 169.724 314.963C169.724 314.963 169.73 314.961 169.745 314.954C169.772 314.943 169.83 314.918 169.93 314.876C169.772 314.946 169.608 315.012 169.443 315.077C169.278 315.143 169.114 315.208 168.956 315.279C168.909 315.286 168.864 315.304 168.818 315.323C168.801 315.33 168.783 315.337 168.765 315.344C168.75 315.348 168.732 315.354 168.708 315.361C168.703 315.362 168.699 315.363 168.694 315.364C168.69 315.365 168.685 315.366 168.681 315.366C168.601 315.39 168.508 315.415 168.416 315.44L168.416 315.44C168.324 315.465 168.232 315.491 168.152 315.514C168.071 315.538 167.984 315.556 167.897 315.575C167.81 315.593 167.723 315.612 167.643 315.635L167.388 315.696L167.294 315.709L167.248 315.716L167.107 315.736L166.873 315.77L166.873 315.77C166.686 315.797 166.499 315.824 166.332 315.824C166.155 315.837 165.983 315.844 165.811 315.851C165.639 315.858 165.468 315.865 165.291 315.878L165.339 315.878C165.304 315.879 165.268 315.881 165.244 315.885L165.004 315.872C164.921 315.872 164.831 315.867 164.741 315.862C164.651 315.857 164.561 315.852 164.477 315.852C164.144 315.852 163.804 315.805 163.465 315.759C163.272 315.739 163.079 315.719 162.906 315.672L162.614 315.619L162.541 315.605L162.514 315.585C162.149 315.518 161.803 315.425 161.458 315.331C160.768 315.144 160.045 314.89 159.369 314.629C159.124 314.569 158.863 314.582 158.609 314.643C158.308 314.71 158.038 314.844 157.775 315.026C157.471 315.26 157.164 315.663 157.641 315.857L157.711 315.892L157.585 315.984C157.949 316.137 158.317 316.276 158.689 316.401C158.791 316.456 158.892 316.513 158.992 316.57C159.153 316.66 159.313 316.751 159.478 316.834C160.119 317.196 160.739 317.584 161.339 317.999C162.512 318.81 163.603 319.727 164.612 320.752C165.157 321.295 165.634 321.871 166.09 322.474L166.005 322.367C166.944 323.593 167.62 325.001 167.974 326.502C168.074 326.918 168.127 327.34 168.153 327.742L168.135 327.601C168.206 328.547 168.115 329.539 167.846 330.437C167.807 330.587 167.759 330.729 167.708 330.879L167.708 330.879C167.675 330.978 167.64 331.079 167.606 331.188C167.599 331.199 167.584 331.234 167.571 331.265C167.55 331.314 167.535 331.35 167.565 331.242L167.489 331.396L167.323 331.778C167.28 331.876 167.235 331.972 167.188 332.068C166.578 332.901 165.991 333.751 165.413 334.609C165.374 334.659 165.34 334.709 165.308 334.759L165.249 334.823L165.249 334.824L165.267 334.823L165.252 334.847C165.202 334.926 165.153 335.005 165.091 335.085C164.989 335.219 165.012 335.407 165.123 335.534C165.255 335.635 165.448 335.655 165.615 335.655C166.162 335.647 166.659 335.433 167.039 335.043C168.025 334.03 168.829 332.878 169.416 331.611C169.579 331.391 169.744 331.171 169.912 330.952L170.178 330.603L170.219 330.55L170.546 330.12C170.792 329.798 171.084 329.47 171.356 329.168C171.901 328.564 172.445 327.96 173.041 327.397C173.19 327.256 173.335 327.122 173.479 326.987C173.598 326.876 173.718 326.764 173.841 326.649L173.875 326.632L173.983 326.545C174.027 326.514 174.064 326.479 174.102 326.444L174.102 326.444L174.102 326.444C174.139 326.409 174.176 326.373 174.22 326.343C174.339 326.231 174.461 326.149 174.595 326.059C174.629 326.036 174.664 326.012 174.7 325.988C174.882 325.847 175.073 325.714 175.258 325.585L175.258 325.585C175.348 325.522 175.437 325.46 175.522 325.399C175.589 325.356 175.715 325.271 175.618 325.33C175.662 325.3 175.701 325.276 175.74 325.253L175.74 325.253C175.779 325.229 175.817 325.206 175.861 325.176C175.939 325.129 176.023 325.087 176.107 325.045L176.107 325.045C176.191 325.003 176.275 324.961 176.352 324.914L176.353 324.914C176.42 324.88 176.487 324.847 176.575 324.786L176.709 324.719L176.761 324.693C176.761 324.693 176.754 324.696 176.744 324.701C176.685 324.73 176.487 324.825 176.595 324.759C176.75 324.665 176.932 324.592 177.093 324.544C177.118 324.532 177.146 324.522 177.177 324.512C177.229 324.494 177.286 324.475 177.341 324.437C177.435 324.424 177.52 324.393 177.606 324.363L177.606 324.363C177.692 324.333 177.777 324.303 177.871 324.289L178.105 324.255L178.245 324.235L178.386 324.215L178.666 324.175C178.76 324.161 178.848 324.154 178.937 324.148C178.99 324.144 179.042 324.14 179.096 324.134L179.114 324.134L179.126 324.132C179.179 324.131 179.244 324.127 179.208 324.121L179.254 324.114L179.541 324.12C179.708 324.12 179.901 324.14 180.047 324.167L180.313 324.2L180.433 324.207C180.825 324.294 181.17 324.387 181.542 324.501C181.609 324.524 181.676 324.547 181.742 324.571C182.603 325.259 183.534 325.851 184.512 326.342C184.757 326.403 185.018 326.389 185.272 326.328C185.527 326.268 185.775 326.161 185.971 326.013C186.194 325.885 186.755 325.422 186.387 325.141C186.29 325.065 186.193 324.99 186.094 324.917L186.176 324.865C186.188 324.871 186.196 324.872 186.184 324.86L186.185 324.86L186.181 324.858C186.176 324.854 186.169 324.848 186.158 324.84L186.006 324.766L185.676 324.599C185.471 324.485 185.266 324.371 185.082 324.23C184.693 323.976 184.303 323.721 183.935 323.44C183.198 322.877 182.522 322.234 181.887 321.538C181.527 321.136 181.188 320.707 180.875 320.298L180.959 320.405C179.552 318.482 178.563 316.284 178.103 313.938C177.975 313.288 177.893 312.631 177.857 311.967L177.875 312.108C177.708 309.815 178.041 307.522 178.793 305.336L178.954 304.907L179.009 304.78L179.1 304.552C179.208 304.27 179.35 303.983 179.485 303.712L179.485 303.712L179.55 303.579C179.778 303.117 179.261 302.976 178.886 303.03C178.579 303.051 178.283 303.165 178.014 303.299C177.903 303.445 177.796 303.569 177.698 303.682L177.698 303.682L177.698 303.682C177.616 303.777 177.541 303.864 177.476 303.95ZM179.126 324.132L179.108 324.133C179.14 324.13 179.172 324.126 179.206 324.121L179.126 324.132ZM175.582 325.356L175.522 325.399C175.483 325.425 175.464 325.436 175.531 325.39C175.541 325.377 175.558 325.369 175.574 325.36L175.582 325.356ZM175.618 325.33C175.61 325.341 175.596 325.349 175.582 325.356L175.618 325.33ZM168.708 315.361C168.727 315.357 168.746 315.35 168.765 315.344C168.804 315.332 168.811 315.331 168.802 315.334C168.79 315.339 168.746 315.353 168.706 315.362L168.708 315.361ZM175.184 312.304C175.33 312.129 175.473 311.95 175.611 311.769C175.631 315.853 177.132 319.853 179.992 322.938C178.735 322.992 177.487 323.278 176.332 323.794C174.685 324.533 173.146 325.566 171.798 326.787C171.284 327.257 170.79 327.749 170.312 328.257C170.369 327.359 170.286 326.456 170.051 325.582C169.65 324.087 168.948 322.66 167.983 321.414C166.959 320.08 165.785 318.888 164.442 317.863C164.169 317.654 163.89 317.45 163.608 317.25C164.469 317.264 165.337 317.209 166.203 317.084C169.62 316.592 172.896 314.974 175.184 312.304ZM173.916 326.578C173.969 326.542 173.911 326.59 173.862 326.629L173.916 326.578ZM173.826 326.656C173.811 326.667 173.803 326.672 173.808 326.665L173.826 326.656ZM145.687 313.607C145.404 314.168 145.169 314.743 144.983 315.328C144.87 315.439 144.783 315.572 144.739 315.729C144.582 316.321 144.351 316.898 144.048 317.461C143.784 317.971 143.474 318.488 143.111 318.964L143.091 318.99L142.97 319.149C142.889 319.254 142.808 319.36 142.681 319.472C142.493 319.663 142.305 319.855 142.111 319.999C142.087 320.03 142.054 320.054 142.027 320.074C142.008 320.088 141.992 320.1 141.983 320.111L141.983 320.111C141.876 320.197 141.769 320.282 141.682 320.341C141.665 320.353 141.647 320.365 141.629 320.378C141.566 320.423 141.494 320.473 141.419 320.507L141.441 320.492C141.496 320.448 141.431 320.489 141.378 320.523L141.374 320.525L141.324 320.559C141.324 320.559 141.329 320.555 141.338 320.55C141.348 320.543 141.362 320.534 141.378 320.523C141.392 320.518 141.405 320.513 141.419 320.507L141.267 320.61C141.223 320.64 141.168 320.671 141.113 320.702L141.113 320.702C141.057 320.733 141.002 320.764 140.959 320.794L140.817 320.878C140.815 320.879 140.811 320.881 140.807 320.882C140.776 320.895 140.714 320.921 140.691 320.924L140.511 320.996C140.397 321.035 140.283 321.074 140.15 321.139L140.098 321.153C140.105 321.148 140.095 321.146 140.056 321.151C139.901 321.172 139.829 321.198 139.744 321.228L139.744 321.228C139.726 321.234 139.708 321.241 139.689 321.247C139.632 321.267 139.58 321.28 139.529 321.293C139.477 321.305 139.425 321.318 139.368 321.338L139.228 321.356L139.182 321.362L139.088 321.375L138.528 321.449L138.174 321.472L138.007 321.471C137.554 321.459 137.074 321.428 136.615 321.37C136.542 321.356 136.475 321.347 136.408 321.338C136.342 321.329 136.275 321.32 136.202 321.306L136.009 321.284L135.936 321.27L135.982 321.264L135.244 321.077C134.751 320.952 134.252 320.781 133.82 320.577C133.574 320.514 133.314 320.525 133.06 320.582C132.76 320.646 132.492 320.777 132.231 320.954C131.93 321.184 131.627 321.581 132.085 321.805L132.159 321.842L132.118 321.872C132.268 321.935 132.42 321.994 132.572 322.051L132.65 322.11L132.73 322.171C132.833 322.229 132.942 322.291 133.052 322.354L133.053 322.355C133.162 322.417 133.271 322.48 133.374 322.537C133.786 322.773 134.205 323.051 134.601 323.314L134.675 323.362C135.491 323.943 136.24 324.557 136.955 325.27C137.339 325.647 137.657 326.056 137.974 326.466L137.888 326.358C138.727 327.459 139.258 328.743 139.422 330.123L139.403 329.983C139.47 330.82 139.355 331.681 139.044 332.477L139.041 332.48C139.057 332.435 139.063 332.417 139.062 332.417C139.062 332.417 139.059 332.424 139.054 332.436C139.046 332.453 139.034 332.481 139.022 332.506C138.444 333.276 137.904 334.063 137.353 334.865L137.353 334.865L137.317 334.918C137.216 335.05 137.241 335.237 137.354 335.365C137.487 335.466 137.68 335.488 137.846 335.489C138.393 335.488 138.888 335.28 139.264 334.897C139.287 334.874 139.309 334.851 139.332 334.827L139.444 334.826L139.444 334.826L139.444 334.826C139.563 334.648 139.681 334.471 139.8 334.294C140.084 333.942 140.342 333.565 140.57 333.171C140.799 332.846 141.033 332.523 141.275 332.206L141.376 332.074L141.457 331.968L141.537 331.863L141.679 331.678C141.759 331.572 141.852 331.465 141.944 331.357C142.037 331.25 142.129 331.143 142.21 331.037C142.579 330.608 142.955 330.225 143.331 329.842C143.425 329.747 143.526 329.656 143.626 329.566L143.626 329.566C143.715 329.485 143.805 329.405 143.889 329.321L143.901 329.315C143.921 329.289 143.948 329.267 143.975 329.246C144.002 329.225 144.029 329.203 144.049 329.177L144.37 328.92C144.405 328.894 144.441 328.868 144.477 328.84C144.642 328.716 144.819 328.582 145 328.48C145.111 328.418 145.05 328.456 144.99 328.493L144.99 328.493L144.99 328.493C144.93 328.531 144.87 328.569 144.98 328.507C145.013 328.49 145.035 328.476 145.057 328.461C145.079 328.446 145.1 328.431 145.134 328.415C145.19 328.388 145.241 328.357 145.29 328.327C145.358 328.286 145.422 328.248 145.488 328.225L145.622 328.16L145.622 328.16C145.689 328.127 145.89 328.029 145.669 328.154C145.559 328.216 145.559 328.216 145.592 328.2C145.625 328.183 145.692 328.151 145.716 328.148C145.762 328.141 145.829 328.109 145.896 328.076C145.963 328.043 146.164 327.946 146.237 327.96C146.247 327.962 146.248 327.965 146.243 327.969L146.123 327.998L146.086 328.017C146.032 328.03 145.998 328.039 146.056 328.031L146.086 328.017L146.087 328.016C146.145 328.002 146.225 327.981 146.243 327.969L146.33 327.947C146.386 327.928 146.443 327.92 146.5 327.913C146.44 327.929 146.419 327.94 146.579 327.901C146.612 327.896 146.645 327.888 146.677 327.877L146.818 327.859C146.878 327.863 146.936 327.855 146.994 327.847C147.02 327.844 147.045 327.84 147.071 327.838C147.077 327.839 147.084 327.839 147.093 327.84C147.102 327.84 147.113 327.841 147.124 327.842C147.161 327.849 147.191 327.851 147.221 327.853L147.221 327.853C147.251 327.855 147.281 327.857 147.318 327.864C147.391 327.878 147.462 327.88 147.534 327.883C147.606 327.885 147.677 327.887 147.751 327.901L147.944 327.923L148.017 327.937C148.31 327.993 148.583 328.076 148.862 328.205C148.938 328.243 149.02 328.274 149.101 328.304L149.101 328.304C149.183 328.335 149.264 328.366 149.341 328.403L149.44 328.438L149.467 328.458L149.522 328.489C149.728 328.628 149.939 328.759 150.154 328.882C150.307 328.983 150.46 329.09 150.615 329.209L150.686 329.164C150.718 329.18 150.75 329.195 150.782 329.21C151.028 329.273 151.288 329.262 151.542 329.204C151.795 329.147 152.043 329.043 152.237 328.898C152.458 328.774 153.014 328.32 152.623 328.063C152.062 327.612 151.444 327.252 150.789 326.983C150.686 326.9 150.587 326.815 150.492 326.73C149.882 326.225 149.345 325.625 148.851 325.014C147.573 323.285 146.775 321.255 146.603 319.118L146.622 319.258C146.536 318.271 146.589 317.266 146.769 316.316C146.865 315.804 146.989 315.312 147.139 314.841C147.166 314.778 147.186 314.71 147.207 314.641L147.207 314.641L147.207 314.641C147.227 314.573 147.248 314.505 147.275 314.442C147.282 314.432 147.294 314.401 147.304 314.374L147.304 314.374C147.32 314.33 147.332 314.299 147.315 314.389C147.335 314.363 147.344 314.338 147.352 314.313C147.361 314.288 147.369 314.263 147.389 314.237L147.389 314.237C147.498 313.985 147.606 313.733 147.735 313.454C147.958 312.997 147.439 312.852 147.065 312.902C146.758 312.919 146.464 313.029 146.197 313.159C146.016 313.231 145.828 313.422 145.687 313.607ZM146.677 327.877C146.659 327.882 146.642 327.886 146.626 327.89C146.609 327.894 146.593 327.898 146.579 327.901C146.554 327.906 146.529 327.909 146.504 327.912L146.504 327.912L146.5 327.913C146.54 327.902 146.597 327.888 146.631 327.884L146.677 327.877ZM138.272 322.719C140.575 322.413 142.825 321.415 144.464 319.703C144.643 322.172 145.607 324.571 147.294 326.509C146.609 326.594 145.94 326.772 145.303 327.038C143.886 327.618 142.654 328.51 141.562 329.559C141.547 329.123 141.487 328.69 141.382 328.271C140.823 326.088 139.169 324.24 137.438 322.877C137.403 322.85 137.367 322.823 137.331 322.796C137.646 322.782 137.96 322.757 138.272 322.719ZM140.738 320.918L140.805 320.885L140.805 320.886L140.738 320.918ZM143.834 329.348L143.863 329.334C143.815 329.371 143.774 329.401 143.834 329.348ZM147.132 327.837L147.1 327.836C147.124 327.834 147.147 327.834 147.171 327.836C147.221 327.839 147.18 327.838 147.132 327.837ZM157.236 293.899C157.362 293.485 157.523 293.082 157.72 292.694L157.767 292.689C157.929 292.477 158.096 292.313 158.345 292.21C158.614 292.081 158.91 291.973 159.219 291.958C159.595 291.911 160.12 292.061 159.898 292.518C159.805 292.697 159.731 292.85 159.664 293.049C159.656 293.06 159.646 293.08 159.638 293.098C159.625 293.127 159.615 293.148 159.623 293.102C159.637 293.029 159.583 293.155 159.583 293.155C159.523 293.234 159.489 293.334 159.476 293.407C159.355 293.733 159.281 294.053 159.235 294.393C159.134 295.027 159.108 295.675 159.156 296.338L159.135 296.197C159.291 297.606 159.794 298.949 160.65 300.105C160.977 300.503 161.324 300.878 161.728 301.225L162.214 301.596C162.544 301.762 162.86 301.963 163.161 302.193C163.538 302.481 162.98 302.932 162.759 303.056C162.564 303.199 162.315 303.302 162.06 303.358C161.804 303.413 161.542 303.422 161.293 303.358C160.801 303.11 160.336 302.805 159.907 302.458C159.87 302.446 159.831 302.434 159.793 302.422C159.699 302.392 159.605 302.362 159.518 302.337L159.396 302.328C159.349 302.334 159.301 302.328 159.252 302.322C159.203 302.316 159.154 302.31 159.107 302.316L159.037 302.311C159.017 302.315 158.997 302.316 158.971 302.316C158.941 302.317 158.903 302.318 158.845 302.325L158.61 302.354C158.563 302.36 158.449 302.398 158.449 302.398C158.449 302.398 158.482 302.384 158.522 302.367C158.517 302.369 158.513 302.37 158.508 302.371C158.479 302.38 158.445 302.39 158.402 302.404C158.366 302.416 158.314 302.439 158.272 302.459C158.25 302.47 158.227 302.483 158.2 302.501C158.156 302.53 158.118 302.553 158.079 302.576C158.04 302.598 158.002 302.621 157.958 302.65C157.847 302.712 157.908 302.675 157.968 302.637C158.029 302.6 158.089 302.562 157.978 302.624L157.978 302.624C157.824 302.715 157.669 302.806 157.541 302.917C157.498 302.947 157.461 302.981 157.424 303.016C157.389 303.048 157.355 303.08 157.315 303.108C157.306 303.117 157.295 303.129 157.286 303.14C157.138 303.278 157.011 303.39 156.883 303.501L156.883 303.501C156.655 303.745 156.406 304.014 156.158 304.284L156.158 304.284C156.01 304.422 155.889 304.581 155.768 304.739L155.768 304.739L155.688 304.845L155.667 304.871L155.647 304.897L155.547 305.029C155.49 305.103 155.434 305.178 155.378 305.253C155.088 305.864 154.705 306.421 154.237 306.913C153.861 307.294 153.364 307.499 152.813 307.496C152.644 307.493 152.449 307.47 152.315 307.367C152.2 307.238 152.173 307.05 152.274 306.918C152.313 306.858 152.352 306.799 152.392 306.739L152.368 306.739C152.388 306.724 152.406 306.708 152.423 306.693C152.618 306.402 152.82 306.117 153.027 305.835C153.04 305.812 153.053 305.79 153.066 305.768C153.105 305.704 153.144 305.639 153.181 305.563L153.295 305.358C153.3 305.331 153.309 305.29 153.317 305.258C153.478 304.765 153.535 304.195 153.481 303.662L153.502 303.803C153.393 302.885 153.029 302.022 152.444 301.283L152.531 301.392C152.033 300.761 151.421 300.168 150.775 299.676C150.452 299.429 150.082 299.189 149.712 298.948C149.524 298.804 149.342 298.707 149.16 298.611L149.16 298.611L149.006 298.534C148.903 298.483 148.982 298.516 149.008 298.527C149.021 298.532 149.021 298.532 148.979 298.514L148.669 298.361C148.205 298.132 148.507 297.736 148.81 297.508C149.072 297.332 149.341 297.203 149.643 297.141C149.899 297.085 150.161 297.076 150.41 297.141C150.739 297.267 151.069 297.393 151.391 297.473C151.465 297.487 151.546 297.507 151.627 297.527C151.708 297.547 151.788 297.566 151.862 297.581L151.983 297.59L152.205 297.634C152.387 297.67 152.573 297.678 152.763 297.687C152.878 297.692 152.993 297.697 153.11 297.709C153.134 297.708 153.157 297.706 153.173 297.704L153.409 297.675C153.577 297.678 153.718 297.66 153.859 297.643C153.906 297.637 153.946 297.626 153.987 297.615C154.027 297.604 154.067 297.593 154.114 297.587L154.114 297.587C154.157 297.582 154.19 297.578 154.219 297.572L154.323 297.537C154.35 297.524 154.378 297.519 154.408 297.513C154.452 297.505 154.499 297.496 154.551 297.461L154.955 297.267C154.978 297.264 155 297.25 155.022 297.235C155.037 297.225 155.053 297.214 155.07 297.208C155.105 297.183 155.143 297.16 155.176 297.144L155.351 297.027L155.459 296.942C155.461 296.941 155.464 296.939 155.467 296.938C155.509 296.892 155.558 296.848 155.606 296.804C155.675 296.742 155.744 296.679 155.794 296.613L155.935 296.429L156.016 296.323C156.238 296.033 156.452 295.695 156.62 295.364C156.645 295.306 156.671 295.258 156.695 295.213C156.724 295.161 156.75 295.113 156.768 295.059L156.821 294.933C156.821 294.933 156.909 294.707 156.855 294.833L157.056 294.234C157.091 294.107 157.154 293.996 157.236 293.899ZM156.981 297.388C156.992 297.469 157.005 297.55 157.019 297.631C157.249 298.943 157.813 300.178 158.668 301.225C158.395 301.292 158.126 301.38 157.863 301.492C157.087 301.801 156.393 302.238 155.763 302.753C155.738 302.622 155.706 302.492 155.665 302.363C155.316 300.996 154.345 299.844 153.263 298.952C154.623 298.757 155.926 298.235 156.981 297.388ZM155.527 296.895C155.525 296.896 155.516 296.905 155.502 296.915C155.521 296.898 155.528 296.893 155.527 296.895ZM154.981 297.288C154.944 297.338 154.817 297.356 155.042 297.229C155.017 297.248 154.996 297.269 154.981 297.288ZM152.971 297.709C152.959 297.708 152.983 297.708 153.077 297.709C153.029 297.71 152.982 297.71 152.971 297.709ZM153.317 305.258C153.323 305.231 153.329 305.21 153.328 305.21C153.328 305.21 153.323 305.23 153.308 305.284C153.311 305.276 153.314 305.267 153.317 305.258ZM159.08 302.296C159.148 302.297 159.119 302.298 159.07 302.3C159.074 302.299 159.077 302.297 159.08 302.296Z" fill="#878890"/>
<path d="M331.77 117.787C325.058 115.337 319.355 110.792 315.525 104.846C313.488 101.753 312.066 98.391 311.317 94.7755C310.935 92.8756 310.883 90.877 311.247 88.9217C311.444 88.1284 311.699 87.3493 311.997 86.6412C311.869 86.9102 312.011 86.5845 312.025 86.5279C312.039 86.4712 312.124 86.3721 312.153 86.2588C312.252 86.1031 312.366 85.8907 312.466 85.7349L312.565 85.5792C312.366 85.8907 312.565 85.5792 312.58 85.5225C312.751 85.3244 312.865 85.112 313.036 84.9139C313.107 84.8715 313.307 84.5601 313.036 84.9139C313.107 84.8715 313.135 84.7582 313.207 84.7158C313.364 84.5743 313.464 84.4186 313.607 84.3338C313.806 84.0224 313.75 84.2491 313.607 84.3338C313.693 84.2348 313.764 84.1924 313.836 84.15C313.993 84.0085 314.15 83.8671 314.35 83.7966L314.422 83.7542C314.494 83.7118 314.565 83.6694 314.708 83.5846L314.994 83.4151C314.994 83.4151 315.338 83.2598 315.066 83.3727C315.467 83.2317 315.868 83.0907 316.269 82.9497C316.069 83.0202 316.398 82.9215 316.398 82.9215L316.585 82.9077C316.771 82.8939 316.957 82.88 317.144 82.8662C317.459 82.8242 317.818 82.8532 318.119 82.868C318.881 82.9969 319.627 83.1825 320.275 83.5238C321.54 84.0789 322.577 85.0587 323.243 86.3072C323.519 86.9171 323.723 87.5695 323.74 88.2356C323.713 88.5899 323.672 89.0009 323.645 89.3552C323.575 89.6385 323.687 89.1852 323.617 89.4685L323.546 89.7518C323.518 89.8652 323.504 89.9218 323.419 90.0209C323.333 90.12 323.191 90.4457 323.376 90.1909C323.277 90.3466 323.234 90.5166 323.149 90.6157C323.121 90.729 323.049 90.7714 322.963 90.8705C323.206 90.63 322.963 90.8705 322.949 90.9271C322.85 91.0829 322.75 91.2386 322.607 91.3234L322.764 91.1819L322.607 91.3234C322.521 91.4224 322.378 91.5072 322.293 91.6063C322.05 91.8468 322.521 91.4224 322.293 91.6063L322.064 91.7901C321.992 91.8325 321.549 92.1435 321.835 91.974C321.678 92.1154 321.478 92.1859 321.263 92.3131L320.991 92.426C321.263 92.3131 320.919 92.4684 320.848 92.5108C319.172 93.1172 317.336 93.1422 315.612 92.7139C312.279 91.8858 309.258 90.052 306.979 87.44C302.623 82.6274 300.899 76.062 302.333 69.8C302.418 69.4599 302.291 69.97 302.362 69.6866C302.39 69.5733 302.404 69.5166 302.432 69.4033C302.46 69.2899 302.516 69.0633 302.559 68.8933C302.657 68.4966 302.813 68.1142 302.969 67.7318C303.083 67.5194 303.082 67.2785 302.952 67.0656C302.736 66.9518 302.506 66.8947 302.292 67.0219C301.618 67.2758 301.061 67.7992 300.778 68.4507C298.139 74.8948 299.481 82.5083 303.653 88.0576C305.747 90.9244 308.684 93.0983 312.019 94.4082C313.959 95.1913 316.098 95.4219 318.12 95.1421C320.213 94.8199 322.174 93.8029 323.645 92.3032C325.03 90.9026 326.097 89.0619 326.16 87.092C326.195 85.4763 325.556 83.8735 324.374 82.7375C323.25 81.6158 321.726 80.876 320.132 80.6605C318.295 80.4446 316.503 80.7816 314.929 81.7142C311.223 83.8618 308.888 87.6135 308.563 91.865C308.224 95.9321 309.52 100.045 311.373 103.634C314.762 110.372 320.412 115.868 327.314 119.027C328.134 119.411 328.967 119.738 329.801 120.066C330.635 120.393 332.705 118.2 331.77 117.787Z" fill="#878890"/>
<path d="M311.869 126.321C310.556 123.559 309.028 120.927 307.143 118.511C305.487 116.151 303.589 114.035 301.391 112.15C298.665 109.95 295.211 108.24 291.63 108.506C288.162 108.802 285.081 110.715 283.255 113.671C281.587 116.239 281.888 119.663 284 121.892C284.957 122.921 286.255 123.549 287.668 123.717C289.109 123.771 290.579 123.223 291.663 122.274C293.96 120.349 295.171 117.423 294.757 114.458C294.356 111.437 291.972 109.079 289.503 107.552C286.435 105.754 283.052 104.488 279.542 103.737C275.76 102.858 271.922 102.453 268.027 102.52C267.056 102.522 266.129 102.596 265.144 102.656C264.445 102.786 263.846 103.246 263.504 103.892C263.29 104.265 263.105 105.01 263.789 104.937C270.909 104.332 278.073 105.503 284.652 108.295C287.278 109.434 289.904 111.061 291.403 113.564C291.874 114.351 292.203 115.224 292.346 116.112C292.374 116.241 292.403 116.37 292.374 116.485C292.346 116.599 292.389 116.671 292.374 116.728C292.36 116.785 292.389 116.671 292.403 116.857C292.432 117.473 292.361 118.003 292.218 118.577C292.204 118.634 292.19 118.691 292.161 118.806C292.204 118.634 292.175 118.749 292.161 118.806C292.133 118.921 292.09 119.093 292.061 119.207C292.033 119.322 291.933 119.48 291.89 119.652C291.876 119.709 291.862 119.767 291.848 119.824C291.719 120.097 291.962 119.609 291.848 119.824C291.762 119.924 291.719 120.097 291.634 120.197L291.534 120.355L291.52 120.412L291.605 120.312C291.534 120.355 291.434 120.513 291.42 120.57C291.406 120.627 291.12 120.8 291.491 120.527C291.42 120.57 291.406 120.627 291.32 120.728L291.177 120.814C290.935 121.058 291.477 120.584 291.249 120.771L290.963 120.944C290.735 121.131 291.249 120.771 290.963 120.944L290.821 121.03L290.621 121.102C290.55 121.145 290.878 121.044 290.621 121.102C290.492 121.131 290.364 121.16 290.293 121.203C290.221 121.246 289.965 121.304 290.221 121.246L290.036 121.261C289.722 121.305 289.408 121.349 289.108 121.335C288.523 121.251 287.953 121.109 287.482 120.809C286.425 120.181 285.612 119.31 285.098 118.208C284.826 117.592 284.612 116.991 284.526 116.361C284.469 116.103 284.469 115.86 284.483 115.559C284.455 115.43 284.497 115.258 284.526 115.143C284.54 115.086 284.569 114.971 284.583 114.914C284.597 114.856 284.668 114.57 284.626 114.742C284.697 114.455 284.825 114.182 284.968 113.853C285.096 113.58 284.868 114.01 284.982 113.795C284.996 113.738 285.082 113.637 285.096 113.58C285.196 113.422 285.239 113.25 285.381 113.164C285.139 113.408 285.367 113.221 285.396 113.107C285.41 113.049 285.481 113.006 285.495 112.949L285.667 112.748L285.681 112.69L285.61 112.734C285.638 112.619 285.852 112.489 285.938 112.389C286.023 112.288 286.094 112.245 286.109 112.188L286.023 112.288L286.166 112.202C286.308 112.116 286.465 111.972 286.608 111.886C286.679 111.843 286.751 111.799 286.765 111.742L286.622 111.828L286.765 111.742L287.179 111.54L287.393 111.411C287.464 111.368 287.806 111.209 287.535 111.325C287.806 111.209 288.135 111.108 288.406 110.993L288.934 110.82L289.133 110.748C289.005 110.777 289.319 110.733 289.333 110.675C292.443 110.109 295.654 111.333 298.195 113.06C300.393 114.702 302.391 116.66 304.019 118.891C305.817 121.164 307.459 123.581 308.83 126.114C309.115 126.672 309.358 127.158 309.644 127.716C309.929 128.274 310.628 127.9 310.999 127.627C311.299 127.397 311.556 127.096 311.755 126.78C311.798 126.851 311.998 126.536 311.869 126.321Z" fill="#878890"/>
<path d="M147.388 82.3415L137.476 76.201L134.662 74.4807C134.262 74.244 133.555 74.5268 133.222 74.8155C133.024 74.968 132.382 75.5053 132.821 75.7657L142.734 81.9061L145.547 83.6265C145.947 83.8631 146.654 83.5803 146.987 83.2916C147.185 83.1392 147.828 82.6018 147.388 82.3415Z" fill="#878890"/>
<path d="M142.266 87.8909L129.354 86.4513C128.796 86.3908 128.239 86.6011 127.836 87.0096C127.614 87.202 127.259 87.8015 127.816 87.862L140.729 89.3016C141.287 89.3621 141.843 89.1519 142.247 88.7433C142.429 88.5272 142.824 87.9514 142.266 87.8909Z" fill="#878890"/>
<path d="M182.072 67.5264L184.454 59.2208C184.571 58.7501 184.14 58.657 183.758 58.7548C183.464 58.7963 183.162 58.9414 182.94 59.1338C182.702 59.2627 182.544 59.4388 182.465 59.6623L180.083 67.9679C179.967 68.4386 180.397 68.5317 180.779 68.4339C181.073 68.3924 181.375 68.2473 181.597 68.0549C181.812 67.966 181.97 67.7899 182.072 67.5264Z" fill="#878890"/>
<path d="M175.264 69.27L169.267 56.9738C169.066 56.5846 168.255 56.8601 167.993 57.0289C167.731 57.1976 166.993 57.624 167.234 58.0369L173.231 70.3331C173.432 70.7222 174.243 70.4467 174.505 70.278C174.767 70.1092 175.481 69.7228 175.264 69.27Z" fill="#878890"/>
</g>
<defs>
<clipPath id="clip0_119_1134">
<rect width="375" height="375" fill="white" transform="matrix(-1 0 0 1 375 0)"/>
</clipPath>
</defs>
</svg>
